<svg xmlns="http://www.w3.org/2000/svg" width="20" height="20" viewBox="0 0 20 20"><defs><style>.a{fill:#fff;opacity:0.004;}.b{fill:#8a4ff6;}</style></defs><g transform="translate(0)"><rect class="a" width="20" height="20" transform="translate(0)"/><path class="b" d="M10.126,0a3.618,3.618,0,0,0-2.64,1.131L.32,9.177a1.222,1.222,0,0,0,.126,1.76,1.222,1.222,0,0,0,1.76-.126L9.5,2.766a.96.96,0,0,1,.629-.251,1.087,1.087,0,0,1,.754.377l6.914,8.046A1.248,1.248,0,1,0,19.68,9.3L12.766,1.257A3.008,3.008,0,0,0,10.126,0Z" transform="translate(3.617 20) rotate(-90)"/></g></svg>