<svg xmlns="http://www.w3.org/2000/svg" width="20" height="20" viewBox="0 0 20 20"><defs><style>.a{fill:#fff;opacity:0.004;}.b{fill:#8a4ff6;}</style></defs><g transform="translate(-613 -2483)"><rect class="a" width="20" height="20" transform="translate(613 2483)"/><path class="b" d="M69.6,292.719a3.618,3.618,0,0,1-2.64-1.131l-7.166-8.046a1.248,1.248,0,1,1,1.886-1.634l7.291,8.046a.96.96,0,0,0,.629.251,1.087,1.087,0,0,0,.754-.377l6.914-8.046a1.248,1.248,0,1,1,1.886,1.634l-6.914,8.046a3.008,3.008,0,0,1-2.64,1.257Z" transform="translate(336.664 2562.47) rotate(-90)"/></g></svg>