<svg id="_580_online_presentation_outline" data-name="#580_online_presentation_outline" xmlns="http://www.w3.org/2000/svg" viewBox="0 0 400 300" width="406" height="306" class="illustration styles_illustrationTablet__1DWOa"><rect x="120.86" y="86.53" width="156.53" height="93.27" fill="#fff"></rect><path d="M277.39,180.8H120.86a1,1,0,0,1-1-1V86.53a1,1,0,0,1,1-1H277.39a1,1,0,0,1,1,1V179.8A1,1,0,0,1,277.39,180.8Zm-155.53-2H276.39V87.53H121.86Z" fill="#093f68"></path><path d="M194.68,168.27H131a1,1,0,0,1-1-1V96.06a1,1,0,0,1,1-1h63.68a1,1,0,0,1,1,1v71.21A1,1,0,0,1,194.68,168.27Zm-62.68-2h61.68V97.06H132Z" fill="#dfeaef"></path><rect x="94.12" y="204.84" width="209.66" height="8.63" transform="translate(397.9 418.31) rotate(-180)" fill="#f56132"></rect><path d="M303.78,214.47H94.12a1,1,0,0,1-1-1v-8.63a1,1,0,0,1,1-1H303.78a1,1,0,0,1,1,1v8.63A1,1,0,0,1,303.78,214.47Zm-208.66-2H302.78v-6.63H95.12Z" fill="#093f68"></path><ellipse cx="306.15" cy="151.03" rx="7.27" ry="6.27" fill="#ffc9b0"></ellipse><path d="M306.15,158.3c-4.56,0-8.27-3.26-8.27-7.27s3.71-7.26,8.27-7.26,8.27,3.26,8.27,7.26S310.71,158.3,306.15,158.3Zm0-12.53c-3.46,0-6.27,2.36-6.27,5.26s2.81,5.27,6.27,5.27,6.27-2.36,6.27-5.27S309.61,145.77,306.15,145.77Z" fill="#093f68"></path><path d="M275,124.16c-6.24,10.71-10.5,4.64-11.78,2.54v22.82a21.93,21.93,0,0,0,20,21.85v4.69a3.75,3.75,0,0,0,7.49,0v-4.4c13.3-.5,19.79-11.95,19.79-22.14l-3.43-20.31S298.36,136,275,124.16Z" fill="#ffc9b0"></path><path d="M287,180.8a4.75,4.75,0,0,1-4.75-4.74v-3.79a23.08,23.08,0,0,1-20-22.75V126.7a1,1,0,0,1,1.85-.52c1.27,2.08,2.6,3.14,4,3.14h0c1.83,0,3.93-2,6.08-5.67a1,1,0,0,1,1.32-.38c22.35,11.32,30.95,5.21,31,5.15a1,1,0,0,1,1-.13,1,1,0,0,1,.62.76l3.43,20.31a.86.86,0,0,1,0,.16,25.21,25.21,0,0,1-5.12,15.32,20,20,0,0,1-14.67,7.76v3.46A4.75,4.75,0,0,1,287,180.8Zm-22.77-51.2v19.92a21.06,21.06,0,0,0,19.11,20.86,1,1,0,0,1,.91,1v4.69a2.75,2.75,0,0,0,5.49,0v-4.4a1,1,0,0,1,1-1c12.33-.46,18.8-10.92,18.83-21l-3.18-18.84c-3.28,1.47-12.66,3.76-31-5.3-2.43,3.91-4.83,5.82-7.31,5.85h0A5.41,5.41,0,0,1,264.21,129.6Z" fill="#093f68"></path><ellipse cx="267.47" cy="150.08" rx="5.75" ry="6.27" fill="#ffc9b0"></ellipse><path d="M267.47,157.35a7.29,7.29,0,1,1,6.75-7.27A7,7,0,0,1,267.47,157.35Zm0-12.54a5.3,5.3,0,1,0,4.75,5.27A5,5,0,0,0,267.47,144.81Z" fill="#093f68"></path><path d="M297.64,214.47a1,1,0,0,1-1-1V183.54a1,1,0,1,1,2,0v29.93A1,1,0,0,1,297.64,214.47Z" fill="#093f68"></path><path d="M302.52,170.67H274.17c-5,0-12.33,4.8-14.93,11.29-5.09,12.68-5.33,31.51-5.33,31.51h55.92V178A7.31,7.31,0,0,0,302.52,170.67Z" fill="#68e1fd"></path><path d="M269.22,213.74a1,1,0,0,1-1-1V182a1,1,0,0,1,2,0v30.78A1,1,0,0,1,269.22,213.74Z" fill="#093f68"></path><path d="M309.83,214.47H253.91a1,1,0,0,1-1-1c0-.78.3-19.17,5.4-31.88,2.82-7,10.62-11.91,15.86-11.91h28.34a8.33,8.33,0,0,1,8.32,8.32v35.48A1,1,0,0,1,309.83,214.47Zm-54.89-2h53.89V178a6.33,6.33,0,0,0-6.32-6.32H274.17c-4.59,0-11.55,4.56-14,10.66C255.88,193,255.08,208.41,254.94,212.47Z" fill="#093f68"></path><path d="M268,150.28c.65-3.43.71-7.58-.61-10.79s-1.82-2.18-4.56-4.11a6.55,6.55,0,0,1-2.36-4.16,13.15,13.15,0,0,1,2.53-10.4,14.6,14.6,0,0,1,7.15-5.09c.87-.24,8-.28,7.85,0,1.32-3.16,4.34-5.31,7.51-6.6,12.3-5,24.5.38,29.49,12.49,2.7,6.54,1.63,14.71,2.52,21.58,1.15,8.81.65,18,.64,26.92,0,3.45,0,7-1.23,10.22a20.86,20.86,0,0,1-7.13,8.94c-9.09,7-22.1,9-32.44,4.07S260.37,176.12,263,165c1.13-4.79,3.75-9.14,4.82-13.94C267.87,150.77,267.92,150.53,268,150.28Z" fill="#725858"></path><path d="M289.76,197.13a29.68,29.68,0,0,1-12.86-2.83C265.9,189,259.36,176,262,164.72a48.2,48.2,0,0,1,2.43-7,45,45,0,0,0,2.39-6.93c.05-.23.1-.46.14-.7a18.7,18.7,0,0,0-.55-10.22c-.76-1.85-1-2-1.95-2.4a12.57,12.57,0,0,1-2.26-1.28,7.38,7.38,0,0,1-2.76-4.77,14.14,14.14,0,0,1,2.72-11.2,15.38,15.38,0,0,1,7.67-5.45,48,48,0,0,1,7.54-.1,14.54,14.54,0,0,1,7.72-6.41c12.62-5.11,25.57.37,30.79,13,1.84,4.45,2,9.55,2.13,14.49.08,2.58.15,5,.45,7.34a149,149,0,0,1,.71,21c0,2-.06,4-.06,6,0,3.34,0,7.13-1.29,10.57a21.57,21.57,0,0,1-7.46,9.38A34.06,34.06,0,0,1,289.76,197.13Zm-15.42-80.59a30.36,30.36,0,0,0-3.95.16,13.48,13.48,0,0,0-6.62,4.73,12.14,12.14,0,0,0-2.35,9.59,5.68,5.68,0,0,0,1.95,3.54,11.45,11.45,0,0,0,1.94,1.1c1.26.57,2,1,3,3.45a20.67,20.67,0,0,1,.67,11.36h0c-.05.26-.1.51-.16.76a46.24,46.24,0,0,1-2.49,7.25,45.81,45.81,0,0,0-2.33,6.7c-2.45,10.41,3.61,22.41,13.79,27.31,9.67,4.66,22.28,3.06,31.4-4A19.67,19.67,0,0,0,316,180c1.15-3.1,1.16-6.54,1.17-9.87,0-2,0-4,.06-6.07.09-6.86.19-14-.69-20.72-.32-2.42-.39-5-.47-7.54-.14-4.76-.28-9.67-2-13.79-4.85-11.78-16.44-16.69-28.19-11.94-3.44,1.39-5.91,3.54-7,6.06h0a1,1,0,0,1-1.3.53l-.12,0A28.46,28.46,0,0,0,274.34,116.54ZM268,150.28h0Zm9.08-34.89Z" fill="#093f68"></path><ellipse cx="92.92" cy="147.39" rx="7.27" ry="6.27" fill="#ffc9b0"></ellipse><path d="M92.92,154.65c-4.57,0-8.28-3.26-8.28-7.26s3.71-7.27,8.28-7.27,8.27,3.26,8.27,7.27S97.48,154.65,92.92,154.65Zm0-12.53c-3.46,0-6.28,2.36-6.28,5.27s2.82,5.26,6.28,5.26,6.27-2.36,6.27-5.26S96.38,142.12,92.92,142.12Z" fill="#093f68"></path><path d="M124.08,120.51c6.24,10.71,10.5,4.65,11.78,2.54v22.83a21.93,21.93,0,0,1-20,21.85v4.68a3.75,3.75,0,0,1-7.49,0V168c-13.3-.49-19.8-11.94-19.8-22.13L92,125.57S100.71,132.35,124.08,120.51Z" fill="#ffc9b0"></path><path d="M112.09,177.15a4.75,4.75,0,0,1-4.74-4.74V169a20.09,20.09,0,0,1-14.68-7.76,25.28,25.28,0,0,1-5.12-15.32,1,1,0,0,1,0-.17L91,125.4a1,1,0,0,1,1.6-.62c.08,0,8.67,6.17,31-5.16A1,1,0,0,1,125,120c2.14,3.69,4.25,5.64,6.08,5.66h0c1.36,0,2.69-1,4-3.14a1,1,0,0,1,1.12-.44,1,1,0,0,1,.73,1v22.83a23.09,23.09,0,0,1-20,22.75v3.78A4.75,4.75,0,0,1,112.09,177.15ZM89.55,146c0,10.13,6.51,20.6,18.84,21.06a1,1,0,0,1,1,1v4.4a2.75,2.75,0,0,0,5.49,0v-4.68a1,1,0,0,1,.91-1,21.05,21.05,0,0,0,19.11-20.85V126a5.51,5.51,0,0,1-3.85,1.71c-2.48,0-4.88-1.94-7.31-5.85-18.3,9.06-27.68,6.78-31,5.3Z" fill="#093f68"></path><ellipse cx="131.6" cy="146.43" rx="5.75" ry="6.27" fill="#ffc9b0"></ellipse><path d="M131.6,153.7a7.29,7.29,0,1,1,6.74-7.27A7,7,0,0,1,131.6,153.7Zm0-12.53a5.29,5.29,0,1,0,4.74,5.26A5,5,0,0,0,131.6,141.17Z" fill="#093f68"></path><path d="M101.43,214.47a1,1,0,0,1-1-1V183.54a1,1,0,0,1,2,0v29.93A1,1,0,0,1,101.43,214.47Z" fill="#093f68"></path><polygon points="143.05 176.96 176.49 176.96 170.78 201.39 137.34 201.39 143.05 176.96" fill="#fff"></polygon><path d="M170.78,202.39H137.34a1,1,0,0,1-1-1.23l5.71-24.43a1,1,0,0,1,1-.77h33.44a1,1,0,0,1,.78.38,1,1,0,0,1,.19.85l-5.7,24.43A1,1,0,0,1,170.78,202.39Zm-32.18-2H170L175.23,178H143.84Z" fill="#093f68"></path><rect x="127.07" y="201.39" width="43.47" height="3.45" fill="#093f68"></rect><path d="M170.54,205.84H127.07a1,1,0,0,1-1-1v-3.45a1,1,0,0,1,1-1h43.47a1,1,0,0,1,1,1v3.45A1,1,0,0,1,170.54,205.84Zm-42.47-2h41.47v-1.45H128.07Z" fill="#093f68"></path><path d="M99.7,170.67h25.2c5,0,12.33,4.8,14.93,11.29,5.09,12.68,5.33,31.51,5.33,31.51h-57V186.15C88.19,182.11,93.29,170.67,99.7,170.67Z" fill="#68e1fd"></path><path d="M145.16,214.47h-57a1,1,0,0,1-1-1V186.15c0-4.65,5.54-16.48,12.51-16.48h25.2c5.24,0,13,4.89,15.86,11.91,5.1,12.71,5.39,31.1,5.4,31.88a1,1,0,0,1-1,1Zm-56-2h54.94c-.14-4.06-.94-19.44-5.23-30.14-2.45-6.1-9.41-10.66-14-10.66H99.7c-3.27,0-6,3.6-7.31,5.75-2.08,3.37-3.2,7-3.2,8.73Z" fill="#093f68"></path><path d="M132.77,147.13l0-.07c.93-4.51.81-9.15.68-13.75,5.56-2.3,8.86-8.77,8-14.73s-5.4-11.09-11-13.18a8.12,8.12,0,0,1-3.88,5.65c-.53.32-5.21,1.77-5.5,1.08-1.32-3.16-4.34-5.31-7.51-6.59-12.29-5-24.5.37-29.49,12.48-2.11,5.14-2.79,13.51-2,18.89,1,7.08,3.72,14.33,8.92,19.4,7.2,7,18.5,8.88,28.13,6a20.88,20.88,0,0,0,7.06-3.47C129.74,156,131.83,151.61,132.77,147.13Z" fill="#725858"></path><path d="M110.11,164.63A28.4,28.4,0,0,1,90.27,157c-4.8-4.68-8.07-11.78-9.21-20-.73-5.25-.14-14,2.11-19.41,5.21-12.65,18.16-18.13,30.79-13,3.75,1.52,6.52,3.89,7.87,6.71a19.31,19.31,0,0,0,4.26-1.13,7.21,7.21,0,0,0,3.39-4.94,1,1,0,0,1,.48-.71,1,1,0,0,1,.85-.08c6.15,2.27,10.84,7.89,11.69,14a15.2,15.2,0,0,1-8,15.51,58.4,58.4,0,0,1-.72,13.31l0,.07c-.77,3.69-2.61,8.82-7,12.29a21.68,21.68,0,0,1-7.4,3.64A32.29,32.29,0,0,1,110.11,164.63Zm-5.75-60c-8.37,0-15.73,5-19.34,13.73-2.12,5.15-2.68,13.39-2,18.37,1.08,7.77,4.14,14.45,8.63,18.82,6.62,6.46,17.28,8.72,27.15,5.76a19.71,19.71,0,0,0,6.72-3.3c3.89-3.09,5.55-7.76,6.25-11.13a.37.37,0,0,0,0-.09c.91-4.38.78-9,.66-13.49a1,1,0,0,1,.61-1c5-2.09,8.23-8,7.44-13.67a16.08,16.08,0,0,0-9.34-12,9.21,9.21,0,0,1-4.08,5.14c-.52.31-4.78,1.76-6.14,1.31a1.3,1.3,0,0,1-.79-.71c-1-2.51-3.52-4.66-7-6.05A23.66,23.66,0,0,0,104.36,104.67Zm28.41,42.46h0Z" fill="#093f68"></path><path d="M129.85,213.74a1,1,0,0,1-1-1V182a1,1,0,0,1,2,0v30.78A1,1,0,0,1,129.85,213.74Z" fill="#093f68"></path><rect x="185.75" y="179.8" width="26.75" height="20.12" fill="#093f68"></rect><path d="M212.5,200.92H185.75a1,1,0,0,1-1-1V179.8a1,1,0,0,1,1-1H212.5a1,1,0,0,1,1,1v20.12A1,1,0,0,1,212.5,200.92Zm-25.75-2H211.5V180.8H186.75Z" fill="#093f68"></path><rect x="177.69" y="199.92" width="42.88" height="4.92" fill="#093f68"></rect><path d="M220.57,205.84H177.69a1,1,0,0,1-1-1v-4.92a1,1,0,0,1,1-1h42.88a1,1,0,0,1,1,1v4.92A1,1,0,0,1,220.57,205.84Zm-41.88-2h40.88v-2.92H178.69Z" fill="#093f68"></path><path d="M180.12,104.69H142.71a1,1,0,0,1,0-2h37.41a1,1,0,0,1,0,2Z" fill="#dfeaef"></path><path d="M166.9,117H149.79a1,1,0,0,1,0-2H166.9a1,1,0,0,1,0,2Z" fill="#dfeaef"></path><path d="M181.21,117h-7.16a1,1,0,0,1,0-2h7.16a1,1,0,0,1,0,2Z" fill="#dfeaef"></path><path d="M158.56,129.41h-8.78a1,1,0,0,1-1-1,1,1,0,0,1,1-1c.58,0,32.17,0,32.49,0a1,1,0,0,1,0,2Z" fill="#dfeaef"></path><path d="M174.05,160.1H144.72a1,1,0,0,1-1-1V139.73a1,1,0,0,1,1-1h29.33a1,1,0,0,1,1,1V159.1A1,1,0,0,1,174.05,160.1Zm-28.33-2h27.33V140.73H145.72Z" fill="#dfeaef"></path><path d="M205.76,90.49h44.82a0,0,0,0,1,0,0v15.06a20.2,20.2,0,0,1-20.2,20.2H226a20.2,20.2,0,0,1-20.2-20.2V90.49A0,0,0,0,1,205.76,90.49Z" transform="translate(448.93 230.65) rotate(-176.32)" fill="#725858"></path><path d="M249.4,128.15h-.07l-44.72-2.88a1,1,0,0,1-.93-1.06l1-15a21.24,21.24,0,0,1,22.53-19.8l4.39.29a21.19,21.19,0,0,1,19.8,22.52l-1,15a1,1,0,0,1-1,.94Zm-43.66-4.81,42.73,2.75.9-14a19.23,19.23,0,0,0-17.94-20.4h0L227,91.38a19.24,19.24,0,0,0-20.4,17.93Z" fill="#093f68"></path><path d="M225.79,139.61h1a2.71,2.71,0,0,1,2.71,2.71V146a0,0,0,0,1,0,0h-6.4a0,0,0,0,1,0,0v-3.68a2.71,2.71,0,0,1,2.71-2.71Z" transform="translate(442.91 299.83) rotate(-176.32)" fill="#ffc9b0"></path><path d="M226.72,147h-.24l-1-.06a3.71,3.71,0,0,1-3.47-3.94l.24-3.68a1,1,0,0,1,.33-.68,1,1,0,0,1,.73-.25l6.38.41a1,1,0,0,1,.93,1.06l-.23,3.67A3.73,3.73,0,0,1,226.72,147Zm-2.5-6.56-.17,2.67a1.71,1.71,0,0,0,1.6,1.83h0l1,.06a1.69,1.69,0,0,0,1.82-1.6l.17-2.68Z" fill="#093f68"></path><ellipse cx="245.78" cy="124.21" rx="5.35" ry="6.21" transform="translate(106.06 361.51) rotate(-86.32)" fill="#ffc9b0"></ellipse><path d="M245.91,130.57l-.54,0a7.73,7.73,0,0,1-4.92-2.13,6,6,0,0,1-1.87-4.67c.23-3.5,3.61-6.14,7.61-5.88a7.73,7.73,0,0,1,4.92,2.13,5.85,5.85,0,0,1-.59,9.07A7.66,7.66,0,0,1,245.91,130.57Zm-.25-10.72c-2.7,0-4.94,1.74-5.08,4a4,4,0,0,0,1.27,3.12,6,6,0,0,0,7.47.48,3.85,3.85,0,0,0,.39-6,5.7,5.7,0,0,0-3.65-1.57Z" fill="#093f68"></path><ellipse cx="209.63" cy="121.88" rx="5.35" ry="6.21" transform="translate(74.55 323.27) rotate(-86.32)" fill="#ffc9b0"></ellipse><path d="M209.76,128.24h-.54a7.78,7.78,0,0,1-4.92-2.13,6,6,0,0,1-1.87-4.68c.23-3.49,3.61-6.14,7.61-5.88a7.78,7.78,0,0,1,4.92,2.13,6,6,0,0,1,1.87,4.68C216.62,125.69,213.49,128.24,209.76,128.24Zm-.25-10.71c-2.69,0-4.93,1.74-5.08,4a4,4,0,0,0,1.28,3.12,5.72,5.72,0,0,0,3.64,1.56c2.88.19,5.33-1.61,5.48-4a4,4,0,0,0-1.27-3.12,5.75,5.75,0,0,0-3.65-1.56Z" fill="#093f68"></path><path d="M226.42,140.45h0a18.74,18.74,0,0,0,19.9-17.5l1.12-17.31s-9.74-5.21-19.93-5.89A33.64,33.64,0,0,0,210,103.23l-1.12,17.32A18.74,18.74,0,0,0,226.42,140.45Z" fill="#ffc9b0"></path><path d="M227.65,141.49c-.43,0-.86,0-1.29,0a19.78,19.78,0,0,1-18.44-21L209,103.17a1,1,0,0,1,.5-.81,34.66,34.66,0,0,1,18-3.61c10.28.68,19.92,5.79,20.33,6a1,1,0,0,1,.52,1L247.32,123a19.74,19.74,0,0,1-19.67,18.47ZM211,103.86l-1.08,16.75a17.76,17.76,0,0,0,16.57,18.84h0a17.74,17.74,0,0,0,18.84-16.56l1.07-16.66c-2.21-1.09-10.48-4.92-19-5.49A33.44,33.44,0,0,0,211,103.86Z" fill="#093f68"></path><circle cx="236.46" cy="119.59" r="1.74" fill="#093f68"></circle><circle cx="218.6" cy="118.44" r="1.74" fill="#093f68"></circle><path d="M228.11,125.88a7.34,7.34,0,0,1-2.17-.29,1.36,1.36,0,0,1-.88-.84c-.46-1.22.74-3.61,1.83-5.4a1,1,0,1,1,1.71,1,15.5,15.5,0,0,0-1.61,3.4,8.16,8.16,0,0,0,2,0,1,1,0,0,1,.23,2A10.56,10.56,0,0,1,228.11,125.88ZM227,124.11h0Z" fill="#093f68"></path><path d="M241.56,115.94h-.13l-8.26-.51a2,2,0,0,1-1.87-2.12,2,2,0,0,1,2.12-1.88l8.26.52a2,2,0,0,1-.12,4Z" fill="#093f68"></path><path d="M221.52,114.88l-.24,0-8.22-1a2,2,0,1,1,.47-4l8.21,1a2,2,0,0,1-.22,4Z" fill="#093f68"></path><path d="M224,128l6.46-.8s.45,6.86-2.06,8.49S224.33,134.78,224,128Z" fill="#fff"></path><path d="M227.05,137.16a2.57,2.57,0,0,1-1.16-.28c-1.72-.89-2.63-3.7-2.87-8.86a1,1,0,0,1,.88-1l6.46-.79a1,1,0,0,1,.76.22,1,1,0,0,1,.36.7c.05.77.4,7.5-2.52,9.4A3.47,3.47,0,0,1,227.05,137.16Zm-2-8.31c.35,5.13,1.41,6.08,1.74,6.25s.6,0,1.06-.26c1.3-.85,1.65-4.27,1.64-6.53Z" fill="#093f68"></path><path d="M192.55,150.35c-.2,0-3.6-5.09-3.6-5.09s-.22-3.38-.4-5-1.46-1.79-1.74-1a24.88,24.88,0,0,0-.32,3.25c-.07,0-2.5-5.18-3-5.37s-5.16,2.86-5.25,4.54c-.05.82,1.06,3.42,2.26,5.88.34.69,3,2,3,2s3.23,3.52,4.13,4.32Z" fill="#ffc9b0"></path><path d="M187.62,154.9a1,1,0,0,1-.67-.26c-.83-.73-3.45-3.58-4.07-4.25-1.31-.66-2.88-1.57-3.26-2.36-1.12-2.26-2.43-5.21-2.37-6.37.1-1.87,3.12-4,4.05-4.55,1.67-1.08,2.17-1,2.56-.87s.75.48,2,2.83l0-.09a1.69,1.69,0,0,1,1.79-1.19,2.35,2.35,0,0,1,1.9,2.34c.15,1.4.33,4,.38,4.79,1.37,2,2.89,4.23,3.25,4.65a1,1,0,0,1,0,1.59l-4.94,3.55A1,1,0,0,1,187.62,154.9Zm-4.48-16.58c-1.26.64-3.83,2.68-3.89,3.44,0,.39.57,2.14,2.16,5.39a12.77,12.77,0,0,0,2.52,1.53.93.93,0,0,1,.3.22c.72.79,2.47,2.67,3.48,3.7l3.4-2.44c-.58-.78-1.48-2.1-3-4.35a.92.92,0,0,1-.16-.49s-.2-2.85-.36-4.55c0,.41,0,.84-.06,1.13,0,.81-.07,1.51-.91,1.63s-.88-.19-1.6-1.63C184.62,141.09,183.67,139.18,183.14,138.32Z" fill="#093f68"></path><path d="M185.39,147.51a1,1,0,0,1-1-1,6.88,6.88,0,0,1,1.33-4.66,1,1,0,0,1,1.52,1.3,4.93,4.93,0,0,0-.86,3.28,1,1,0,0,1-.95,1Z" fill="#093f68"></path><path d="M190.39,146.37s7.39,6.26,12,9.31c0,0,7.34-6.18,10.33-8.87,3.37-3.05,5-3.54,9.52-3.49,2.43,0,5.49-.18,8.95-.23a11,11,0,0,1,11.12,11v25.09H214L214,162.68v-4.34s-6.63,5.73-10.65,8c-5.8,3.35-18.18-13.73-19-14.93Z" fill="#68e1fd"></path><path d="M242.29,180.15H214a1,1,0,0,1-1-1L213,160.49a82.3,82.3,0,0,1-9.16,6.76c-2.87,1.65-7.11-.34-12.58-5.93a83.23,83.23,0,0,1-7.75-9.3,1,1,0,0,1,.18-1.33l6.08-5.09a1,1,0,0,1,1.29,0c.07.06,6.76,5.71,11.26,8.82,1.79-1.51,7.28-6.15,9.73-8.36,3.67-3.31,5.55-3.8,10.2-3.75,1.35,0,3,0,4.64-.11,1.34-.05,2.78-.1,4.29-.12h.2a12,12,0,0,1,11.93,12v25.09A1,1,0,0,1,242.29,180.15Zm-27.26-2h26.26V154.06a9.91,9.91,0,0,0-3-7.13,9.73,9.73,0,0,0-7.11-2.84c-1.5,0-2.92.07-4.24.12-1.72.07-3.35.13-4.74.11-4.42,0-5.74.44-8.84,3.23s-10.28,8.83-10.36,8.9a1,1,0,0,1-1.2.06c-3.84-2.55-9.51-7.24-11.42-8.84l-4.73,4c4.15,5.77,13.28,16.12,17.16,13.88s10.43-7.87,10.5-7.92a1,1,0,0,1,1.07-.16,1,1,0,0,1,.58.91Z" fill="#093f68"></path><polygon points="223.91 147.57 221.45 165.19 225.81 172.66 229.5 165.58 227.83 147.57 223.91 147.57" fill="#fff"></polygon><path d="M225.81,173.67a1,1,0,0,1-.86-.5l-4.36-7.48a1,1,0,0,1-.13-.64l2.46-17.62a1,1,0,0,1,1-.86h3.92a1,1,0,0,1,1,.91l1.67,18a1,1,0,0,1-.11.56l-3.69,7.08a1,1,0,0,1-.86.54ZM222.49,165l3.27,5.61,2.72-5.22-1.56-16.81h-2.14Z" fill="#093f68"></path><path d="M209,148.18c-1.18-.34-1.72-3.69-2.44-4.63a11.94,11.94,0,0,0-6.25-3.72,1.66,1.66,0,0,0-1.33.07,2.34,2.34,0,0,0,1.23,1.34,29.66,29.66,0,0,0,2.94,1.58l-5.54-1.26a5.06,5.06,0,0,0-2.18-.18.93.93,0,0,0-.54.29.73.73,0,0,0-.14.34,2.66,2.66,0,0,0,.56,2.33,5.31,5.31,0,0,0,1.58,1.11c1.21.64,2.91,1.19,3.83,2.22s1.13,2.25,2,3.18Z" fill="#ffc9b0"></path><path d="M202.7,151.85a1,1,0,0,1-.73-.32,8.31,8.31,0,0,1-1.19-1.86,6.7,6.7,0,0,0-.81-1.33,7.84,7.84,0,0,0-2.41-1.46c-.4-.18-.79-.36-1.14-.55a6.15,6.15,0,0,1-1.86-1.34,3.69,3.69,0,0,1-.79-3.21,2,2,0,0,1,.33-.73,1.9,1.9,0,0,1,1.12-.65,6,6,0,0,1,2.61.18l.37.08a2,2,0,0,1-.2-.55,1,1,0,0,1,.41-1,2.63,2.63,0,0,1,2.15-.22,12.69,12.69,0,0,1,6.79,4.08,8.26,8.26,0,0,1,.94,2.09,7.26,7.26,0,0,0,1,2.21,1,1,0,0,1,.7.89,1,1,0,0,1-.63,1l-6.3,2.67A.85.85,0,0,1,202.7,151.85Zm-7-9.5a1.84,1.84,0,0,0,.4,1.34,4.8,4.8,0,0,0,1.29.88c.32.17.67.33,1,.49a9.07,9.07,0,0,1,3.07,1.95,7.63,7.63,0,0,1,1.1,1.75c.16.31.31.6.47.87l4.26-1.81a13.35,13.35,0,0,1-.89-2.13,7.71,7.71,0,0,0-.64-1.53,7.41,7.41,0,0,0-1.63-1.52,1.07,1.07,0,0,1,0,.5,1,1,0,0,1-1.17.65l-5.54-1.26A4.56,4.56,0,0,0,195.67,142.35Z" fill="#093f68"></path><rect x="222.64" y="143.23" width="6.45" height="4.76" rx="1.77" fill="#fff"></rect><path d="M227.32,149h-2.9a2.78,2.78,0,0,1-2.78-2.77V145a2.78,2.78,0,0,1,2.78-2.77h2.9A2.78,2.78,0,0,1,230.1,145v1.22A2.78,2.78,0,0,1,227.32,149Zm-2.9-4.76a.78.78,0,0,0-.78.77v1.22a.78.78,0,0,0,.78.77h2.9a.78.78,0,0,0,.78-.77V145a.78.78,0,0,0-.78-.77Z" fill="#093f68"></path><path d="M240.14,158s-3.74,14.65-14.93,14.46c-14.3-.24-22.52-22-22.52-22l6-5s11.74,18.07,16.63,15.81S234,148,234,148" fill="#68e1fd"></path><path d="M225.42,173.48h-.23c-6.18-.1-12.2-4.08-17.42-11.51a55.47,55.47,0,0,1-6-11.11,1,1,0,0,1,.29-1.13l6-5a1,1,0,0,1,.79-.22,1,1,0,0,1,.69.44c4.55,7,12.58,16.76,15.38,15.45,3.69-1.7,7.16-9.79,8.19-12.77a1,1,0,0,1,1.89.66c-.16.47-4,11.52-9.25,13.93-5,2.29-14.26-10.74-17.27-15.24l-4.57,3.79c1.5,3.57,9.24,20.47,21.34,20.68,10.25.2,13.9-13.57,13.94-13.71a1,1,0,0,1,1.21-.72,1,1,0,0,1,.73,1.22,29.1,29.1,0,0,1-3.4,7.59C234.51,170.85,230.27,173.48,225.42,173.48Z" fill="#093f68"></path><path d="M166.9,183.66H148.8a1,1,0,0,1,0-2h18.1a1,1,0,0,1,0,2Z" fill="#dfeaef"></path><path d="M166,190.17h-18.1a1,1,0,0,1,0-2H166a1,1,0,0,1,0,2Z" fill="#dfeaef"></path><path d="M163.26,195.17h-11.8a1,1,0,0,1,0-2h11.8a1,1,0,0,1,0,2Z" fill="#dfeaef"></path><rect x="225.48" y="189.86" width="24.72" height="14.98" fill="#fff"></rect><path d="M250.2,205.84H225.48a1,1,0,0,1-1-1v-15a1,1,0,0,1,1-1H250.2a1,1,0,0,1,1,1v15A1,1,0,0,1,250.2,205.84Zm-23.72-2H249.2v-13H226.48Z" fill="#093f68"></path><path d="M245.43,195.17H226.27a1,1,0,0,1,0-2h19.16a1,1,0,0,1,0,2Z" fill="#093f68"></path><path d="M250.2,199.15H231.27a1,1,0,0,1,0-2H250.2a1,1,0,0,1,0,2Z" fill="#093f68"></path></svg>