<svg xmlns="http://www.w3.org/2000/svg" viewBox="0 0 400 300" width="406" height="306" class="illustration styles_illustrationTablet__1DWOa"><g id="_176_winner_outline" data-name="#176_winner_outline"><path d="M194.86,243.49h41.71l-19.78-55.7s7.18-18.2,5.52-23.07-25.5-30.07-30.63-29.81-31.54,21.86-32.06,24.68,21.79,33.07,22.82,34.61A481.26,481.26,0,0,1,194.86,243.49Z" fill="#ffc9b0"></path><path d="M236.57,244.49H194.86a1,1,0,0,1-1-.81,486.62,486.62,0,0,0-12.35-49c-.24-.34-.85-1.19-1.74-2.41-18-24.91-21.46-31.14-21.15-32.82.61-3.34,27.41-25.22,33-25.5h.1c5.89,0,29.72,25.22,31.52,30.48,1.66,4.84-4.2,20.36-5.39,23.42l19.66,55.34a1,1,0,0,1-.13.91A1,1,0,0,1,236.57,244.49Zm-40.89-2h39.48l-19.31-54.37a1,1,0,0,1,0-.7c2-5,6.77-18.67,5.5-22.38-.74-2.17-6.79-9.39-13.78-16.45-8.78-8.87-14.26-12.81-15.85-12.68-4.51.22-29.74,20.49-31.11,23.84.18,1.4,4,8,20.8,31.3,1,1.42,1.69,2.35,1.85,2.59a1.15,1.15,0,0,1,.12.25A483.56,483.56,0,0,1,195.68,242.49Z" fill="#093f68"></path><path d="M219.32,150l-8.4-13.42S177.7,160.13,149,162l10.18,16.27,10.18,16.28C183.56,169.5,219.32,150,219.32,150Z" fill="#68e1fd"></path><path d="M169.37,195.51a1,1,0,0,1-.85-.47l-20.36-32.55a1,1,0,0,1,.78-1.53c28.09-1.78,61.07-25,61.4-25.25a1,1,0,0,1,.77-.16,1,1,0,0,1,.65.45l8.4,13.42a1,1,0,0,1-.36,1.41c-.36.2-35.67,19.7-49.56,44.17a1,1,0,0,1-.85.51Zm-18.64-32.68,18.61,29.75c7.55-12.48,20.24-23.43,29.73-30.53a193.43,193.43,0,0,1,18.84-12.45L210.62,138a193.28,193.28,0,0,1-19.44,11.5C180.65,154.88,165.25,161.5,150.73,162.83Z" fill="#093f68"></path><rect x="124.57" y="176.55" width="63.15" height="7.18" transform="translate(226.04 -47.78) rotate(57.97)" fill="#68e1fd"></rect><path d="M169.85,209.81a.78.78,0,0,1-.22,0,1,1,0,0,1-.63-.44l-33.49-53.53a1,1,0,0,1,.32-1.38l6.08-3.81a1.07,1.07,0,0,1,.76-.13,1,1,0,0,1,.62.45l33.49,53.53a1,1,0,0,1-.31,1.38l-6.09,3.81A1,1,0,0,1,169.85,209.81Zm-32.11-54.22,32.43,51.84,4.39-2.75-32.44-51.83Z" fill="#093f68"></path><rect x="88.56" y="171.52" width="96.05" height="41.7" rx="1.98" transform="translate(227.23 -25.45) rotate(57.97)" fill="#68e1fd"></rect><path d="M145,244.4a3,3,0,0,1-2.53-1.4h0L93.64,164.93a3,3,0,0,1-.38-2.25,3,3,0,0,1,1.32-1.86l32-20a3,3,0,0,1,4.11.94l48.84,78.07a2.92,2.92,0,0,1,.38,2.25,3,3,0,0,1-1.32,1.86l-32,20A3,3,0,0,1,145,244.4Zm-.84-2.46a1,1,0,0,0,1.35.31l32-20a1,1,0,0,0,.31-1.35L129,142.81a1,1,0,0,0-1.35-.31l-32,20a1,1,0,0,0-.44.61,1,1,0,0,0,.12.74Z" fill="#093f68"></path><rect x="111.21" y="181.25" width="51.91" height="21.53" rx="3.39" transform="translate(227.19 -26.11) rotate(57.97)" fill="#fff"></rect><path d="M142.89,219.45a4.19,4.19,0,0,1-1-.12,4.31,4.31,0,0,1-2.74-2h0l-23.94-38.25a4.41,4.41,0,0,1,1.4-6.06l12.5-7.82a4.4,4.4,0,0,1,6,1.39l23.94,38.26a4.4,4.4,0,0,1-1.39,6.06l-12.51,7.82A4.37,4.37,0,0,1,142.89,219.45Zm-2-3.13a2.38,2.38,0,0,0,3.3.76l12.51-7.82a2.39,2.39,0,0,0,.75-3.3L133.48,167.7a2.4,2.4,0,0,0-3.3-.76l-12.5,7.83a2.38,2.38,0,0,0-.76,3.3Z" fill="#093f68"></path><path d="M209.15,109.63A27.33,27.33,0,0,1,217.81,72l24.06-15a3,3,0,0,1,4.15,1L258.9,78.51a3,3,0,0,1-5.11,3.2l-11.28-18L221,77.13a21.29,21.29,0,0,0-6.75,29.31,3,3,0,1,1-5.11,3.19Z" fill="#68e1fd"></path><path d="M211.72,112.05a4,4,0,0,1-3.42-1.89,28.32,28.32,0,0,1,9-39l24.06-15.06a4,4,0,0,1,5.53,1.28L259.75,78a4,4,0,0,1-6.81,4.26L242.19,65.06,221.54,78a20.29,20.29,0,0,0-6.43,27.93,4,4,0,0,1-3.39,6.14Zm31.74-54.54a2,2,0,0,0-1.06.31L218.34,72.87A26.32,26.32,0,0,0,210,109.1h0a2,2,0,1,0,3.41-2.13,22.29,22.29,0,0,1,7.07-30.68L242,62.83a1,1,0,0,1,.76-.12,1,1,0,0,1,.62.44l11.28,18a2,2,0,0,0,1.25.89,2,2,0,0,0,2.16-3L245.18,58.46A2,2,0,0,0,243.46,57.51Z" fill="#093f68"></path><path d="M242.73,163.3a3,3,0,1,1,5.11-3.19,21.29,21.29,0,0,0,29.31,6.74l21.5-13.45-11.28-18a3,3,0,1,1,5.11-3.2l12.88,20.58a3,3,0,0,1-1,4.15L280.34,172A27.31,27.31,0,0,1,242.73,163.3Z" fill="#68e1fd"></path><path d="M265.91,177.11a28.32,28.32,0,0,1-24-13.28h0a4,4,0,1,1,6.81-4.25A20.3,20.3,0,0,0,276.62,166l20.65-12.93-10.75-17.17a4,4,0,0,1,1.27-5.54,4,4,0,0,1,5.54,1.28l12.87,20.58a4,4,0,0,1-1.27,5.53l-24.06,15.05A28.11,28.11,0,0,1,265.91,177.11Zm-22.33-14.34a26.31,26.31,0,0,0,36.23,8.35l24.06-15.06a2,2,0,0,0,.89-1.25,2,2,0,0,0-.25-1.52l-12.88-20.58a2,2,0,0,0-2.77-.64,2,2,0,0,0-.64,2.77l11.27,18a1,1,0,0,1-.31,1.38l-21.5,13.45A22.3,22.3,0,0,1,247,160.64a2,2,0,1,0-3.41,2.13Z" fill="#093f68"></path><path d="M205.36,80.3h75.43a0,0,0,0,1,0,0v53.18a37.72,37.72,0,0,1-37.72,37.72h0a37.72,37.72,0,0,1-37.72-37.72V80.3a0,0,0,0,1,0,0Z" transform="translate(220.75 -147.02) rotate(57.97)" fill="#68e1fd"></path><path d="M236.6,168.58a39,39,0,0,1-8.76-1,38.51,38.51,0,0,1-24.14-17.2h0A38.76,38.76,0,0,1,216,97l45.08-28.21a1,1,0,0,1,1.38.32l40,63.94a1,1,0,0,1,.13.76,1,1,0,0,1-.45.62l-45.08,28.21A38.45,38.45,0,0,1,236.6,168.58Zm24.69-97.53L217.05,98.72a36.76,36.76,0,0,0-11.65,50.6h0A36.7,36.7,0,0,0,256,161l44.23-27.67Z" fill="#093f68"></path><path d="M146.46,207.36a1,1,0,0,1-.84-.46L127,178.21a1,1,0,0,1,1.68-1.09l18.59,28.69a1,1,0,0,1-.3,1.39A1,1,0,0,1,146.46,207.36Z" fill="#dfeaef"></path><path d="M222.31,164.72s-11.84-23.25-15.43-20.85-5.64,11.62,2.22,20.85c0,0-10.47,4.27-5.4,17.09" fill="#ffc9b0"></path><path d="M203.7,182.81a1,1,0,0,1-.93-.63c-4.3-10.89,2-16.11,4.79-17.77-3.67-4.72-5.39-10.06-4.72-14.83.4-2.91,1.71-5.36,3.49-6.55a2.1,2.1,0,0,1,1.76-.25c4.57,1.19,13.39,18.1,15.11,21.48a1,1,0,0,1-1.79.91c-5.73-11.25-12.38-21-14-20.47-1.29.86-2.3,2.84-2.62,5.16-.63,4.52,1.21,9.7,5,14.21a1,1,0,0,1-.38,1.57c-.39.16-9.48,4.09-4.85,15.8a1,1,0,0,1-.57,1.3A.92.92,0,0,1,203.7,182.81Z" fill="#093f68"></path><rect x="189.1" y="128.03" width="11.53" height="30.08" rx="5.76" transform="translate(-46.87 144.86) rotate(-36.71)" fill="#ffc9b0"></rect><path d="M200.42,157.26a6.73,6.73,0,0,1-5.43-2.71L183.9,139.67a6.76,6.76,0,0,1,10.84-8.08l11.09,14.87a6.78,6.78,0,0,1-1.38,9.47h0A6.74,6.74,0,0,1,200.42,157.26Zm-11.11-26.39a4.76,4.76,0,0,0-3.81,7.61l11.09,14.87a4.76,4.76,0,0,0,7.64-5.69l-11.1-14.88a4.7,4.7,0,0,0-3.13-1.86A4,4,0,0,0,189.31,130.87Zm14.54,24.25h0Z" fill="#093f68"></path><rect x="179.86" y="134.92" width="11.53" height="30.08" rx="5.76" transform="translate(-52.82 140.7) rotate(-36.71)" fill="#ffc9b0"></rect><path d="M191.18,164.16a8.54,8.54,0,0,1-1-.07,6.75,6.75,0,0,1-4.44-2.65l-11.09-14.88a6.76,6.76,0,0,1,10.84-8.08l11.09,14.87a6.77,6.77,0,0,1-1.38,9.47h0A6.71,6.71,0,0,1,191.18,164.16Zm-11.11-26.4a4.76,4.76,0,0,0-3.81,7.61l11.09,14.87a4.76,4.76,0,0,0,6.67,1h0a4.77,4.77,0,0,0,1-6.66L183.9,139.67a4.75,4.75,0,0,0-3.14-1.86A4,4,0,0,0,180.07,137.76Z" fill="#093f68"></path><rect x="170.62" y="141.81" width="11.53" height="30.08" rx="5.76" transform="translate(-58.78 136.55) rotate(-36.71)" fill="#ffc9b0"></rect><path d="M181.94,171a6.76,6.76,0,0,1-5.43-2.71l-11.09-14.88a6.76,6.76,0,0,1,10.84-8.08l11.09,14.87a6.75,6.75,0,0,1-5.41,10.8Zm-11.11-26.39a4.72,4.72,0,0,0-2.84.94,4.78,4.78,0,0,0-1,6.67l11.09,14.87a4.77,4.77,0,0,0,6.67,1,4.77,4.77,0,0,0,1-6.66l-11.09-14.88a4.73,4.73,0,0,0-3.14-1.86A4,4,0,0,0,170.83,144.65Z" fill="#093f68"></path><rect x="161.38" y="148.7" width="11.53" height="30.08" rx="5.76" transform="translate(-64.73 132.39) rotate(-36.71)" fill="#ffc9b0"></rect><path d="M172.7,177.93a6.77,6.77,0,0,1-5.43-2.71l-11.09-14.88A6.76,6.76,0,0,1,167,152.26l11.09,14.87a6.76,6.76,0,0,1-5.41,10.8Zm-11.11-26.4a4.77,4.77,0,0,0-3.81,7.61L168.87,174a4.77,4.77,0,0,0,6.67,1,4.77,4.77,0,0,0,1-6.66l-11.09-14.88a4.78,4.78,0,0,0-3.13-1.87A5.62,5.62,0,0,0,161.59,151.53Z" fill="#093f68"></path><polygon points="190.8 243.49 185.62 216.49 229.65 210.34 242.77 243.49 190.8 243.49" fill="#f56132"></polygon><path d="M242.77,244.49h-52a1,1,0,0,1-1-.81l-5.18-27a1,1,0,0,1,.17-.77,1,1,0,0,1,.67-.41l44-6.15a1,1,0,0,1,1.07.62l13.12,33.15a1,1,0,0,1-.1.93A1,1,0,0,1,242.77,244.49Zm-51.14-2H241.3L229,211.44l-42.21,5.9Z" fill="#093f68"></path><path d="M242.27,198.21a1,1,0,0,1-1-1V193a1,1,0,0,1,2,0v4.21A1,1,0,0,1,242.27,198.21Z" fill="#dfeaef"></path><path d="M242.27,207.36a1,1,0,0,1-1-1v-4.21a1,1,0,0,1,2,0v4.21A1,1,0,0,1,242.27,207.36Z" fill="#dfeaef"></path><path d="M249,200.68h-4.21a1,1,0,0,1,0-2H249a1,1,0,0,1,0,2Z" fill="#dfeaef"></path><path d="M239.8,200.68h-4.2a1,1,0,1,1,0-2h4.2a1,1,0,0,1,0,2Z" fill="#dfeaef"></path><path d="M280.72,204.89a1,1,0,0,1-1-1v-4.21a1,1,0,0,1,2,0v4.21A1,1,0,0,1,280.72,204.89Z" fill="#dfeaef"></path><path d="M280.72,214a1,1,0,0,1-1-1v-4.21a1,1,0,0,1,2,0V213A1,1,0,0,1,280.72,214Z" fill="#dfeaef"></path><path d="M287.4,207.36h-4.21a1,1,0,0,1,0-2h4.21a1,1,0,0,1,0,2Z" fill="#dfeaef"></path><path d="M278.25,207.36H274a1,1,0,0,1,0-2h4.21a1,1,0,0,1,0,2Z" fill="#dfeaef"></path><path d="M173.82,76.77a1,1,0,0,1-1-1V68.33a1,1,0,1,1,2,0v7.44A1,1,0,0,1,173.82,76.77Z" fill="#dfeaef"></path><path d="M173.82,92.94a1,1,0,0,1-1-1V84.5a1,1,0,0,1,2,0v7.44A1,1,0,0,1,173.82,92.94Z" fill="#dfeaef"></path><path d="M185.62,81.14h-7.43a1,1,0,0,1,0-2h7.43a1,1,0,0,1,0,2Z" fill="#dfeaef"></path><path d="M169.46,81.14H162a1,1,0,0,1,0-2h7.44a1,1,0,0,1,0,2Z" fill="#dfeaef"></path><path d="M121.48,101a1,1,0,0,1-1-1V95.81a1,1,0,0,1,2,0V100A1,1,0,0,1,121.48,101Z" fill="#dfeaef"></path><path d="M121.48,110.17a1,1,0,0,1-1-1V105a1,1,0,0,1,2,0v4.21A1,1,0,0,1,121.48,110.17Z" fill="#dfeaef"></path><path d="M128.15,103.49h-4.21a1,1,0,0,1,0-2h4.21a1,1,0,0,1,0,2Z" fill="#dfeaef"></path><path d="M119,103.49H114.8a1,1,0,0,1,0-2H119a1,1,0,0,1,0,2Z" fill="#dfeaef"></path><path d="M159.61,124.69a1,1,0,0,1-1-1V111.05a1,1,0,0,1,2,0v12.64A1,1,0,0,1,159.61,124.69Z" fill="#dfeaef"></path><path d="M165.93,118.37H153.3a1,1,0,0,1,0-2h12.63a1,1,0,0,1,0,2Z" fill="#dfeaef"></path></g></svg>