<svg xmlns="http://www.w3.org/2000/svg" viewBox="0 0 400 300" width="406" height="306" class="illustration styles_illustrationTablet__1DWOa"><g id="_121_team_presentation_outline" data-name="#121_team_presentation_outline"><path d="M191.11,174.65l-1.05.3a16,16,0,0,0-9.41,7.27c-1.59,2.95-1,6.06-1,9.31a19,19,0,0,0,17.3,18.87v4a3.24,3.24,0,1,0,6.47,0v-3.79c11.49-.43,17.1-10.33,17.1-19.13,0-5.73-1.61-13.14-7.38-15.66a22.68,22.68,0,0,0-6.75-1.45C201.29,173.87,196.05,173.4,191.11,174.65Z" fill="#ffc9b0"></path><path d="M200.17,218.68a4.24,4.24,0,0,1-4.24-4.24v-3.15a20.07,20.07,0,0,1-17.3-19.76c0-.68,0-1.34,0-2-.09-2.57-.19-5.22,1.19-7.78a16.85,16.85,0,0,1,10-7.76l1.1-.31h0c5-1.25,10.23-.84,15.62-.26a23.51,23.51,0,0,1,7,1.52c7.2,3.15,8,12.65,8,16.58,0,9.4-5.87,19.13-17.1,20.07v2.85A4.24,4.24,0,0,1,200.17,218.68Zm-8.82-43.06-1,.28a15.08,15.08,0,0,0-8.82,6.8c-1.12,2.08-1,4.35-.95,6.75,0,.69,0,1.38,0,2.08A18,18,0,0,0,197,209.4a1,1,0,0,1,.91,1v4a2.24,2.24,0,1,0,4.47,0v-3.79a1,1,0,0,1,1-1c10.6-.4,16.14-9.42,16.14-18.13,0-2.76-.49-12-6.78-14.75a22,22,0,0,0-6.45-1.36c-5.4-.58-10.25-1-14.92.21Z" fill="#093f68"></path><ellipse cx="179.29" cy="192" rx="4.96" ry="5.41" fill="#ffc9b0"></ellipse><path d="M179.29,198.42a6.43,6.43,0,1,1,6-6.42A6.22,6.22,0,0,1,179.29,198.42Zm0-10.83a4.44,4.44,0,1,0,4,4.41A4.21,4.21,0,0,0,179.29,187.59Z" fill="#093f68"></path><ellipse cx="221.72" cy="192" rx="4.96" ry="5.41" fill="#ffc9b0"></ellipse><path d="M221.72,198.42a6.43,6.43,0,1,1,6-6.42A6.22,6.22,0,0,1,221.72,198.42Zm0-10.83a4.44,4.44,0,1,0,4,4.41A4.21,4.21,0,0,0,221.72,187.59Z" fill="#093f68"></path><path d="M220.24,239.51V221.58a7.56,7.56,0,0,0-7.56-7.57H188.32a7.57,7.57,0,0,0-7.56,7.57v17.93Z" fill="#f56132"></path><path d="M220.25,240.51H180.76a1,1,0,0,1-1-1V221.58a8.58,8.58,0,0,1,8.56-8.57h24.36a8.59,8.59,0,0,1,8.57,8.57v17.93A1,1,0,0,1,220.25,240.51Zm-38.49-2h37.49V221.58a6.58,6.58,0,0,0-6.57-6.57H188.32a6.58,6.58,0,0,0-6.56,6.57Z" fill="#093f68"></path><path d="M188.74,226.22a1,1,0,0,1-1-1V220.3a1,1,0,0,1,2,0v4.92A1,1,0,0,1,188.74,226.22Z" fill="#093f68"></path><path d="M212.26,226.22a1,1,0,0,1-1-1V220.3a1,1,0,0,1,2,0v4.92A1,1,0,0,1,212.26,226.22Z" fill="#093f68"></path><rect x="193.69" y="210.46" width="13.63" height="3.55" fill="#68e1fd"></rect><path d="M207.32,215H193.69a1,1,0,0,1-1-1v-3.55a1,1,0,0,1,1-1h13.63a1,1,0,0,1,1,1V214A1,1,0,0,1,207.32,215Zm-12.63-2h11.63v-1.55H194.69Z" fill="#093f68"></path><path d="M215.64,239.51v-9.14c0-4.2-2.89-7.61-6.46-7.61H191.83c-3.57,0-6.47,3.41-6.47,7.61v9.14Z" fill="#68e1fd"></path><path d="M215.64,240.51H185.36a1,1,0,0,1-1-1v-9.13c0-4.76,3.35-8.62,7.47-8.62h17.35c4.11,0,7.46,3.86,7.46,8.62v9.13A1,1,0,0,1,215.64,240.51Zm-29.28-2h28.28v-8.13c0-3.65-2.45-6.62-5.46-6.62H191.83c-3,0-5.47,3-5.47,6.62Z" fill="#093f68"></path><path d="M218.07,216.24c2.09,0,4.16-.06,6.21-.18a2.78,2.78,0,0,0,1.15-.23,2.31,2.31,0,0,0,1-1.27c1.79-4.75-4.18-9.75-2.63-14.58.36-1.13,1.12-2.16,1.12-3.35,0-2.12-2.34-3.4-3.29-5.3-1.1-2.18-.22-4.76.08-7.18a16.78,16.78,0,0,0-6.44-15c-4.13-3.27-10.14-5.17-14.18-.67a11,11,0,0,0-16.76,3c-.1.17-.18.34-.27.51-1.64,3.36-1.51,7.39-3.29,10.68-.65,1.2-1.54,2.27-2.12,3.5-1.22,2.58-1,5.57-.94,8.42a22.76,22.76,0,0,1-1.81,10.24,22.16,22.16,0,0,0-1.62,3.5c-.74,2.68.44,5.51,2.44,7.51h19.34C203.31,215.82,210.76,216.27,218.07,216.24Z" fill="#725858"></path><path d="M217.23,217.24c-3.55,0-7.17-.11-10.67-.21s-7-.21-10.5-.21H176.72a1,1,0,0,1-.71-.29c-2.47-2.48-3.48-5.65-2.69-8.48a13.49,13.49,0,0,1,1.17-2.68c.17-.33.35-.66.51-1,1.22-2.54,1.77-5.65,1.71-9.8l0-1.07c-.05-2.61-.11-5.32,1.06-7.78a15.47,15.47,0,0,1,1.24-2.1c.33-.5.64-1,.91-1.46a19.72,19.72,0,0,0,1.64-5.26,22.79,22.79,0,0,1,1.62-5.38c.09-.19.19-.37.29-.56A12,12,0,0,1,201,167.11c4.5-4.19,10.75-2,14.88,1.22a17.77,17.77,0,0,1,6.81,15.94c-.07.56-.16,1.12-.26,1.69-.32,1.81-.62,3.52.08,4.92a9.21,9.21,0,0,0,1.36,1.79c1,1.06,2,2.28,2,4a6.21,6.21,0,0,1-.74,2.61c-.16.36-.32.71-.43,1-.65,2,.31,4.2,1.33,6.51,1.15,2.62,2.34,5.33,1.28,8.12a3.17,3.17,0,0,1-1.47,1.81,3.69,3.69,0,0,1-1.55.34c-1.94.11-4,.16-6.26.18h-.85Zm.84-1h0Zm-40.93-1.42h18.92c3.49,0,7.08.11,10.56.21,3.76.11,7.66.23,11.45.21h0c2.24,0,4.25-.07,6.16-.18a1.93,1.93,0,0,0,.75-.12,1.4,1.4,0,0,0,.51-.74c.77-2-.21-4.25-1.24-6.6-1.12-2.55-2.28-5.19-1.4-7.93a11,11,0,0,1,.51-1.26,4.58,4.58,0,0,0,.56-1.77c0-.93-.71-1.72-1.53-2.64a10.21,10.21,0,0,1-1.66-2.22c-1-2-.62-4.11-.26-6.17.09-.53.18-1.06.25-1.58a15.77,15.77,0,0,0-6.07-14.13c-3.82-3-9.2-4.82-12.81-.79a1,1,0,0,1-1.4.09A10,10,0,0,0,185.2,172l-.24.46a21.51,21.51,0,0,0-1.47,4.92,20.66,20.66,0,0,1-1.84,5.79,18.19,18.19,0,0,1-1,1.61,15.09,15.09,0,0,0-1.11,1.85c-1,2-.91,4.51-.86,6.89l0,1.08c.06,4.47-.55,7.87-1.91,10.69-.17.36-.36.72-.54,1.07a12.52,12.52,0,0,0-1,2.27A6.83,6.83,0,0,0,177.14,214.82Z" fill="#093f68"></path><path d="M122.79,174.65l-1.05.3a16,16,0,0,0-9.41,7.27c-1.59,2.95-1,6.06-1,9.31a19,19,0,0,0,17.3,18.87v4a3.23,3.23,0,1,0,6.46,0v-3.79c11.49-.43,17.1-10.33,17.1-19.13,0-5.73-1.61-13.14-7.37-15.66a22.81,22.81,0,0,0-6.75-1.45C133,173.87,127.73,173.4,122.79,174.65Z" fill="#ffc9b0"></path><path d="M131.85,218.68a4.23,4.23,0,0,1-4.23-4.24v-3.15a20.06,20.06,0,0,1-17.3-19.76c0-.68,0-1.34,0-2-.1-2.56-.2-5.22,1.18-7.78a16.85,16.85,0,0,1,10-7.76l1.1-.31h0c5-1.25,10.22-.84,15.61-.26a23.51,23.51,0,0,1,7.05,1.52c7.2,3.16,8,12.65,8,16.58,0,9.4-5.87,19.13-17.1,20.07v2.85A4.24,4.24,0,0,1,131.85,218.68ZM123,175.62l-1,.28a15.11,15.11,0,0,0-8.82,6.8c-1.12,2.08-1,4.35-.95,6.75,0,.69.06,1.38.06,2.08A18,18,0,0,0,128.7,209.4a1,1,0,0,1,.92,1v4a2.23,2.23,0,1,0,4.46,0v-3.79a1,1,0,0,1,1-1c10.59-.4,16.13-9.42,16.13-18.13,0-2.76-.49-12-6.77-14.75a22.07,22.07,0,0,0-6.46-1.36c-5.4-.58-10.25-1-14.91.21Z" fill="#093f68"></path><ellipse cx="110.97" cy="192" rx="4.96" ry="5.41" fill="#ffc9b0"></ellipse><path d="M111,198.42a6.43,6.43,0,1,1,6-6.42A6.21,6.21,0,0,1,111,198.42Zm0-10.83a4.44,4.44,0,1,0,4,4.41A4.21,4.21,0,0,0,111,187.59Z" fill="#093f68"></path><ellipse cx="153.4" cy="192" rx="4.96" ry="5.41" fill="#ffc9b0"></ellipse><path d="M153.4,198.42a6.43,6.43,0,1,1,6-6.42A6.22,6.22,0,0,1,153.4,198.42Zm0-10.83a4.44,4.44,0,1,0,4,4.41A4.21,4.21,0,0,0,153.4,187.59Z" fill="#093f68"></path><path d="M151.93,239.51V221.58a7.57,7.57,0,0,0-7.57-7.57H120a7.57,7.57,0,0,0-7.57,7.57v17.93Z" fill="#ffbc0e"></path><path d="M151.93,240.51H112.44a1,1,0,0,1-1-1V221.58A8.59,8.59,0,0,1,120,213h24.35a8.58,8.58,0,0,1,8.57,8.57v17.93A1,1,0,0,1,151.93,240.51Zm-38.49-2h37.49V221.58a6.58,6.58,0,0,0-6.57-6.57H120a6.58,6.58,0,0,0-6.57,6.57Z" fill="#093f68"></path><path d="M120.42,226.22a1,1,0,0,1-1-1V220.3a1,1,0,0,1,2,0v4.92A1,1,0,0,1,120.42,226.22Z" fill="#093f68"></path><path d="M144,226.22a1,1,0,0,1-1-1V220.3a1,1,0,0,1,2,0v4.92A1,1,0,0,1,144,226.22Z" fill="#093f68"></path><path d="M115,170.83a5.71,5.71,0,0,1,3.47-1.88,3.24,3.24,0,0,1,3.57,2.63c1.07-2.47,4-3.46,6.59-4.13,4.46-1.16,10.39-2.58,14.77-.43,4.54,2.23,8.78,6.13,10.21,11.17,1.12,4,.32,8.89.32,13a15.72,15.72,0,0,1-15.72,15.72H127.45a15.72,15.72,0,0,1-15.72-15.72c0-6.25-1.56-14.45,2.62-19.68A7.68,7.68,0,0,1,115,170.83Z" fill="#725858"></path><path d="M138.16,207.91H127.45a16.74,16.74,0,0,1-16.72-16.72c0-1.27-.07-2.62-.14-4.05-.27-5.54-.57-11.81,3-16.26a9.09,9.09,0,0,1,.66-.75h0a6.62,6.62,0,0,1,4.1-2.17,4.41,4.41,0,0,1,3.83,1.56c1.49-1.62,3.81-2.43,6.17-3,4-1,10.6-2.75,15.46-.36,5.45,2.68,9.36,7,10.73,11.8.85,3,.66,6.34.49,9.6-.07,1.29-.13,2.51-.13,3.67A16.74,16.74,0,0,1,138.16,207.91Zm-22.49-36.39c-.19.2-.37.4-.54.61-3.08,3.85-2.79,9.73-2.54,14.91.07,1.46.14,2.83.14,4.15a14.74,14.74,0,0,0,14.72,14.72h10.71a14.75,14.75,0,0,0,14.72-14.72c0-1.21.06-2.46.13-3.78.17-3.09.34-6.29-.41-8.95-1.2-4.21-4.82-8.15-9.69-10.54-4.2-2.06-10.38-.46-14.08.5-2.56.66-5.06,1.55-5.92,3.56a1,1,0,0,1-1.92-.33,1.64,1.64,0,0,0-.62-1.1,2.58,2.58,0,0,0-1.86-.6,4.77,4.77,0,0,0-2.84,1.57Z" fill="#093f68"></path><rect x="125.37" y="210.46" width="13.63" height="3.55" fill="#ffbc0e"></rect><path d="M139,215H125.37a1,1,0,0,1-1-1v-3.55a1,1,0,0,1,1-1H139a1,1,0,0,1,1,1V214A1,1,0,0,1,139,215Zm-12.63-2H138v-1.55H126.37Z" fill="#093f68"></path><path d="M147.33,239.51v-9.14c0-4.2-2.9-7.61-6.47-7.61H123.51c-3.57,0-6.46,3.41-6.46,7.61v9.14Z" fill="#68e1fd"></path><path d="M147.33,240.51H117.05a1,1,0,0,1-1-1v-9.13c0-4.76,3.34-8.62,7.46-8.62h17.35c4.12,0,7.47,3.86,7.47,8.62v9.13A1,1,0,0,1,147.33,240.51Zm-29.28-2h28.28v-8.13c0-3.65-2.45-6.62-5.47-6.62H123.51c-3,0-5.46,3-5.46,6.62Z" fill="#093f68"></path><path d="M259.24,174.65l-1.05.3a16,16,0,0,0-9.4,7.27c-1.6,2.95-1,6.06-1,9.31a19,19,0,0,0,17.3,18.87v4a3.23,3.23,0,1,0,6.46,0v-3.79c11.5-.43,17.1-10.33,17.1-19.13,0-5.73-1.61-13.14-7.37-15.66a22.81,22.81,0,0,0-6.75-1.45C269.42,173.87,264.18,173.4,259.24,174.65Z" fill="#ffc9b0"></path><path d="M268.3,218.68a4.24,4.24,0,0,1-4.23-4.24v-3.15a20.06,20.06,0,0,1-17.3-19.76c0-.68,0-1.34-.05-2-.1-2.56-.2-5.22,1.18-7.78a16.85,16.85,0,0,1,10-7.76l1.1-.31h0c5-1.25,10.22-.84,15.61-.26a23.51,23.51,0,0,1,7.05,1.52c7.2,3.16,8,12.65,8,16.58,0,9.4-5.87,19.13-17.1,20.07v2.85A4.24,4.24,0,0,1,268.3,218.68Zm-8.81-43.06-1,.28a15.05,15.05,0,0,0-8.81,6.8c-1.13,2.08-1,4.35-.95,6.75,0,.69.05,1.38.05,2.08a18,18,0,0,0,16.38,17.87,1,1,0,0,1,.92,1v4a2.23,2.23,0,1,0,4.46,0v-3.79a1,1,0,0,1,1-1c10.59-.4,16.13-9.42,16.13-18.13,0-2.76-.48-12-6.77-14.75a22.07,22.07,0,0,0-6.46-1.36c-5.4-.58-10.25-1-14.91.21Z" fill="#093f68"></path><ellipse cx="247.42" cy="192" rx="4.96" ry="5.41" fill="#ffc9b0"></ellipse><path d="M247.42,198.42a6.43,6.43,0,1,1,6-6.42A6.21,6.21,0,0,1,247.42,198.42Zm0-10.83a4.44,4.44,0,1,0,4,4.41A4.21,4.21,0,0,0,247.42,187.59Z" fill="#093f68"></path><ellipse cx="289.85" cy="192" rx="4.96" ry="5.41" fill="#ffc9b0"></ellipse><path d="M289.85,198.42a6.43,6.43,0,1,1,6-6.42A6.21,6.21,0,0,1,289.85,198.42Zm0-10.83a4.44,4.44,0,1,0,4,4.41A4.2,4.2,0,0,0,289.85,187.59Z" fill="#093f68"></path><path d="M288.38,239.51V221.58a7.57,7.57,0,0,0-7.57-7.57H256.46a7.57,7.57,0,0,0-7.57,7.57v17.93Z" fill="#70cc40"></path><path d="M288.38,240.51H248.89a1,1,0,0,1-1-1V221.58a8.59,8.59,0,0,1,8.57-8.57h24.35a8.58,8.58,0,0,1,8.57,8.57v17.93A1,1,0,0,1,288.38,240.51Zm-38.49-2h37.49V221.58a6.58,6.58,0,0,0-6.57-6.57H256.46a6.58,6.58,0,0,0-6.57,6.57Z" fill="#093f68"></path><path d="M256.88,226.22a1,1,0,0,1-1-1V220.3a1,1,0,0,1,2,0v4.92A1,1,0,0,1,256.88,226.22Z" fill="#093f68"></path><path d="M280.4,226.22a1,1,0,0,1-1-1V220.3a1,1,0,0,1,2,0v4.92A1,1,0,0,1,280.4,226.22Z" fill="#093f68"></path><path d="M249.73,168.4a11.09,11.09,0,0,1,9.27-1.82,26,26,0,0,1,9.58-3.86l-2.31,2.66c3.52-.82,7.11-1.65,10.72-1.41s7.31,1.71,9.41,4.66a10.3,10.3,0,0,1-3.87-.28c3.6,1,6.28,6.34,7.26,9.51,1.36,4.36.54,8.83.54,13.33a15.72,15.72,0,0,1-15.72,15.72H263.9a15.72,15.72,0,0,1-15.72-15.72,18.3,18.3,0,0,0-.39-5.54c-.55-1.63-1.67-2.75-1.89-4.62a11.43,11.43,0,0,0-1,3.3,15.58,15.58,0,0,1,2-13.16A12,12,0,0,1,249.73,168.4Z" fill="#725858"></path><path d="M274.61,207.91H263.9a16.74,16.74,0,0,1-16.72-16.72c0-.33,0-.68,0-1a12.89,12.89,0,0,0-.35-4.2,10,10,0,0,0-.75-1.6l-.13-.23c0,.11,0,.22-.05.33a1,1,0,0,1-1.95.14,16.47,16.47,0,0,1,2.14-14,13,13,0,0,1,3.05-3,12.3,12.3,0,0,1,9.67-2.08,27.41,27.41,0,0,1,9.57-3.77,1,1,0,0,1,1.05.49,1,1,0,0,1-.11,1.15l-.31.36a29.48,29.48,0,0,1,8-.76c4.37.29,8.08,2.14,10.16,5.08a1,1,0,0,1-.69,1.57l-.2,0a21.47,21.47,0,0,1,4.43,7.92c1,3.34.86,6.72.7,10-.06,1.2-.12,2.44-.12,3.65A16.74,16.74,0,0,1,274.61,207.91ZM245.9,180h.16a1,1,0,0,1,.83.87,6.83,6.83,0,0,0,1,2.5,11.74,11.74,0,0,1,.89,1.92,14.77,14.77,0,0,1,.45,4.86c0,.34,0,.68,0,1a14.73,14.73,0,0,0,14.72,14.72h10.71a14.75,14.75,0,0,0,14.72-14.72c0-1.26.06-2.52.12-3.75.16-3.23.32-6.29-.61-9.28s-3.51-8-6.57-8.84h0a1,1,0,0,1-.71-1.23,1,1,0,0,1,1.22-.7h0a10,10,0,0,0,1.35.25,12.45,12.45,0,0,0-7.22-2.68c-3.49-.23-7,.6-10.43,1.39a1,1,0,0,1-1.08-.45,1,1,0,0,1,.1-1.18l.23-.26a25.34,25.34,0,0,0-6.19,2.95,1,1,0,0,1-.82.13,10.15,10.15,0,0,0-8.43,1.68h0a10.88,10.88,0,0,0-2.58,2.53,13.69,13.69,0,0,0-2.43,8.48A1,1,0,0,1,245.9,180Zm3.83-11.63h0Z" fill="#093f68"></path><rect x="261.82" y="210.46" width="13.63" height="3.55" fill="#70cc40"></rect><path d="M275.45,215H261.82a1,1,0,0,1-1-1v-3.55a1,1,0,0,1,1-1h13.63a1,1,0,0,1,1,1V214A1,1,0,0,1,275.45,215Zm-12.63-2h11.63v-1.55H262.82Z" fill="#093f68"></path><path d="M283.78,239.51v-9.14c0-4.2-2.9-7.61-6.47-7.61H260c-3.57,0-6.46,3.41-6.46,7.61v9.14Z" fill="#68e1fd"></path><path d="M283.78,240.51H253.5a1,1,0,0,1-1-1v-9.13c0-4.76,3.34-8.62,7.46-8.62h17.35c4.12,0,7.47,3.86,7.47,8.62v9.13A1,1,0,0,1,283.78,240.51Zm-29.28-2h28.28v-8.13c0-3.65-2.45-6.62-5.47-6.62H260c-3,0-5.46,3-5.46,6.62Z" fill="#093f68"></path><rect x="176.8" y="65.92" width="111.83" height="93.17" fill="#fff"></rect><path d="M288.63,160.09H176.8a1,1,0,0,1-1-1V65.92a1,1,0,0,1,1-1H288.63a1,1,0,0,1,1,1v93.17A1,1,0,0,1,288.63,160.09Zm-110.83-2H287.63V66.92H177.8Z" fill="#093f68"></path><path d="M264.65,79.56H213.32a1,1,0,0,1,0-2h51.33a1,1,0,0,1,0,2Z" fill="#dfeaef"></path><path d="M244.35,142.47H190.58a1,1,0,0,1-1-1V91.53a1,1,0,0,1,1-1h53.77a1,1,0,0,1,1,1v49.94A1,1,0,0,1,244.35,142.47Zm-52.77-2h51.77V92.53H191.58Z" fill="#dfeaef"></path><path d="M281.45,96.11H255.23a1,1,0,0,1,0-2h26.22a1,1,0,0,1,0,2Z" fill="#dfeaef"></path><path d="M281.45,105.81H255.23a1,1,0,1,1,0-2h26.22a1,1,0,0,1,0,2Z" fill="#dfeaef"></path><path d="M281.45,115.51H255.23a1,1,0,0,1,0-2h26.22a1,1,0,0,1,0,2Z" fill="#dfeaef"></path><path d="M281.45,125.21H255.23a1,1,0,0,1,0-2h26.22a1,1,0,0,1,0,2Z" fill="#dfeaef"></path><path d="M270.4,134.91H255.23a1,1,0,0,1,0-2H270.4a1,1,0,0,1,0,2Z" fill="#dfeaef"></path><path d="M192.93,140.18a1,1,0,0,1-.57-.18,1,1,0,0,1-.25-1.39l20.39-29.37a1,1,0,0,1,.83-.43,1,1,0,0,1,.83.46l8.66,13.23L243.56,96A1,1,0,0,1,245,95.8a1,1,0,0,1,.17,1.4l-21.6,27.63a1,1,0,0,1-1.63-.07L213.3,111.6l-19.54,28.15A1,1,0,0,1,192.93,140.18Z" fill="#dfeaef"></path><path d="M156.52,80.16c-3.26-5.87-3.79-13.12-10.26-17-7.64-4.57-20.47-3.25-26.46,3.71a5.7,5.7,0,0,0-5.34-.86c-4.34,1.28-7.11,5.61-8.27,9.8a26.15,26.15,0,0,0-.27,11.48c.43,2.49,1.11,5,.61,7.52-.68,3.42-3.53,6.33-3.34,9.82.17,3,2.56,5.16,3.28,8,.89,3.47-1.68,5.85-1.68,9.2,0,3.57,3.7,5.88,7,7.16a57.62,57.62,0,0,0,43.26-1c8.14-3.57,14.64-11.3,12.26-20.67-1-3.81-3.36-7.34-3.25-11.27.07-2.33,1-4.58.11-6.82s-3.56-3.8-5.21-5.57A16.78,16.78,0,0,1,156.52,80.16Z" fill="#725858"></path><path d="M132.18,133.71a58,58,0,0,1-20.72-3.81c-4.94-1.89-7.67-4.77-7.67-8.09a11.81,11.81,0,0,1,1-4.31c.61-1.6,1.13-3,.7-4.64a12.62,12.62,0,0,0-1.44-3.14,11.16,11.16,0,0,1-1.86-5c-.13-2.28.86-4.27,1.81-6.19a15.84,15.84,0,0,0,1.54-3.88,15.43,15.43,0,0,0-.38-5.88l-.24-1.27a27.13,27.13,0,0,1,.3-11.92c1.48-5.35,4.83-9.27,9-10.49a6.84,6.84,0,0,1,5.47.5c6.34-6.53,19-8.12,27.12-3.24,4.76,2.85,6.5,7.38,8.18,11.77a44.3,44.3,0,0,0,2.44,5.6h0a16.18,16.18,0,0,0,2.33,3.25,23.5,23.5,0,0,0,1.75,1.6,12,12,0,0,1,3.66,4.28,9.05,9.05,0,0,1,.2,5.09,18,18,0,0,0-.24,2.13c-.07,2.29.81,4.47,1.74,6.77a34.63,34.63,0,0,1,1.48,4.23c2.56,10.07-4.6,18.22-12.83,21.83A58,58,0,0,1,132.18,133.71Zm-15.76-67a5.91,5.91,0,0,0-1.67.26c-3.46,1-6.29,4.42-7.59,9.1a25.18,25.18,0,0,0-.26,11.05c.08.41.15.82.23,1.23a17.27,17.27,0,0,1,.39,6.65,17.91,17.91,0,0,1-1.72,4.38c-.87,1.77-1.7,3.44-1.61,5.19a9.81,9.81,0,0,0,1.6,4.16,14.27,14.27,0,0,1,1.65,3.63,9.25,9.25,0,0,1-.76,5.84,10.13,10.13,0,0,0-.89,3.61c0,3.29,4,5.31,6.39,6.22a56.38,56.38,0,0,0,42.5-1c7.46-3.27,14-10.57,11.69-19.51a32.9,32.9,0,0,0-1.4-4c-1-2.4-2-4.88-1.88-7.58a18.23,18.23,0,0,1,.27-2.38,7.4,7.4,0,0,0-.08-4,10.6,10.6,0,0,0-3.1-3.51,23,23,0,0,1-1.92-1.76,17.74,17.74,0,0,1-2.61-3.64h0a45.6,45.6,0,0,1-2.57-5.85c-1.63-4.26-3.17-8.28-7.34-10.78-7.51-4.5-19.75-2.8-25.19,3.5a1,1,0,0,1-1.38.13A4.3,4.3,0,0,0,116.42,66.71Z" fill="#093f68"></path><path d="M178.22,131.3c2.35,2.52,4.53,5.2,6.71,7.88l10-9.05c3.74-3.37,7.45-7.49,2.91-11.86a2.6,2.6,0,0,0-1-.66,2.77,2.77,0,0,0-1.94.41,20.35,20.35,0,0,0-5.73,4.32c.26-1.69,1.51-3.35.88-4.94a.66.66,0,0,0-.27-.36c-.31-.16-.65.13-.86.4a23.22,23.22,0,0,0-3.44,6.29c-.76,2-2,2.83-3.53,4.23Z" fill="#ffc9b0"></path><path d="M184.93,140.18h-.07a1,1,0,0,1-.7-.36l-.33-.4c-2-2.48-4.13-5-6.34-7.42a1,1,0,0,1-.27-.73,1.05,1.05,0,0,1,.33-.7l3.7-3.34.68-.61a7.78,7.78,0,0,0,2.59-3.23,24.51,24.51,0,0,1,3.59-6.56,1.67,1.67,0,0,1,2.12-.66,1.59,1.59,0,0,1,.73.87,3.88,3.88,0,0,1,.16,2.17,20.88,20.88,0,0,1,3.31-2.07,3.62,3.62,0,0,1,2.66-.48,3.56,3.56,0,0,1,1.44.9,6.8,6.8,0,0,1,2.4,5c0,3.1-2.59,5.82-5.32,8.3l-10,9A1,1,0,0,1,184.93,140.18Zm-5.29-8.81c1.88,2.07,3.67,4.24,5.4,6.36l7.85-7.1,1.39-1.26c2.39-2.16,4.62-4.49,4.65-6.83a4.8,4.8,0,0,0-1.79-3.54,1.68,1.68,0,0,0-.59-.43,2.11,2.11,0,0,0-1.22.34,19.19,19.19,0,0,0-5.44,4.11,1,1,0,0,1-1.17.22,1,1,0,0,1-.55-1,9.82,9.82,0,0,1,.56-2,8.7,8.7,0,0,0,.44-1.49,23.68,23.68,0,0,0-2.78,5.35,9.67,9.67,0,0,1-3.14,4c-.21.18-.43.37-.65.58Z" fill="#093f68"></path><path d="M182.15,127.14s-10.32,6.92-12.24,7.89c0,0-11-13.4-22.57-13.4H134.63c-7.34,0-15.45,4.39-15.45,12.49v25H158.8V144.24c5.21,3,8.15,4.69,10.53,5.24,3.36.77,7.32-1.83,18.24-13.07Z" fill="#68e1fd"></path><path d="M158.8,160.09H119.18a1,1,0,0,1-1-1v-25c0-8.45,8.36-13.49,16.45-13.49h12.71c10.57,0,20.39,10.38,22.8,13.13,2.31-1.37,8.29-5.33,11.45-7.45a1,1,0,0,1,1.43.32l5.42,9.27a1,1,0,0,1-.15,1.2c-10.95,11.27-15.25,14.26-19.19,13.35-2.28-.53-5-2-9.3-4.49v13.13A1,1,0,0,1,158.8,160.09Zm-38.62-2H157.8V144.24a1,1,0,0,1,.5-.86,1,1,0,0,1,1,0l.91.52c4.53,2.57,7.26,4.13,9.35,4.61,3,.69,7.07-2.3,16.77-12.24l-4.5-7.7c-2.56,1.71-9.82,6.54-11.46,7.36a1,1,0,0,1-1.22-.26c-.11-.13-10.83-13-21.8-13H134.63c-7.1,0-14.45,4.3-14.45,11.49Z" fill="#093f68"></path><polygon points="138.99 123.55 144.14 147.35 145.81 122.07 138.99 123.55" fill="#093f68"></polygon><path d="M144.14,148.35a1,1,0,0,1-1-.79L138,123.76a1,1,0,0,1,.13-.75,1,1,0,0,1,.63-.44l6.82-1.47a1,1,0,0,1,1.21,1l-1.67,25.28a1,1,0,0,1-.92.93Zm-4-24,3.43,15.87,1.12-16.85Z" fill="#093f68"></path><path d="M129.7,160.09a1,1,0,0,1-1-1V130.15a1,1,0,0,1,2,0v28.94A1,1,0,0,1,129.7,160.09Z" fill="#093f68"></path><path d="M138.8,118.81h7a0,0,0,0,1,0,0v4a3,3,0,0,1-3,3h-1.05a3,3,0,0,1-3-3v-4A0,0,0,0,1,138.8,118.81Z" transform="translate(-22.62 32.81) rotate(-12.19)" fill="#ffc9b0"></path><path d="M141.89,126.88a4,4,0,0,1-3.87-3.12l-.85-3.93a1,1,0,0,1,.76-1.18l6.82-1.48a1.05,1.05,0,0,1,.76.14,1,1,0,0,1,.43.63l.85,3.92a4,4,0,0,1-3,4.71l-1,.23A4,4,0,0,1,141.89,126.88Zm-2.56-6.49.64,3a2,2,0,0,0,2.33,1.5l1-.22h0a2,2,0,0,0,1.51-2.33l-.64-3Z" fill="#093f68"></path><ellipse cx="155.26" cy="96.76" rx="5.23" ry="5.84" transform="translate(-16.93 34.98) rotate(-12.19)" fill="#ffc9b0"></ellipse><path d="M155.48,103.58a6.06,6.06,0,0,1-3.55-1.19,7.35,7.35,0,0,1-2-9.38,6,6,0,0,1,3.91-2.94c3.36-.72,6.74,1.69,7.54,5.37h0c.79,3.69-1.29,7.28-4.65,8A6.24,6.24,0,0,1,155.48,103.58ZM155,91.94a3.46,3.46,0,0,0-.78.09,3.92,3.92,0,0,0-2.6,2,5.33,5.33,0,0,0,1.46,6.77,3.94,3.94,0,0,0,3.18.72c2.28-.49,3.68-3,3.11-5.62A4.73,4.73,0,0,0,155,91.94Z" fill="#093f68"></path><path d="M112.33,89.07c-.31.71.48,2.89.63,3.62,1,5,2.36,10.26,5,14.67,5,8.32,14.91,15.08,23.71,13.18a18.35,18.35,0,0,0,14.34-14,22.49,22.49,0,0,0,.05-10.07s.1-2.48-2.35-11.51c-1-3.51-1.12-7.6-5.72-6.19a2.76,2.76,0,0,1-1.51.22,2.39,2.39,0,0,1-.89-.62L143,75.81c-1,.89.52,2.83-.41,3.78a2,2,0,0,1-.95.44l-12.65,3.2a15,15,0,0,0-3.52-5,38.88,38.88,0,0,0-.63,7.15c0,.36-8.11,2.17-8.93,2.39s-3.1.4-3.52,1.23Z" fill="#ffc9b0"></path><path d="M138.79,121.84c-7,0-15.9-4.42-21.66-14-2.8-4.65-4.18-10.19-5.15-15,0-.17-.11-.43-.19-.72-.44-1.54-.73-2.7-.38-3.5h0l0,0c.55-1.11,2.14-1.4,3.42-1.63.29,0,.55-.1.74-.15l1.38-.33c1.43-.34,5.41-1.27,6.81-1.72a39.5,39.5,0,0,1,.65-6.7,1,1,0,0,1,.67-.77,1,1,0,0,1,1,.22,15.82,15.82,0,0,1,3.39,4.52l11.85-3a2.32,2.32,0,0,0,.49-.17c.09-.1,0-.73-.08-1a2.78,2.78,0,0,1,.53-2.82,1,1,0,0,1,1.37,0l2.67,2.6a1.86,1.86,0,0,0,.47.38,2,2,0,0,0,.74-.15l.2-.07a4.81,4.81,0,0,1,3.9.16c1.71,1,2.22,3.16,2.71,5.28.12.48.23,1,.36,1.45,2.17,8,2.38,11,2.39,11.66a23.56,23.56,0,0,1-.08,10.41,19.4,19.4,0,0,1-15.1,14.71A14.93,14.93,0,0,1,138.79,121.84ZM113.25,89.5a10.38,10.38,0,0,0,.46,2.12c.1.36.19.67.23.87.94,4.64,2.26,10,4.91,14.36,4.55,7.55,14,14.57,22.64,12.71a17.43,17.43,0,0,0,13.58-13.22,21.52,21.52,0,0,0,0-9.62,2.11,2.11,0,0,1,0-.25s0-2.58-2.32-11.21c-.13-.5-.25-1-.37-1.52-.42-1.77-.81-3.45-1.76-4a3,3,0,0,0-2.32,0l-.18,0a3.16,3.16,0,0,1-1.91.17,3.22,3.22,0,0,1-1.31-.87L143.8,78a2.49,2.49,0,0,1-.54,2.25,2.83,2.83,0,0,1-1.43.7L129.18,84.2a1,1,0,0,1-1.16-.57,13.45,13.45,0,0,0-1.93-3.18,37.52,37.52,0,0,0-.3,5c0,1,0,1.08-8.35,3l-1.32.31c-.23.06-.55.12-.9.19A7.46,7.46,0,0,0,113.25,89.5Z" fill="#093f68"></path><ellipse cx="134.46" cy="96.26" rx="1.89" ry="1.89" transform="translate(-17.3 30.57) rotate(-12.19)" fill="#093f68"></ellipse><circle cx="149.19" cy="92.29" r="1.89" fill="#093f68"></circle><path d="M141.05,101.25a1,1,0,0,1-.09-2,19.17,19.17,0,0,0,3.79-.76,14.47,14.47,0,0,0-2.89-3.23,1,1,0,1,1,1.31-1.51c1.48,1.29,3.92,3.68,3.65,5.27a1.55,1.55,0,0,1-1,1.2,19.59,19.59,0,0,1-4.68,1Zm3.79-2.5h0Z" fill="#093f68"></path><path d="M126.47,93.91l-.3,0a2,2,0,0,1-1.68-2.28,6.42,6.42,0,0,1,5.32-5c4.33-.89,6.44,1,6.67,1.2l-2.77,2.89.08.07s-.95-.7-3.18-.24c-1.91.39-2.16,1.68-2.16,1.69A2,2,0,0,1,126.47,93.91Z" fill="#093f68"></path><path d="M144.62,89.32A2,2,0,0,1,143,86.16a8.79,8.79,0,0,1,5.4-3.27c3.27-.56,5,1.1,5.52,2.16a2,2,0,0,1-3.52,1.89,1.8,1.8,0,0,0-1.33-.11,5,5,0,0,0-2.84,1.69A2,2,0,0,1,144.62,89.32Zm5.7-2.53h0Zm0,0Z" fill="#093f68"></path><path d="M119.39,100.8s-5.61-2.33-7.3,2.59,2.45,11.78,10,7.88" fill="#ffc9b0"></path><path d="M117.89,113.41a6.76,6.76,0,0,1-4.52-1.64,8.22,8.22,0,0,1-2.23-8.71A5.35,5.35,0,0,1,114,99.75c2.59-1.17,5.64.07,5.77.12a1,1,0,0,1,.54,1.31,1,1,0,0,1-1.3.54,6.22,6.22,0,0,0-4.2-.14,3.37,3.37,0,0,0-1.78,2.13,6.27,6.27,0,0,0,1.65,6.55c1.74,1.5,4.23,1.55,7,.12a1,1,0,0,1,.91,1.78A10.35,10.35,0,0,1,117.89,113.41Z" fill="#093f68"></path><path d="M140,106.75l6.87-1.57s.59,5.76-2.18,6.73S140,106.75,140,106.75Z" fill="#fff"></path><path d="M144.09,113a2.9,2.9,0,0,1-1.3-.32c-2.29-1.15-3.61-5.19-3.76-5.65a1,1,0,0,1,.09-.8,1,1,0,0,1,.64-.47l6.87-1.58a1,1,0,0,1,.81.16,1,1,0,0,1,.41.71c.07.68.58,6.59-2.83,7.79A3,3,0,0,1,144.09,113Zm-2.77-5.55c.56,1.36,1.46,3,2.36,3.44a.8.8,0,0,0,.67.06c1.23-.43,1.56-2.8,1.56-4.55Z" fill="#093f68"></path><path d="M158.8,145.24a1,1,0,0,1-1-1V131.46a1,1,0,1,1,2,0v12.78A1,1,0,0,1,158.8,145.24Z" fill="#093f68"></path><path d="M189.15,129.68a1,1,0,0,1-.84-1.54,4.73,4.73,0,0,0,0-5.22,1,1,0,0,1,1.62-1.17,6.71,6.71,0,0,1,0,7.47A1,1,0,0,1,189.15,129.68Z" fill="#093f68"></path></g></svg>