<svg xmlns="http://www.w3.org/2000/svg" xmlns:xlink="http://www.w3.org/1999/xlink" width="30" height="30" viewBox="0 0 30 30"><defs><style>.a,.e{fill:none;}.b{fill:url(#a);}.c{fill:rgba(255,255,255,0.5);}.d{fill:#fff;}.e{stroke:#fff;}.f{stroke:none;}.g{filter:url(#b);}</style><linearGradient id="a" x1="0.015" x2="1" y2="0.655" gradientUnits="objectBoundingBox"><stop offset="0" stop-color="#8d54f6"/><stop offset="1" stop-color="#7327f5"/></linearGradient><filter id="b"><feOffset input="SourceAlpha"/><feGaussianBlur stdDeviation="3" result="c"/><feFlood flood-color="#8a4ff6" flood-opacity="0.502" result="d"/><feComposite operator="out" in="SourceGraphic" in2="c"/><feComposite operator="in" in="d"/><feComposite operator="in" in2="SourceGraphic"/></filter></defs><g transform="translate(-413 -1129)"><rect class="a" width="30" height="30" transform="translate(413 1129)"/><g transform="translate(63 0.182)"><rect class="b" width="22.909" height="20" rx="2" transform="translate(350 1135)"/><g data-type="innerShadowGroup"><rect class="c" width="25.909" height="21.136" rx="2" transform="translate(354.091 1131.818)"/><g class="g" transform="matrix(1, 0, 0, 1, 350, 1128.82)"><rect class="d" width="25.909" height="21.136" rx="2" transform="translate(4.09 3)"/></g><g class="e" transform="translate(354.091 1131.818)"><rect class="f" width="25.909" height="21.136" rx="2"/><rect class="a" x="0.5" y="0.5" width="24.909" height="20.136" rx="1.5"/></g></g><path class="d" d="M5.776.628V7.691a3.114,3.114,0,0,1,3.61-.785,5.7,5.7,0,0,0,2.982,1.177,3.5,3.5,0,0,0,2.2-.785V.471a3.462,3.462,0,0,1-4.4.314A3.37,3.37,0,0,0,7.581.078C6.639.314,5.776.628,5.776.628m-1.57,10.36a.56.56,0,0,1-.549-.628V.549a.549.549,0,0,1,1.1,0v9.81C4.834,10.752,4.6,10.988,4.207,10.988Z" transform="translate(356.57 1137.893)"/></g></g></svg>