<svg xmlns="http://www.w3.org/2000/svg" xmlns:xlink="http://www.w3.org/1999/xlink" width="30" height="30" viewBox="0 0 30 30"><defs><style>.a,.e{fill:none;}.b{fill:url(#a);}.c{fill:rgba(255,255,255,0.5);}.d{fill:#fff;}.f,.g{stroke:none;}.g{fill:#fff;}.h{filter:url(#b);}</style><linearGradient id="a" x1="0.015" x2="1" y2="0.655" gradientUnits="objectBoundingBox"><stop offset="0" stop-color="#8d54f6"/><stop offset="1" stop-color="#7327f5"/></linearGradient><filter id="b"><feOffset input="SourceAlpha"/><feGaussianBlur stdDeviation="3" result="c"/><feFlood flood-color="#8a4ff6" flood-opacity="0.502" result="d"/><feComposite operator="out" in="SourceGraphic" in2="c"/><feComposite operator="in" in="d"/><feComposite operator="in" in2="SourceGraphic"/></filter></defs><g transform="translate(-812 -1121)"><rect class="a" width="30" height="30" transform="translate(812 1121)"/><g transform="translate(133 16.109)"><path class="b" d="M24.152,170.406a6.778,6.778,0,0,1-6.737,6.816H6.188A6.04,6.04,0,0,1,.2,171.482a5.744,5.744,0,0,1,3.742-5.23,1.5,1.5,0,0,0,.894-1.083A6.665,6.665,0,0,1,11.427,160a6.792,6.792,0,0,1,5.7,3.019,1.5,1.5,0,0,0,1.034.66,6.907,6.907,0,0,1,5.995,6.727Z" transform="translate(678.8 949.891)"/><g data-type="innerShadowGroup"><g class="c" transform="translate(683.166 952.351)"><path class="f" d="M 18.62411499023438 177.931640625 L 6.62180757522583 177.931640625 C 3.300051927566528 177.7512054443359 0.7000044584274292 175.2747039794922 0.7000044584274292 172.2886047363281 C 0.7000044584274292 170.085693359375 2.149734497070312 168.0704040527344 4.393364429473877 167.1544036865234 C 5.033884525299072 166.894287109375 5.504044532775879 166.3263397216797 5.650184631347656 165.6354827880859 C 6.278404712677002 162.6597137451172 9.039544105529785 160.5000152587891 12.21561431884766 160.5000152587891 C 14.53246402740479 160.5000152587891 16.65499496459961 161.62353515625 17.89339447021484 163.5054168701172 C 18.2196044921875 164.0045166015625 18.74871444702148 164.3424530029297 19.34420394897461 164.4313049316406 C 21.00079536437988 164.6822967529297 22.51901435852051 165.4924926757812 23.61809539794922 166.7124938964844 C 24.7246036529541 167.9407653808594 25.333984375 169.5119476318359 25.333984375 171.1366271972656 C 25.333984375 174.8834075927734 22.32394409179688 177.931640625 18.62411499023438 177.931640625 Z"/><path class="f" d="M 18.62411499023438 177.431640625 C 22.04824447631836 177.431640625 24.833984375 174.6077117919922 24.833984375 171.1366271972656 C 24.833984375 169.6357574462891 24.27024459838867 168.1834259033203 23.24660491943359 167.0471649169922 C 22.22473526000977 165.9128570556641 20.81184387207031 165.1593627929688 19.27042388916016 164.9258270263672 C 18.53386497497559 164.8159332275391 17.87910461425781 164.3974456787109 17.4757251739502 163.7802734375 C 16.3300952911377 162.0393676757812 14.363694190979 161.0000152587891 12.21561431884766 161.0000152587891 C 9.274494171142578 161.0000152587891 6.719094276428223 162.9928741455078 6.139364242553711 165.7389831542969 C 5.958794593811035 166.592529296875 5.376094341278076 167.2949676513672 4.582354545593262 167.6173095703125 C 2.527654409408569 168.4561767578125 1.200004458427429 170.2897644042969 1.200004458427429 172.2886047363281 C 1.200004458427429 175.0050354003906 3.585452079772949 177.2597808837891 6.635593891143799 177.431640625 L 18.62411499023438 177.431640625 M 18.62411499023438 178.431640625 L 6.608494281768799 178.431640625 C 3.032364368438721 178.2438354492188 0.2000044733285904 175.5592041015625 0.2000044733285904 172.2886047363281 C 0.2000044733285904 169.79931640625 1.842824459075928 167.6556396484375 4.204374313354492 166.6914978027344 C 4.697714328765869 166.4911499023438 5.050824642181396 166.0528869628906 5.161014556884766 165.5320129394531 C 5.827154636383057 162.3765869140625 8.729634284973145 160.0000152587891 12.21561431884766 160.0000152587891 C 14.78502464294434 160.0000152587891 17.03388404846191 161.2897338867188 18.31107521057129 163.2305603027344 C 18.56150436401367 163.6137084960938 18.96469497680664 163.869140625 19.41798400878906 163.936767578125 C 23.05422401428223 164.4877014160156 25.833984375 167.4953918457031 25.833984375 171.1366271972656 C 25.833984375 175.1660461425781 22.60344505310059 178.431640625 18.62411499023438 178.431640625 Z"/></g><g class="h" transform="matrix(1, 0, 0, 1, 679, 1104.89)"><g class="d" transform="translate(4.17 -152.54)"><path class="f" d="M 18.62411499023438 177.931640625 L 6.62180757522583 177.931640625 C 3.300051927566528 177.7512054443359 0.7000044584274292 175.2747039794922 0.7000044584274292 172.2886047363281 C 0.7000044584274292 170.085693359375 2.149734497070312 168.0704040527344 4.393364429473877 167.1544036865234 C 5.033884525299072 166.894287109375 5.504044532775879 166.3263397216797 5.650184631347656 165.6354827880859 C 6.278404712677002 162.6597137451172 9.039544105529785 160.5000152587891 12.21561431884766 160.5000152587891 C 14.53246402740479 160.5000152587891 16.65499496459961 161.62353515625 17.89339447021484 163.5054168701172 C 18.2196044921875 164.0045166015625 18.74871444702148 164.3424530029297 19.34420394897461 164.4313049316406 C 21.00079536437988 164.6822967529297 22.51901435852051 165.4924926757812 23.61809539794922 166.7124938964844 C 24.7246036529541 167.9407653808594 25.333984375 169.5119476318359 25.333984375 171.1366271972656 C 25.333984375 174.8834075927734 22.32394409179688 177.931640625 18.62411499023438 177.931640625 Z"/><path class="f" d="M 18.62411499023438 177.431640625 C 22.04824447631836 177.431640625 24.833984375 174.6077117919922 24.833984375 171.1366271972656 C 24.833984375 169.6357574462891 24.27024459838867 168.1834259033203 23.24660491943359 167.0471649169922 C 22.22473526000977 165.9128570556641 20.81184387207031 165.1593627929688 19.27042388916016 164.9258270263672 C 18.53386497497559 164.8159332275391 17.87910461425781 164.3974456787109 17.4757251739502 163.7802734375 C 16.3300952911377 162.0393676757812 14.363694190979 161.0000152587891 12.21561431884766 161.0000152587891 C 9.274494171142578 161.0000152587891 6.719094276428223 162.9928741455078 6.139364242553711 165.7389831542969 C 5.958794593811035 166.592529296875 5.376094341278076 167.2949676513672 4.582354545593262 167.6173095703125 C 2.527654409408569 168.4561767578125 1.200004458427429 170.2897644042969 1.200004458427429 172.2886047363281 C 1.200004458427429 175.0050354003906 3.585452079772949 177.2597808837891 6.635593891143799 177.431640625 L 18.62411499023438 177.431640625 M 18.62411499023438 178.431640625 L 6.608494281768799 178.431640625 C 3.032364368438721 178.2438354492188 0.2000044733285904 175.5592041015625 0.2000044733285904 172.2886047363281 C 0.2000044733285904 169.79931640625 1.842824459075928 167.6556396484375 4.204374313354492 166.6914978027344 C 4.697714328765869 166.4911499023438 5.050824642181396 166.0528869628906 5.161014556884766 165.5320129394531 C 5.827154636383057 162.3765869140625 8.729634284973145 160.0000152587891 12.21561431884766 160.0000152587891 C 14.78502464294434 160.0000152587891 17.03388404846191 161.2897338867188 18.31107521057129 163.2305603027344 C 18.56150436401367 163.6137084960938 18.96469497680664 163.869140625 19.41798400878906 163.936767578125 C 23.05422401428223 164.4877014160156 25.833984375 167.4953918457031 25.833984375 171.1366271972656 C 25.833984375 175.1660461425781 22.60344505310059 178.431640625 18.62411499023438 178.431640625 Z"/></g></g><g class="e" transform="translate(683.166 952.351)"><path class="f" d="M 18.62411499023438 177.931640625 L 6.62180757522583 177.931640625 C 3.300051927566528 177.7512054443359 0.7000044584274292 175.2747039794922 0.7000044584274292 172.2886047363281 C 0.7000044584274292 170.085693359375 2.149734497070312 168.0704040527344 4.393364429473877 167.1544036865234 C 5.033884525299072 166.894287109375 5.504044532775879 166.3263397216797 5.650184631347656 165.6354827880859 C 6.278404712677002 162.6597137451172 9.039544105529785 160.5000152587891 12.21561431884766 160.5000152587891 C 14.53246402740479 160.5000152587891 16.65499496459961 161.62353515625 17.89339447021484 163.5054168701172 C 18.2196044921875 164.0045166015625 18.74871444702148 164.3424530029297 19.34420394897461 164.4313049316406 C 21.00079536437988 164.6822967529297 22.51901435852051 165.4924926757812 23.61809539794922 166.7124938964844 C 24.7246036529541 167.9407653808594 25.333984375 169.5119476318359 25.333984375 171.1366271972656 C 25.333984375 174.8834075927734 22.32394409179688 177.931640625 18.62411499023438 177.931640625 Z"/><path class="g" d="M 18.62411499023438 177.431640625 C 22.04824447631836 177.431640625 24.833984375 174.6077117919922 24.833984375 171.1366271972656 C 24.833984375 169.6357574462891 24.27024459838867 168.1834259033203 23.24660491943359 167.0471649169922 C 22.22473526000977 165.9128570556641 20.81184387207031 165.1593627929688 19.27042388916016 164.9258270263672 C 18.53386497497559 164.8159332275391 17.87910461425781 164.3974456787109 17.4757251739502 163.7802734375 C 16.3300952911377 162.0393676757812 14.363694190979 161.0000152587891 12.21561431884766 161.0000152587891 C 9.274494171142578 161.0000152587891 6.719094276428223 162.9928741455078 6.139364242553711 165.7389831542969 C 5.958794593811035 166.592529296875 5.376094341278076 167.2949676513672 4.582354545593262 167.6173095703125 C 2.527654409408569 168.4561767578125 1.200004458427429 170.2897644042969 1.200004458427429 172.2886047363281 C 1.200004458427429 175.0050354003906 3.585452079772949 177.2597808837891 6.635593891143799 177.431640625 L 18.62411499023438 177.431640625 M 18.62411499023438 178.431640625 L 6.608494281768799 178.431640625 C 3.032364368438721 178.2438354492188 0.2000044733285904 175.5592041015625 0.2000044733285904 172.2886047363281 C 0.2000044733285904 169.79931640625 1.842824459075928 167.6556396484375 4.204374313354492 166.6914978027344 C 4.697714328765869 166.4911499023438 5.050824642181396 166.0528869628906 5.161014556884766 165.5320129394531 C 5.827154636383057 162.3765869140625 8.729634284973145 160.0000152587891 12.21561431884766 160.0000152587891 C 14.78502464294434 160.0000152587891 17.03388404846191 161.2897338867188 18.31107521057129 163.2305603027344 C 18.56150436401367 163.6137084960938 18.96469497680664 163.869140625 19.41798400878906 163.936767578125 C 23.05422401428223 164.4877014160156 25.833984375 167.4953918457031 25.833984375 171.1366271972656 C 25.833984375 175.1660461425781 22.60344505310059 178.431640625 18.62411499023438 178.431640625 Z"/></g></g><path class="d" d="M93.448,110.652a3.749,3.749,0,0,1-2.2,3.179,1.543,1.543,0,1,1-.164-.814,2.946,2.946,0,0,0,1.537-2.164A1.975,1.975,0,0,0,93.448,110.652Zm-6.605-3.324a1.543,1.543,0,1,1-.079,3.084v0a2.94,2.94,0,0,0,1.2,2.369,2,2,0,0,0-.231.813,3.745,3.745,0,0,1-1.767-3.182q0-.136.009-.27a1.543,1.543,0,0,1,.872-2.816Zm2.866-.661a3.73,3.73,0,0,1,2.282.775,1.543,1.543,0,1,1-.66.515,2.946,2.946,0,0,0-2.858-.216,1.988,1.988,0,0,0-.625-.58A3.729,3.729,0,0,1,89.708,106.666Z" transform="translate(605.677 1010.604)"/></g></g></svg>