<svg xmlns="http://www.w3.org/2000/svg" xmlns:xlink="http://www.w3.org/1999/xlink" width="30" height="30" viewBox="0 0 30 30"><defs><style>.a,.e{fill:none;}.b{fill:url(#a);}.c{fill:rgba(255,255,255,0.5);}.d{fill:#fff;}.f,.g{stroke:none;}.g{fill:#fff;}.h{filter:url(#b);}</style><linearGradient id="a" x1="0.015" x2="1" y2="0.655" gradientUnits="objectBoundingBox"><stop offset="0" stop-color="#8d54f6"/><stop offset="1" stop-color="#7327f5"/></linearGradient><filter id="b"><feOffset input="SourceAlpha"/><feGaussianBlur stdDeviation="3" result="c"/><feFlood flood-color="#8a4ff6" flood-opacity="0.502" result="d"/><feComposite operator="out" in="SourceGraphic" in2="c"/><feComposite operator="in" in="d"/><feComposite operator="in" in2="SourceGraphic"/></filter></defs><g transform="translate(-1246 -1129)"><rect class="a" width="30" height="30" transform="translate(1246 1129)"/><g transform="translate(219.082 -271.437)"><path class="b" d="M788.821,470.436H769.267a1.579,1.579,0,0,0-1.349,1.676V494c0,2.128,2,1.7,2.724,1.378l7.145-3.23a3.664,3.664,0,0,1,2.627,0l7.615,3.373a1.645,1.645,0,0,0,2.318-1.708v-21.7A1.709,1.709,0,0,0,788.821,470.436Z" transform="translate(260 930)"/><g data-type="innerShadowGroup"><g class="c" transform="translate(262.343 931.3)"><path class="f" d="M 791.576904296875 498.6364440917969 C 791.576904296875 498.6364440917969 791.5768432617188 498.6364440917969 791.5768432617188 498.6364440917969 C 791.367919921875 498.6364135742188 791.1599731445312 498.5967407226562 791.0062866210938 498.527587890625 L 782.338623046875 494.6879272460938 L 782.3270874023438 494.6828308105469 L 782.3153076171875 494.6783142089844 C 781.779052734375 494.472412109375 781.2159423828125 494.3680419921875 780.6415405273438 494.3680419921875 C 780.067138671875 494.3680419921875 779.5040283203125 494.4724426269531 778.9678344726562 494.6783142089844 L 778.9542846679688 494.6835021972656 L 778.9411010742188 494.6894836425781 L 770.8109741210938 498.3645935058594 C 770.5438842773438 498.4854736328125 770.070556640625 498.6264953613281 769.6145629882812 498.6264953613281 C 768.7867431640625 498.6264953613281 768.4176025390625 498.20263671875 768.4176025390625 497.2521362304688 L 768.4176025390625 472.3433227539062 C 768.4176025390625 471.6791687011719 768.8603515625 470.9363708496094 769.4529418945312 470.9363708496094 L 791.7034912109375 470.9363708496094 C 792.303955078125 470.9363708496094 792.9390258789062 471.6595764160156 792.9390258789062 472.3433227539062 L 792.9390258789062 497.0398559570312 C 792.9390258789062 497.6184692382812 792.7887573242188 498.0477600097656 792.4923095703125 498.3158569335938 C 792.1839599609375 498.5947875976562 791.7864379882812 498.6364440917969 791.576904296875 498.6364440917969 Z"/><path class="f" d="M 769.4529418945312 471.4363708496094 C 769.2191772460938 471.4363708496094 768.9176025390625 471.8761901855469 768.9176025390625 472.3433227539062 L 768.9176025390625 497.2521362304688 C 768.9176025390625 497.6145324707031 768.9890747070312 497.8861389160156 769.1137084960938 497.9972839355469 C 769.23974609375 498.1097106933594 769.4816284179688 498.1264953613281 769.6145629882812 498.1264953613281 C 769.966796875 498.1264953613281 770.3655395507812 498.0173645019531 770.60498046875 497.9089660644531 L 778.78857421875 494.2115478515625 C 779.3822021484375 493.9836120605469 780.005615234375 493.8680419921875 780.6415405273438 493.8680419921875 C 781.2774658203125 493.8680419921875 781.90087890625 493.9836120605469 782.4945068359375 494.2115173339844 L 782.5411376953125 494.2307739257812 L 791.2114868164062 498.0716247558594 C 791.2811279296875 498.1029663085938 791.4136352539062 498.1364440917969 791.5767822265625 498.1364440917969 C 792.1650390625 498.1364440917969 792.4390258789062 497.7879943847656 792.4390258789062 497.0398559570312 L 792.4390258789062 472.3433227539062 C 792.4390258789062 471.9054260253906 792.00732421875 471.4363708496094 791.7034912109375 471.4363708496094 L 769.4529418945312 471.4363708496094 M 769.4529418945312 470.4363708496094 L 791.7034912109375 470.4363708496094 C 792.6222534179688 470.4363708496094 793.4390258789062 471.4164123535156 793.4390258789062 472.3433227539062 L 793.4390258789062 497.0398559570312 C 793.4390258789062 499.18359375 791.6176147460938 499.3510131835938 790.8010864257812 498.9835205078125 L 782.1361083984375 495.1450805664062 C 781.1740112304688 494.7756958007812 780.1092529296875 494.775634765625 779.1470336914062 495.1450805664062 L 771.0169067382812 498.8201904296875 C 770.1961669921875 499.1917419433594 767.9176635742188 499.6736755371094 767.9176025390625 497.2521362304688 L 767.9176025390625 472.3433227539062 C 767.9176025390625 471.4164123535156 768.5546264648438 470.4363708496094 769.4529418945312 470.4363708496094 Z"/></g><g class="h" transform="matrix(1, 0, 0, 1, 1026.92, 1400.44)"><g class="d" transform="translate(-764.57 -469.14)"><path class="f" d="M 791.576904296875 498.6364440917969 C 791.576904296875 498.6364440917969 791.5768432617188 498.6364440917969 791.5768432617188 498.6364440917969 C 791.367919921875 498.6364135742188 791.1599731445312 498.5967407226562 791.0062866210938 498.527587890625 L 782.338623046875 494.6879272460938 L 782.3270874023438 494.6828308105469 L 782.3153076171875 494.6783142089844 C 781.779052734375 494.472412109375 781.2159423828125 494.3680419921875 780.6415405273438 494.3680419921875 C 780.067138671875 494.3680419921875 779.5040283203125 494.4724426269531 778.9678344726562 494.6783142089844 L 778.9542846679688 494.6835021972656 L 778.9411010742188 494.6894836425781 L 770.8109741210938 498.3645935058594 C 770.5438842773438 498.4854736328125 770.070556640625 498.6264953613281 769.6145629882812 498.6264953613281 C 768.7867431640625 498.6264953613281 768.4176025390625 498.20263671875 768.4176025390625 497.2521362304688 L 768.4176025390625 472.3433227539062 C 768.4176025390625 471.6791687011719 768.8603515625 470.9363708496094 769.4529418945312 470.9363708496094 L 791.7034912109375 470.9363708496094 C 792.303955078125 470.9363708496094 792.9390258789062 471.6595764160156 792.9390258789062 472.3433227539062 L 792.9390258789062 497.0398559570312 C 792.9390258789062 497.6184692382812 792.7887573242188 498.0477600097656 792.4923095703125 498.3158569335938 C 792.1839599609375 498.5947875976562 791.7864379882812 498.6364440917969 791.576904296875 498.6364440917969 Z"/><path class="f" d="M 769.4529418945312 471.4363708496094 C 769.2191772460938 471.4363708496094 768.9176025390625 471.8761901855469 768.9176025390625 472.3433227539062 L 768.9176025390625 497.2521362304688 C 768.9176025390625 497.6145324707031 768.9890747070312 497.8861389160156 769.1137084960938 497.9972839355469 C 769.23974609375 498.1097106933594 769.4816284179688 498.1264953613281 769.6145629882812 498.1264953613281 C 769.966796875 498.1264953613281 770.3655395507812 498.0173645019531 770.60498046875 497.9089660644531 L 778.78857421875 494.2115478515625 C 779.3822021484375 493.9836120605469 780.005615234375 493.8680419921875 780.6415405273438 493.8680419921875 C 781.2774658203125 493.8680419921875 781.90087890625 493.9836120605469 782.4945068359375 494.2115173339844 L 782.5411376953125 494.2307739257812 L 791.2114868164062 498.0716247558594 C 791.2811279296875 498.1029663085938 791.4136352539062 498.1364440917969 791.5767822265625 498.1364440917969 C 792.1650390625 498.1364440917969 792.4390258789062 497.7879943847656 792.4390258789062 497.0398559570312 L 792.4390258789062 472.3433227539062 C 792.4390258789062 471.9054260253906 792.00732421875 471.4363708496094 791.7034912109375 471.4363708496094 L 769.4529418945312 471.4363708496094 M 769.4529418945312 470.4363708496094 L 791.7034912109375 470.4363708496094 C 792.6222534179688 470.4363708496094 793.4390258789062 471.4164123535156 793.4390258789062 472.3433227539062 L 793.4390258789062 497.0398559570312 C 793.4390258789062 499.18359375 791.6176147460938 499.3510131835938 790.8010864257812 498.9835205078125 L 782.1361083984375 495.1450805664062 C 781.1740112304688 494.7756958007812 780.1092529296875 494.775634765625 779.1470336914062 495.1450805664062 L 771.0169067382812 498.8201904296875 C 770.1961669921875 499.1917419433594 767.9176635742188 499.6736755371094 767.9176025390625 497.2521362304688 L 767.9176025390625 472.3433227539062 C 767.9176025390625 471.4164123535156 768.5546264648438 470.4363708496094 769.4529418945312 470.4363708496094 Z"/></g></g><g class="e" transform="translate(262.343 931.3)"><path class="f" d="M 791.576904296875 498.6364440917969 C 791.576904296875 498.6364440917969 791.5768432617188 498.6364440917969 791.5768432617188 498.6364440917969 C 791.367919921875 498.6364135742188 791.1599731445312 498.5967407226562 791.0062866210938 498.527587890625 L 782.338623046875 494.6879272460938 L 782.3270874023438 494.6828308105469 L 782.3153076171875 494.6783142089844 C 781.779052734375 494.472412109375 781.2159423828125 494.3680419921875 780.6415405273438 494.3680419921875 C 780.067138671875 494.3680419921875 779.5040283203125 494.4724426269531 778.9678344726562 494.6783142089844 L 778.9542846679688 494.6835021972656 L 778.9411010742188 494.6894836425781 L 770.8109741210938 498.3645935058594 C 770.5438842773438 498.4854736328125 770.070556640625 498.6264953613281 769.6145629882812 498.6264953613281 C 768.7867431640625 498.6264953613281 768.4176025390625 498.20263671875 768.4176025390625 497.2521362304688 L 768.4176025390625 472.3433227539062 C 768.4176025390625 471.6791687011719 768.8603515625 470.9363708496094 769.4529418945312 470.9363708496094 L 791.7034912109375 470.9363708496094 C 792.303955078125 470.9363708496094 792.9390258789062 471.6595764160156 792.9390258789062 472.3433227539062 L 792.9390258789062 497.0398559570312 C 792.9390258789062 497.6184692382812 792.7887573242188 498.0477600097656 792.4923095703125 498.3158569335938 C 792.1839599609375 498.5947875976562 791.7864379882812 498.6364440917969 791.576904296875 498.6364440917969 Z"/><path class="g" d="M 769.4529418945312 471.4363708496094 C 769.2191772460938 471.4363708496094 768.9176025390625 471.8761901855469 768.9176025390625 472.3433227539062 L 768.9176025390625 497.2521362304688 C 768.9176025390625 497.6145324707031 768.9890747070312 497.8861389160156 769.1137084960938 497.9972839355469 C 769.23974609375 498.1097106933594 769.4816284179688 498.1264953613281 769.6145629882812 498.1264953613281 C 769.966796875 498.1264953613281 770.3655395507812 498.0173645019531 770.60498046875 497.9089660644531 L 778.78857421875 494.2115478515625 C 779.3822021484375 493.9836120605469 780.005615234375 493.8680419921875 780.6415405273438 493.8680419921875 C 781.2774658203125 493.8680419921875 781.90087890625 493.9836120605469 782.4945068359375 494.2115173339844 L 782.5411376953125 494.2307739257812 L 791.2114868164062 498.0716247558594 C 791.2811279296875 498.1029663085938 791.4136352539062 498.1364440917969 791.5767822265625 498.1364440917969 C 792.1650390625 498.1364440917969 792.4390258789062 497.7879943847656 792.4390258789062 497.0398559570312 L 792.4390258789062 472.3433227539062 C 792.4390258789062 471.9054260253906 792.00732421875 471.4363708496094 791.7034912109375 471.4363708496094 L 769.4529418945312 471.4363708496094 M 769.4529418945312 470.4363708496094 L 791.7034912109375 470.4363708496094 C 792.6222534179688 470.4363708496094 793.4390258789062 471.4164123535156 793.4390258789062 472.3433227539062 L 793.4390258789062 497.0398559570312 C 793.4390258789062 499.18359375 791.6176147460938 499.3510131835938 790.8010864257812 498.9835205078125 L 782.1361083984375 495.1450805664062 C 781.1740112304688 494.7756958007812 780.1092529296875 494.775634765625 779.1470336914062 495.1450805664062 L 771.0169067382812 498.8201904296875 C 770.1961669921875 499.1917419433594 767.9176635742188 499.6736755371094 767.9176025390625 497.2521362304688 L 767.9176025390625 472.3433227539062 C 767.9176025390625 471.4164123535156 768.5546264648438 470.4363708496094 769.4529418945312 470.4363708496094 Z"/></g></g><path class="d" d="M14.279,11.647,12.632,10a.767.767,0,0,0-1.051,0L9.935,11.65A.743.743,0,1,0,10.987,12.7l.4-.4v8.186a1.642,1.642,0,1,1-3.282,0V13.369a3.139,3.139,0,0,0-6.275,0v7.953l-.379-.391A.747.747,0,1,0,.394,21.985l1.647,1.645a.744.744,0,0,0,1.051,0l1.645-1.647a.744.744,0,0,0-1.051-1.051l-.363.366v-7.93a1.652,1.652,0,0,1,3.3,0v7.109a3.128,3.128,0,0,0,6.254,0V12.346l.34.353a.744.744,0,0,0,1.051-1.051Z" transform="translate(1033.273 1396.287)"/></g></g></svg>