<svg xmlns="http://www.w3.org/2000/svg" xmlns:xlink="http://www.w3.org/1999/xlink" width="30" height="30" viewBox="0 0 30 30"><defs><style>.a,.e{fill:none;}.b{fill:url(#a);}.c{fill:rgba(255,255,255,0.5);}.d{fill:#fff;}.f,.g{stroke:none;}.g{fill:#fff;}.h{filter:url(#b);}</style><linearGradient id="a" x1="0.015" x2="1" y2="0.655" gradientUnits="objectBoundingBox"><stop offset="0" stop-color="#8d54f6"/><stop offset="1" stop-color="#7327f5"/></linearGradient><filter id="b"><feOffset input="SourceAlpha"/><feGaussianBlur stdDeviation="3" result="c"/><feFlood flood-color="#8a4ff6" flood-opacity="0.502" result="d"/><feComposite operator="out" in="SourceGraphic" in2="c"/><feComposite operator="in" in="d"/><feComposite operator="in" in2="SourceGraphic"/></filter></defs><g transform="translate(-196 -1428)"><rect class="a" width="30" height="30" transform="translate(196 1428)"/><g transform="translate(27.216 -8.001)"><rect class="b" width="12.934" height="15.977" rx="2" transform="translate(177.317 1445.326)"/><g data-type="innerShadowGroup"><g class="c" transform="translate(164.882 1434.635)"><path class="f" d="M 33.40243530273438 24.11585426330566 L 31.65243721008301 24.11585426330566 L 31.65243721008301 15.11585426330566 L 31.65243721008301 14.26946449279785 L 30.91113662719727 14.67793464660645 L 18.9022159576416 21.29509544372559 L 4.939960956573486 13.61585426330566 L 18.90243721008301 5.936492443084717 L 33.40243530273438 13.91149234771729 L 33.40243530273438 24.11585426330566 Z"/><path class="f" d="M 18.90243721008301 6.507129669189453 L 5.977483749389648 13.61585426330566 L 18.9019947052002 20.72433471679688 L 31.81497192382812 13.60902404785156 L 18.90243721008301 6.507129669189453 M 32.15243530273438 13.79463005065918 L 32.15243530273438 23.61585426330566 L 32.90243530273438 23.61585426330566 L 32.90243530273438 14.20713043212891 L 32.15243530273438 13.79463005065918 M 18.90243721008301 5.365854263305664 L 33.90243530273438 13.61585426330566 L 33.90243530273438 24.61585426330566 L 31.15243721008301 24.61585426330566 L 31.15243721008301 15.11585426330566 L 18.90243721008301 21.86585426330566 L 3.902439117431641 13.61585426330566 L 18.90243721008301 5.365854263305664 Z"/></g><g class="h" transform="matrix(1, 0, 0, 1, 168.78, 1436)"><g class="d" transform="translate(-3.9 -1.37)"><path class="f" d="M 33.40243530273438 24.11585426330566 L 31.65243721008301 24.11585426330566 L 31.65243721008301 15.11585426330566 L 31.65243721008301 14.26946449279785 L 30.91113662719727 14.67793464660645 L 18.9022159576416 21.29509544372559 L 4.939960956573486 13.61585426330566 L 18.90243721008301 5.936492443084717 L 33.40243530273438 13.91149234771729 L 33.40243530273438 24.11585426330566 Z"/><path class="f" d="M 18.90243721008301 6.507129669189453 L 5.977483749389648 13.61585426330566 L 18.9019947052002 20.72433471679688 L 31.81497192382812 13.60902404785156 L 18.90243721008301 6.507129669189453 M 32.15243530273438 13.79463005065918 L 32.15243530273438 23.61585426330566 L 32.90243530273438 23.61585426330566 L 32.90243530273438 14.20713043212891 L 32.15243530273438 13.79463005065918 M 18.90243721008301 5.365854263305664 L 33.90243530273438 13.61585426330566 L 33.90243530273438 24.61585426330566 L 31.15243721008301 24.61585426330566 L 31.15243721008301 15.11585426330566 L 18.90243721008301 21.86585426330566 L 3.902439117431641 13.61585426330566 L 18.90243721008301 5.365854263305664 Z"/></g></g><g class="e" transform="translate(164.882 1434.635)"><path class="f" d="M 33.40243530273438 24.11585426330566 L 31.65243721008301 24.11585426330566 L 31.65243721008301 15.11585426330566 L 31.65243721008301 14.26946449279785 L 30.91113662719727 14.67793464660645 L 18.9022159576416 21.29509544372559 L 4.939960956573486 13.61585426330566 L 18.90243721008301 5.936492443084717 L 33.40243530273438 13.91149234771729 L 33.40243530273438 24.11585426330566 Z"/><path class="g" d="M 18.90243721008301 6.507129669189453 L 5.977483749389648 13.61585426330566 L 18.9019947052002 20.72433471679688 L 31.81497192382812 13.60902404785156 L 18.90243721008301 6.507129669189453 M 32.15243530273438 13.79463005065918 L 32.15243530273438 23.61585426330566 L 32.90243530273438 23.61585426330566 L 32.90243530273438 14.20713043212891 L 32.15243530273438 13.79463005065918 M 18.90243721008301 5.365854263305664 L 33.90243530273438 13.61585426330566 L 33.90243530273438 24.61585426330566 L 31.15243721008301 24.61585426330566 L 31.15243721008301 15.11585426330566 L 18.90243721008301 21.86585426330566 L 3.902439117431641 13.61585426330566 L 18.90243721008301 5.365854263305664 Z"/></g></g><path class="d" d="M5.423,9.292v1.556l2.723,1.485,2.723-1.485V9.292L8.147,10.777,5.423,9.292ZM8.147,5.366,3.9,7.7l4.244,2.334,3.466-1.91v2.688h.778V7.7Z" transform="translate(175.638 1440.776)"/></g></g></svg>