<svg xmlns="http://www.w3.org/2000/svg" xmlns:xlink="http://www.w3.org/1999/xlink" width="30" height="30" viewBox="0 0 30 30"><defs><style>.a,.e{fill:none;}.b{fill:url(#a);}.c{fill:rgba(255,255,255,0.5);}.d{fill:#fff;}.f,.g{stroke:none;}.g{fill:#fff;}.h{filter:url(#b);}</style><linearGradient id="a" x1="0.015" x2="1" y2="0.655" gradientUnits="objectBoundingBox"><stop offset="0" stop-color="#8d54f6"/><stop offset="1" stop-color="#7327f5"/></linearGradient><filter id="b"><feOffset input="SourceAlpha"/><feGaussianBlur stdDeviation="3" result="c"/><feFlood flood-color="#8a4ff6" flood-opacity="0.502" result="d"/><feComposite operator="out" in="SourceGraphic" in2="c"/><feComposite operator="in" in="d"/><feComposite operator="in" in2="SourceGraphic"/></filter></defs><g transform="translate(-806 -1423)"><rect class="a" width="30" height="30" transform="translate(806 1423)"/><g transform="translate(614 27.768)"><path class="b" d="M122.828,20.339a18.343,18.343,0,0,1-9.845-3.478l-.582-.409-.581.409A18.322,18.322,0,0,1,102,20.338h-1.086v9.148a14.306,14.306,0,0,0,11.242,13.954l.289.046.207-.046a14.305,14.305,0,0,0,11.24-13.954V20.338h-1.063Z" transform="translate(92.088 1378.78)"/><g data-type="innerShadowGroup"><g class="c" transform="translate(95.918 1380.443)"><path class="f" d="M 112.9828186035156 44.280029296875 L 112.7910461425781 44.24928665161133 C 106.0903472900391 42.70840072631836 101.4120025634766 36.89813995361328 101.4120025634766 30.11409759521484 L 101.4120025634766 21.02532768249512 L 102.0502014160156 21.02532768249512 L 102.0610580444336 21.02532768249512 L 102.0719223022461 21.02485656738281 C 105.780632019043 20.86359786987305 109.3335571289062 19.60678672790527 112.6320419311523 17.28933715820312 L 112.9539337158203 17.06298446655273 L 113.2770156860352 17.28957748413086 C 116.5768127441406 19.6069164276123 120.1379623413086 20.86396789550781 123.8612976074219 21.02563667297363 L 123.8723068237305 21.0261173248291 L 123.8833389282227 21.02610778808594 L 124.4967956542969 21.02567672729492 L 124.4967956542969 30.11409759521484 C 124.4967956542969 36.90349578857422 119.8119583129883 42.71760559082031 113.104118347168 44.25295639038086 L 112.9828186035156 44.280029296875 Z"/><path class="f" d="M 112.9543075561523 17.67396545410156 L 112.9194793701172 17.69845581054688 C 109.5415954589844 20.07168579101562 105.8992614746094 21.35891723632812 102.093635559082 21.52438735961914 L 102.0502014160156 21.52532577514648 L 101.9120025634766 21.52532577514648 L 101.9120025634766 30.11409759521484 C 101.9120025634766 36.65808486938477 106.4235534667969 42.26416015625 112.8869323730469 43.75827789306641 L 112.9673614501953 43.77117156982422 L 112.9953918457031 43.76491928100586 C 119.4732513427734 42.28108215332031 123.9967956542969 36.66807556152344 123.9967956542969 30.11409759521484 L 123.9967956542969 21.52602767944336 L 123.8616409301758 21.52612686157227 L 123.8396072387695 21.52516555786133 C 120.0193710327148 21.35928726196289 116.3688278198242 20.07183837890625 112.9899215698242 17.69893646240234 L 112.9543075561523 17.67396545410156 M 112.9535598754883 16.45200729370117 L 113.5641174316406 16.88021850585938 C 116.7853775024414 19.14240646362305 120.2568359375 20.36865615844727 123.8829879760742 20.52610778808594 L 123.883056640625 20.52613830566406 L 124.9967956542969 20.52532577514648 L 124.9967956542969 30.11409759521484 C 124.9967956542969 37.13795471191406 120.1522979736328 43.15263748168945 113.2156753540039 44.7403564453125 L 112.9982299804688 44.78888702392578 L 112.6954956054688 44.7403564453125 C 105.7572860717773 43.15263748168945 100.9120025634766 37.13795471191406 100.9120025634766 30.11409759521484 L 100.9120025634766 20.52532577514648 L 102.0502014160156 20.52532577514648 C 105.6534881591797 20.36865615844727 109.1253128051758 19.14202880859375 112.344596862793 16.88021850585938 L 112.9535598754883 16.45200729370117 Z"/></g><g class="h" transform="matrix(1, 0, 0, 1, 192, 1395.23)"><g class="d" transform="translate(-96.08 -14.79)"><path class="f" d="M 112.9828186035156 44.280029296875 L 112.7910461425781 44.24928665161133 C 106.0903472900391 42.70840072631836 101.4120025634766 36.89813995361328 101.4120025634766 30.11409759521484 L 101.4120025634766 21.02532768249512 L 102.0502014160156 21.02532768249512 L 102.0610580444336 21.02532768249512 L 102.0719223022461 21.02485656738281 C 105.780632019043 20.86359786987305 109.3335571289062 19.60678672790527 112.6320419311523 17.28933715820312 L 112.9539337158203 17.06298446655273 L 113.2770156860352 17.28957748413086 C 116.5768127441406 19.6069164276123 120.1379623413086 20.86396789550781 123.8612976074219 21.02563667297363 L 123.8723068237305 21.0261173248291 L 123.8833389282227 21.02610778808594 L 124.4967956542969 21.02567672729492 L 124.4967956542969 30.11409759521484 C 124.4967956542969 36.90349578857422 119.8119583129883 42.71760559082031 113.104118347168 44.25295639038086 L 112.9828186035156 44.280029296875 Z"/><path class="f" d="M 112.9543075561523 17.67396545410156 L 112.9194793701172 17.69845581054688 C 109.5415954589844 20.07168579101562 105.8992614746094 21.35891723632812 102.093635559082 21.52438735961914 L 102.0502014160156 21.52532577514648 L 101.9120025634766 21.52532577514648 L 101.9120025634766 30.11409759521484 C 101.9120025634766 36.65808486938477 106.4235534667969 42.26416015625 112.8869323730469 43.75827789306641 L 112.9673614501953 43.77117156982422 L 112.9953918457031 43.76491928100586 C 119.4732513427734 42.28108215332031 123.9967956542969 36.66807556152344 123.9967956542969 30.11409759521484 L 123.9967956542969 21.52602767944336 L 123.8616409301758 21.52612686157227 L 123.8396072387695 21.52516555786133 C 120.0193710327148 21.35928726196289 116.3688278198242 20.07183837890625 112.9899215698242 17.69893646240234 L 112.9543075561523 17.67396545410156 M 112.9535598754883 16.45200729370117 L 113.5641174316406 16.88021850585938 C 116.7853775024414 19.14240646362305 120.2568359375 20.36865615844727 123.8829879760742 20.52610778808594 L 123.883056640625 20.52613830566406 L 124.9967956542969 20.52532577514648 L 124.9967956542969 30.11409759521484 C 124.9967956542969 37.13795471191406 120.1522979736328 43.15263748168945 113.2156753540039 44.7403564453125 L 112.9982299804688 44.78888702392578 L 112.6954956054688 44.7403564453125 C 105.7572860717773 43.15263748168945 100.9120025634766 37.13795471191406 100.9120025634766 30.11409759521484 L 100.9120025634766 20.52532577514648 L 102.0502014160156 20.52532577514648 C 105.6534881591797 20.36865615844727 109.1253128051758 19.14202880859375 112.344596862793 16.88021850585938 L 112.9535598754883 16.45200729370117 Z"/></g></g><g class="e" transform="translate(95.918 1380.443)"><path class="f" d="M 112.9828186035156 44.280029296875 L 112.7910461425781 44.24928665161133 C 106.0903472900391 42.70840072631836 101.4120025634766 36.89813995361328 101.4120025634766 30.11409759521484 L 101.4120025634766 21.02532768249512 L 102.0502014160156 21.02532768249512 L 102.0610580444336 21.02532768249512 L 102.0719223022461 21.02485656738281 C 105.780632019043 20.86359786987305 109.3335571289062 19.60678672790527 112.6320419311523 17.28933715820312 L 112.9539337158203 17.06298446655273 L 113.2770156860352 17.28957748413086 C 116.5768127441406 19.6069164276123 120.1379623413086 20.86396789550781 123.8612976074219 21.02563667297363 L 123.8723068237305 21.0261173248291 L 123.8833389282227 21.02610778808594 L 124.4967956542969 21.02567672729492 L 124.4967956542969 30.11409759521484 C 124.4967956542969 36.90349578857422 119.8119583129883 42.71760559082031 113.104118347168 44.25295639038086 L 112.9828186035156 44.280029296875 Z"/><path class="g" d="M 112.9543075561523 17.67396545410156 L 112.9194793701172 17.69845581054688 C 109.5415954589844 20.07168579101562 105.8992614746094 21.35891723632812 102.093635559082 21.52438735961914 L 102.0502014160156 21.52532577514648 L 101.9120025634766 21.52532577514648 L 101.9120025634766 30.11409759521484 C 101.9120025634766 36.65808486938477 106.4235534667969 42.26416015625 112.8869323730469 43.75827789306641 L 112.9673614501953 43.77117156982422 L 112.9953918457031 43.76491928100586 C 119.4732513427734 42.28108215332031 123.9967956542969 36.66807556152344 123.9967956542969 30.11409759521484 L 123.9967956542969 21.52602767944336 L 123.8616409301758 21.52612686157227 L 123.8396072387695 21.52516555786133 C 120.0193710327148 21.35928726196289 116.3688278198242 20.07183837890625 112.9899215698242 17.69893646240234 L 112.9543075561523 17.67396545410156 M 112.9535598754883 16.45200729370117 L 113.5641174316406 16.88021850585938 C 116.7853775024414 19.14240646362305 120.2568359375 20.36865615844727 123.8829879760742 20.52610778808594 L 123.883056640625 20.52613830566406 L 124.9967956542969 20.52532577514648 L 124.9967956542969 30.11409759521484 C 124.9967956542969 37.13795471191406 120.1522979736328 43.15263748168945 113.2156753540039 44.7403564453125 L 112.9982299804688 44.78888702392578 L 112.6954956054688 44.7403564453125 C 105.7572860717773 43.15263748168945 100.9120025634766 37.13795471191406 100.9120025634766 30.11409759521484 L 100.9120025634766 20.52532577514648 L 102.0502014160156 20.52532577514648 C 105.6534881591797 20.36865615844727 109.1253128051758 19.14202880859375 112.344596862793 16.88021850585938 L 112.9535598754883 16.45200729370117 Z"/></g></g><path class="d" d="M120.249,29.33l-7.383,7.661a.46.46,0,0,1-.648-.026L107.632,32.1a.46.46,0,0,1,.026-.648l.117-.108a.46.46,0,0,1,.648.026l4.138,4.393,6.921-7.184a.46.46,0,0,1,.648-.005l.113.112a.459.459,0,0,1,.006.648Z" transform="translate(93.607 1377.185)"/></g></g></svg>