<svg xmlns="http://www.w3.org/2000/svg" xmlns:xlink="http://www.w3.org/1999/xlink" width="30" height="29.986" viewBox="0 0 30 29.986"><defs><style>.a,.e{fill:none;}.b{fill:url(#a);}.c{fill:rgba(255,255,255,0.5);}.d{fill:#fff;}.f,.g{stroke:none;}.g{fill:#fff;}.h{filter:url(#b);}</style><linearGradient id="a" x1="0.015" x2="1" y2="0.655" gradientUnits="objectBoundingBox"><stop offset="0" stop-color="#8d54f6"/><stop offset="1" stop-color="#7327f5"/></linearGradient><filter id="b"><feOffset input="SourceAlpha"/><feGaussianBlur stdDeviation="3" result="c"/><feFlood flood-color="#8a4ff6" flood-opacity="0.502" result="d"/><feComposite operator="out" in="SourceGraphic" in2="c"/><feComposite operator="in" in="d"/><feComposite operator="in" in2="SourceGraphic"/></filter></defs><g transform="translate(-1246 -1420)"><rect class="a" width="29.986" height="29.986" transform="translate(1246 1420)"/><g transform="translate(1246 1420)"><path class="b" d="M107.652,39.777l-9.773-5.65a2.986,2.986,0,0,0-3.054,0l-9.671,5.65a3.1,3.1,0,0,0-1.527,2.647v11.2a3.055,3.055,0,0,0,1.527,2.647l9.671,5.6a3.067,3.067,0,0,0,3.054,0l9.671-5.65a3.082,3.082,0,0,0,1.527-2.6l.051-11.2A2.894,2.894,0,0,0,107.652,39.777Z" transform="translate(-83.627 -33.707)"/><g data-type="innerShadowGroup"><g class="c" transform="translate(-80.397 -33.707)"><path class="f" d="M 96.98362731933594 63.19298553466797 C 96.54415130615234 63.19298553466797 96.03738403320312 63.05750274658203 95.62718963623047 62.83047103881836 L 85.48004150390625 56.95580673217773 C 84.64527130126953 56.47250747680664 84.12670135498047 55.57374572753906 84.12670135498047 54.61026382446289 L 84.12670135498047 42.85616683959961 C 84.12670135498047 41.90689468383789 84.63492584228516 41.02899551391602 85.48638153076172 40.50693511962891 L 95.63301086425781 34.57917404174805 C 96.0533447265625 34.3358268737793 96.52790832519531 34.2066764831543 97.00366973876953 34.2066764831543 C 97.47523498535156 34.2066764831543 97.93241119384766 34.33372497558594 98.32572937011719 34.5740966796875 L 98.33092498779297 34.57727432250977 L 98.33620452880859 34.58032608032227 L 108.5943298339844 40.51079559326172 L 108.598030090332 40.51292419433594 L 108.6017608642578 40.51500701904297 C 109.4301605224609 40.97523498535156 109.9375991821289 41.88528442382812 109.8945083618164 42.83346557617188 L 109.8940353393555 42.84367752075195 L 109.8939971923828 42.85389709472656 L 109.8405685424805 54.60799407958984 C 109.8405609130859 55.5124626159668 109.3196868896484 56.39175796508789 108.4808654785156 56.90607833862305 L 98.33924865722656 62.83091735839844 C 97.92919158935547 63.05770111083984 97.42283630371094 63.19298553466797 96.98362731933594 63.19298553466797 Z"/><path class="f" d="M 97.003662109375 34.7066764831543 C 96.61574554443359 34.7066764831543 96.22782897949219 34.81255722045898 95.88523101806641 35.01090621948242 L 85.74306488037109 40.93605422973633 C 85.04380035400391 41.36681747436523 84.62668609619141 42.08392333984375 84.62668609619141 42.85616683959961 L 84.62668609619141 54.61026382446289 C 84.62668609619141 55.39592742919922 85.04966735839844 56.12888717651367 85.73056030273438 56.52308654785156 L 95.87357330322266 62.39534759521484 C 96.21216583251953 62.58181762695312 96.62648010253906 62.69298553466797 96.98362731933594 62.69298553466797 C 97.34024047851562 62.69298553466797 97.75389099121094 62.58212661743164 98.09220886230469 62.39615249633789 L 108.2241821289062 56.47695922851562 C 108.9130477905273 56.05255508422852 109.3405609130859 55.33809280395508 109.3405685424805 54.60571670532227 L 109.39501953125 42.81076431274414 C 109.4295654296875 42.0505256652832 109.0228805541992 41.32094573974609 108.3589401245117 40.95208740234375 L 108.3440780639648 40.94366455078125 L 98.06499481201172 35.00073623657227 C 97.75022125244141 34.80835723876953 97.38320922851562 34.7066764831543 97.003662109375 34.7066764831543 M 97.003662109375 33.70667266845703 C 97.55797576904297 33.70667266845703 98.10561370849609 33.85359954833984 98.58645629882812 34.14745712280273 L 108.8445816040039 40.07792663574219 C 109.806282043457 40.61220550537109 110.4474105834961 41.68075561523438 110.3939895629883 42.85616683959961 L 110.3405609130859 54.61026382446289 C 110.3405609130859 55.73225402832031 109.6994247436523 56.74737548828125 108.7377319335938 57.33508682250977 L 98.58645629882812 63.26555633544922 C 98.10560607910156 63.53270721435547 97.51792144775391 63.69298553466797 96.98362731933594 63.69298553466797 C 96.44935607910156 63.69298553466797 95.86164093017578 63.53270721435547 95.38079071044922 63.26555633544922 L 85.22951507568359 57.38851547241211 C 84.21440887451172 56.80080413818359 83.62668609619141 55.73225402832031 83.62668609619141 54.61026382446289 L 83.62668609619141 42.85616683959961 C 83.62668609619141 41.68075561523438 84.26782989501953 40.66562652587891 85.22951507568359 40.07792663574219 L 95.38079071044922 34.14745712280273 C 95.88835144042969 33.85359954833984 96.44934844970703 33.70667266845703 97.003662109375 33.70667266845703 Z"/></g><g class="h" transform="matrix(1, 0, 0, 1, 0, 0)"><g class="d" transform="translate(-80.4 -33.71)"><path class="f" d="M 96.98362731933594 63.19298553466797 C 96.54415130615234 63.19298553466797 96.03738403320312 63.05750274658203 95.62718963623047 62.83047103881836 L 85.48004150390625 56.95580673217773 C 84.64527130126953 56.47250747680664 84.12670135498047 55.57374572753906 84.12670135498047 54.61026382446289 L 84.12670135498047 42.85616683959961 C 84.12670135498047 41.90689468383789 84.63492584228516 41.02899551391602 85.48638153076172 40.50693511962891 L 95.63301086425781 34.57917404174805 C 96.0533447265625 34.3358268737793 96.52790832519531 34.2066764831543 97.00366973876953 34.2066764831543 C 97.47523498535156 34.2066764831543 97.93241119384766 34.33372497558594 98.32572937011719 34.5740966796875 L 98.33092498779297 34.57727432250977 L 98.33620452880859 34.58032608032227 L 108.5943298339844 40.51079559326172 L 108.598030090332 40.51292419433594 L 108.6017608642578 40.51500701904297 C 109.4301605224609 40.97523498535156 109.9375991821289 41.88528442382812 109.8945083618164 42.83346557617188 L 109.8940353393555 42.84367752075195 L 109.8939971923828 42.85389709472656 L 109.8405685424805 54.60799407958984 C 109.8405609130859 55.5124626159668 109.3196868896484 56.39175796508789 108.4808654785156 56.90607833862305 L 98.33924865722656 62.83091735839844 C 97.92919158935547 63.05770111083984 97.42283630371094 63.19298553466797 96.98362731933594 63.19298553466797 Z"/><path class="f" d="M 97.003662109375 34.7066764831543 C 96.61574554443359 34.7066764831543 96.22782897949219 34.81255722045898 95.88523101806641 35.01090621948242 L 85.74306488037109 40.93605422973633 C 85.04380035400391 41.36681747436523 84.62668609619141 42.08392333984375 84.62668609619141 42.85616683959961 L 84.62668609619141 54.61026382446289 C 84.62668609619141 55.39592742919922 85.04966735839844 56.12888717651367 85.73056030273438 56.52308654785156 L 95.87357330322266 62.39534759521484 C 96.21216583251953 62.58181762695312 96.62648010253906 62.69298553466797 96.98362731933594 62.69298553466797 C 97.34024047851562 62.69298553466797 97.75389099121094 62.58212661743164 98.09220886230469 62.39615249633789 L 108.2241821289062 56.47695922851562 C 108.9130477905273 56.05255508422852 109.3405609130859 55.33809280395508 109.3405685424805 54.60571670532227 L 109.39501953125 42.81076431274414 C 109.4295654296875 42.0505256652832 109.0228805541992 41.32094573974609 108.3589401245117 40.95208740234375 L 108.3440780639648 40.94366455078125 L 98.06499481201172 35.00073623657227 C 97.75022125244141 34.80835723876953 97.38320922851562 34.7066764831543 97.003662109375 34.7066764831543 M 97.003662109375 33.70667266845703 C 97.55797576904297 33.70667266845703 98.10561370849609 33.85359954833984 98.58645629882812 34.14745712280273 L 108.8445816040039 40.07792663574219 C 109.806282043457 40.61220550537109 110.4474105834961 41.68075561523438 110.3939895629883 42.85616683959961 L 110.3405609130859 54.61026382446289 C 110.3405609130859 55.73225402832031 109.6994247436523 56.74737548828125 108.7377319335938 57.33508682250977 L 98.58645629882812 63.26555633544922 C 98.10560607910156 63.53270721435547 97.51792144775391 63.69298553466797 96.98362731933594 63.69298553466797 C 96.44935607910156 63.69298553466797 95.86164093017578 63.53270721435547 95.38079071044922 63.26555633544922 L 85.22951507568359 57.38851547241211 C 84.21440887451172 56.80080413818359 83.62668609619141 55.73225402832031 83.62668609619141 54.61026382446289 L 83.62668609619141 42.85616683959961 C 83.62668609619141 41.68075561523438 84.26782989501953 40.66562652587891 85.22951507568359 40.07792663574219 L 95.38079071044922 34.14745712280273 C 95.88835144042969 33.85359954833984 96.44934844970703 33.70667266845703 97.003662109375 33.70667266845703 Z"/></g></g><g class="e" transform="translate(-80.397 -33.707)"><path class="f" d="M 96.98362731933594 63.19298553466797 C 96.54415130615234 63.19298553466797 96.03738403320312 63.05750274658203 95.62718963623047 62.83047103881836 L 85.48004150390625 56.95580673217773 C 84.64527130126953 56.47250747680664 84.12670135498047 55.57374572753906 84.12670135498047 54.61026382446289 L 84.12670135498047 42.85616683959961 C 84.12670135498047 41.90689468383789 84.63492584228516 41.02899551391602 85.48638153076172 40.50693511962891 L 95.63301086425781 34.57917404174805 C 96.0533447265625 34.3358268737793 96.52790832519531 34.2066764831543 97.00366973876953 34.2066764831543 C 97.47523498535156 34.2066764831543 97.93241119384766 34.33372497558594 98.32572937011719 34.5740966796875 L 98.33092498779297 34.57727432250977 L 98.33620452880859 34.58032608032227 L 108.5943298339844 40.51079559326172 L 108.598030090332 40.51292419433594 L 108.6017608642578 40.51500701904297 C 109.4301605224609 40.97523498535156 109.9375991821289 41.88528442382812 109.8945083618164 42.83346557617188 L 109.8940353393555 42.84367752075195 L 109.8939971923828 42.85389709472656 L 109.8405685424805 54.60799407958984 C 109.8405609130859 55.5124626159668 109.3196868896484 56.39175796508789 108.4808654785156 56.90607833862305 L 98.33924865722656 62.83091735839844 C 97.92919158935547 63.05770111083984 97.42283630371094 63.19298553466797 96.98362731933594 63.19298553466797 Z"/><path class="g" d="M 97.003662109375 34.7066764831543 C 96.61574554443359 34.7066764831543 96.22782897949219 34.81255722045898 95.88523101806641 35.01090621948242 L 85.74306488037109 40.93605422973633 C 85.04380035400391 41.36681747436523 84.62668609619141 42.08392333984375 84.62668609619141 42.85616683959961 L 84.62668609619141 54.61026382446289 C 84.62668609619141 55.39592742919922 85.04966735839844 56.12888717651367 85.73056030273438 56.52308654785156 L 95.87357330322266 62.39534759521484 C 96.21216583251953 62.58181762695312 96.62648010253906 62.69298553466797 96.98362731933594 62.69298553466797 C 97.34024047851562 62.69298553466797 97.75389099121094 62.58212661743164 98.09220886230469 62.39615249633789 L 108.2241821289062 56.47695922851562 C 108.9130477905273 56.05255508422852 109.3405609130859 55.33809280395508 109.3405685424805 54.60571670532227 L 109.39501953125 42.81076431274414 C 109.4295654296875 42.0505256652832 109.0228805541992 41.32094573974609 108.3589401245117 40.95208740234375 L 108.3440780639648 40.94366455078125 L 98.06499481201172 35.00073623657227 C 97.75022125244141 34.80835723876953 97.38320922851562 34.7066764831543 97.003662109375 34.7066764831543 M 97.003662109375 33.70667266845703 C 97.55797576904297 33.70667266845703 98.10561370849609 33.85359954833984 98.58645629882812 34.14745712280273 L 108.8445816040039 40.07792663574219 C 109.806282043457 40.61220550537109 110.4474105834961 41.68075561523438 110.3939895629883 42.85616683959961 L 110.3405609130859 54.61026382446289 C 110.3405609130859 55.73225402832031 109.6994247436523 56.74737548828125 108.7377319335938 57.33508682250977 L 98.58645629882812 63.26555633544922 C 98.10560607910156 63.53270721435547 97.51792144775391 63.69298553466797 96.98362731933594 63.69298553466797 C 96.44935607910156 63.69298553466797 95.86164093017578 63.53270721435547 95.38079071044922 63.26555633544922 L 85.22951507568359 57.38851547241211 C 84.21440887451172 56.80080413818359 83.62668609619141 55.73225402832031 83.62668609619141 54.61026382446289 L 83.62668609619141 42.85616683959961 C 83.62668609619141 41.68075561523438 84.26782989501953 40.66562652587891 85.22951507568359 40.07792663574219 L 95.38079071044922 34.14745712280273 C 95.88835144042969 33.85359954833984 96.44934844970703 33.70667266845703 97.003662109375 33.70667266845703 Z"/></g></g><path class="d" d="M262.811,179.646c-.84,2.213-5.267,5.463-5.267,5.463,1.765.084,3.166.336,5.211-1.793s2.41-7.789,1.989-7.564-4.09,1.121-6.444,2.942-1.653,6.024-1.653,6.024A14.709,14.709,0,0,0,262.811,179.646Zm-7.266,3.986s-3.068-2.312-3.65-3.887a10.283,10.283,0,0,0,4.272,3.608s.485-2.99-1.146-4.286a16.543,16.543,0,0,0-4.465-2.093c-.291-.159-.039,3.867,1.378,5.382A3.652,3.652,0,0,0,255.544,183.632Z" transform="translate(-243.409 -166.137)"/></g></g></svg>