<svg xmlns="http://www.w3.org/2000/svg" width="57.241" height="32" viewBox="0 0 57.241 32"><defs><style>.a{fill:#8a4ff6;}</style></defs><g transform="translate(5623.42 -2007.815)"><path class="a" d="M868.461,102.369a36.226,36.226,0,0,0-11.841,1.536v8.553l3.05,3.3,8.73,9.426.055.059.055-.059,8.732-9.426,3.05-3.3v-8.553A36.175,36.175,0,0,0,868.461,102.369Zm4.729,7.539h-9.445l-.843-.884h11.136Zm1.992-2.083H861.753l-.844-.884h15.116Zm1.99-2.085H859.763l-.762-.8a.289.289,0,0,0-.082-.057v-.03h19.1Z" transform="translate(-6463.25 1905.449)"/><path class="a" d="M795.775,232.71l1.462,1.622-3.265,2.945H790.71Z" transform="translate(-6396.187 1802.535)"/><path class="a" d="M832.133,202.19l-.063-.05Z" transform="translate(-6443.38 1824.694)"/><path class="a" d="M786.845,174.039c-.3,3.812-2.076,6.75-4.216,6.75-2.356,0-4.264-3.547-4.264-7.922,0-.2,0-.4.011-.6l.827.477c-.021.269-.032.543-.032.823,0,3.391,1.6,6.14,3.568,6.14s3.568-2.749,3.568-6.14v-.111l-.469-.507c.011.164.017.33.019.5-.128-.1-.269-.219-.269-.219l-.063-.057q.017-.227.017-.457v-.069l-.1-.1-.158-.191-.538-.572-.229-.246-.98-1.056-.118-.128-.862-.928-.013-.013-.162-.177a2.266,2.266,0,0,0-.353.351h0l-.763-.278a5.443,5.443,0,0,0-.772,1.664l.063.05.633.488h0a6.459,6.459,0,0,0-.112,1.209,4.2,4.2,0,0,0,.017.465l-.53.128-.36.092a7.27,7.27,0,0,0,.642,2.859l.33-.29.553-.524h0l.01-.01a2.585,2.585,0,0,0,.721.823c.036.025.072.05.111.072l-.711,1.285a1.929,1.929,0,0,0,1.212.461,2.2,2.2,0,0,0,1.716-.989l-.454-.982h0a3.172,3.172,0,0,0,.738-1.077h0l.583.2.023.01c-.408,2.144-1.58,3.692-2.964,3.692-1.716,0-3.12-2.4-3.12-5.368,0-2.35.879-4.348,2.1-5.074l-.316-.343-.152-.164a4.464,4.464,0,0,0-1.108,1.372l-1.144-.658a8.318,8.318,0,0,1,.989-2.057l-.621-.663-.863-.923-.032-.034-.461-.509-.993-1.058H776.2a10.623,10.623,0,0,0-1.981,3.98H772.69a10.839,10.839,0,0,1,1.946-3.98h-3.208c-1.716,1.794-2.888,5.414-2.888,9.588a16.018,16.018,0,0,0,2.247,8.8,4.129,4.129,0,0,0,2.772,1.973h9.175a1.9,1.9,0,0,0,.366-.034h.048a4.708,4.708,0,0,0,2.892-1.984,13.538,13.538,0,0,0,2.287-6.138Zm-3.477,1.506c-.648,0-1.174-.978-1.174-2.183s.526-2.183,1.174-2.183,1.176.978,1.176,2.184-.526,2.177-1.176,2.177Zm-4.495-6.43,1.077.621c-.091.191-.177.408-.255.625l-1-.572c.053-.236.111-.461.175-.679Zm-.265,1.106.953.551c-.05.162-.091.328-.132.5l-.911-.524c.021-.181.057-.356.09-.518Zm-.149.976.879.507c-.034.191-.065.381-.09.581l-.846-.488q.023-.309.057-.6Zm-5.883-3.351H774.1c-.042.162-.082.326-.118.492h-1.525c.038-.17.076-.334.118-.5Zm-.206.913H773.9c-.042.213-.082.429-.118.648h-1.525c.038-.223.076-.438.118-.652Zm-.179,1.069h1.525c-.031.214-.057.429-.08.648h-1.525q.034-.335.08-.652Zm2.1,11.8a15.889,15.889,0,0,1-2.3-8.871c0-.635.027-1.256.08-1.86h1.525q-.086.936-.086,1.92a16.11,16.11,0,0,0,2.223,8.768l.036.05Z" transform="translate(-6391.96 1856.009)"/><path class="a" d="M811.9,110.44h-.112v8.553l-5.383,5.812h0l-8.786,9.487-8.788-9.487-5.381-5.812V110.44h-14.4v6.18l2.97,2.373h5.442l11.367,12.274,8.782,9.48h0l8.791-9.481,11.367-12.272h5.442l2.972-2.373v-6.18Zm-31.437,4.279h-8.875v-3.372h8.875Zm43.185,0H814.77v-3.372h8.875Z" transform="translate(-6392.373 1898.914)"/><line y1="0.402" transform="translate(-5580.614 2017.507)"/><path class="a" d="M869.9,232.71l-1.462,1.622,3.265,2.945h3.261Z" transform="translate(-6459.1 1802.535)"/><path class="a" d="M965,175.58a13.381,13.381,0,0,0,2.287,6.138,4.7,4.7,0,0,0,2.89,1.984h.048q.191.027.366.034h9.18a4.147,4.147,0,0,0,2.773-1.973,16.015,16.015,0,0,0,2.247-8.8c0-4.175-1.174-7.794-2.89-9.588H978.7a10.691,10.691,0,0,1,1.944,3.98h-1.525a10.524,10.524,0,0,0-1.981-3.98h-.787l-.991,1.058-.488.522-.034.034-.864.923-.621.663a8.317,8.317,0,0,1,.989,2.057l-1.144.658a4.465,4.465,0,0,0-1.107-1.372l-.154.164-.316.343c1.222.726,2.1,2.724,2.1,5.074,0,2.964-1.4,5.368-3.12,5.368-1.382,0-2.554-1.548-2.964-3.692l.025-.01.572-.2h.01a3.172,3.172,0,0,0,.738,1.077h0l-.457.986a2.222,2.222,0,0,0,1.716.989,1.925,1.925,0,0,0,1.21-.461l-.7-1.29.112-.072a2.631,2.631,0,0,0,.721-.823v.01h0l.553.524.33.29a7.27,7.27,0,0,0,.641-2.859l-.358-.091-.53-.128c0-.154.015-.309.015-.465a6.3,6.3,0,0,0-.112-1.209h0l.633-.488.065-.05a5.443,5.443,0,0,0-.762-1.664l-.763.278h0a2.355,2.355,0,0,0-.353-.351l-.164.177-.013.013-.862.928-.118.128-.98,1.056-.229.246-.536.572-.158.191-.1.1v.061a4.545,4.545,0,0,0,.015.457l-.063.057s-.141.118-.267.219a4.313,4.313,0,0,1,.019-.5l-.469.507v.111c0,3.391,1.6,6.14,3.568,6.14s3.574-2.743,3.574-6.134c0-.28-.011-.555-.032-.823l.825-.477c0,.191.013.4.013.6,0,4.375-1.906,7.922-4.264,7.922-2.141,0-3.913-2.93-4.218-6.75Zm3.78-2.278c0-1.207.528-2.184,1.176-2.184s1.176.978,1.176,2.184-.526,2.183-1.176,2.183-1.182-.978-1.182-2.183Zm5.846-3.576-1,.572a6.593,6.593,0,0,0-.255-.625l1.079-.621c.057.221.116.446.168.675Zm.179.953-.909.524q-.061-.254-.132-.5l.953-.551c.027.177.055.353.082.53Zm.116,1.052-.846.488c-.023-.191-.053-.391-.088-.581l.879-.507c.017.2.034.4.046.606Zm5.944-3.46H979.34c-.038-.166-.078-.33-.118-.492h1.525c.036.168.074.332.112.5Zm.2,1.069h-1.525c-.036-.219-.074-.435-.118-.648h1.525c.038.219.078.435.112.654Zm.143,1.069h-1.525c-.025-.219-.051-.435-.082-.648h1.525c.027.217.053.435.072.654Zm-3.656,11.153.036-.05a16.067,16.067,0,0,0,2.223-8.768q0-.984-.084-1.92h1.525c.051.6.078,1.226.078,1.86a15.874,15.874,0,0,1-2.3,8.871Z" transform="translate(-6550.971 1856.066)"/></g></svg>