<svg xmlns="http://www.w3.org/2000/svg" xmlns:xlink="http://www.w3.org/1999/xlink" width="32" height="28.444" viewBox="0 0 32 28.444"><defs><style>.a{fill:url(#a);}.b{fill:rgba(255,255,255,0.5);}.c{fill:#fff;}.d{fill:none;}.e,.f{stroke:none;}.f{fill:#fff;}.g{filter:url(#b);}</style><linearGradient id="a" x1="0.015" x2="1" y2="0.655" gradientUnits="objectBoundingBox"><stop offset="0" stop-color="#8d54f6"/><stop offset="1" stop-color="#7327f5"/></linearGradient><filter id="b"><feOffset input="SourceAlpha"/><feGaussianBlur stdDeviation="3" result="c"/><feFlood flood-color="#8a4ff6" flood-opacity="0.502" result="d"/><feComposite operator="out" in="SourceGraphic" in2="c"/><feComposite operator="in" in="d"/><feComposite operator="in" in2="SourceGraphic"/></filter></defs><g transform="translate(-378.5 -512.5)"><path class="a" d="M14.667,0l4.889,8.444-4.889,8.444H4.889L0,8.444,4.889,0Z" transform="translate(395.389 521.389) rotate(90)"/><g data-type="innerShadowGroup"><g class="b" transform="translate(410.5 512.5) rotate(90)"><path class="e" d="M 21.04842567443848 23.5 L 7.396016120910645 23.5 L 0.5812022686004639 12.00000095367432 L 7.396016120910645 0.5000009536743164 L 21.04842567443848 0.5000009536743164 L 27.86323928833008 12.00000095367432 L 21.04842567443848 23.5 Z"/><path class="e" d="M 7.680912017822266 1.000001907348633 L 1.162393569946289 12.00000095367432 L 7.680912017822266 23 L 20.76352882385254 23 L 27.28204727172852 12.00000095367432 L 20.76352882385254 1.000001907348633 L 7.680912017822266 1.000001907348633 M 7.111110687255859 1.9073486328125e-06 L 21.33333015441895 1.9073486328125e-06 L 28.4444408416748 12.00000095367432 L 21.33333015441895 24 L 7.111110687255859 24 L 0 12.00000095367432 L 7.111110687255859 1.9073486328125e-06 Z"/></g><g class="g" transform="matrix(1, 0, 0, 1, 378.5, 512.5)"><g class="c" transform="translate(32) rotate(90)"><path class="e" d="M 21.04842567443848 23.5 L 7.396016120910645 23.5 L 0.5812022686004639 12.00000095367432 L 7.396016120910645 0.5000009536743164 L 21.04842567443848 0.5000009536743164 L 27.86323928833008 12.00000095367432 L 21.04842567443848 23.5 Z"/><path class="e" d="M 7.680912017822266 1.000001907348633 L 1.162393569946289 12.00000095367432 L 7.680912017822266 23 L 20.76352882385254 23 L 27.28204727172852 12.00000095367432 L 20.76352882385254 1.000001907348633 L 7.680912017822266 1.000001907348633 M 7.111110687255859 1.9073486328125e-06 L 21.33333015441895 1.9073486328125e-06 L 28.4444408416748 12.00000095367432 L 21.33333015441895 24 L 7.111110687255859 24 L 0 12.00000095367432 L 7.111110687255859 1.9073486328125e-06 Z"/></g></g><g class="d" transform="translate(410.5 512.5) rotate(90)"><path class="e" d="M 21.04842567443848 23.5 L 7.396016120910645 23.5 L 0.5812022686004639 12.00000095367432 L 7.396016120910645 0.5000009536743164 L 21.04842567443848 0.5000009536743164 L 27.86323928833008 12.00000095367432 L 21.04842567443848 23.5 Z"/><path class="f" d="M 7.680912017822266 1.000001907348633 L 1.162393569946289 12.00000095367432 L 7.680912017822266 23 L 20.76352882385254 23 L 27.28204727172852 12.00000095367432 L 20.76352882385254 1.000001907348633 L 7.680912017822266 1.000001907348633 M 7.111110687255859 1.9073486328125e-06 L 21.33333015441895 1.9073486328125e-06 L 28.4444408416748 12.00000095367432 L 21.33333015441895 24 L 7.111110687255859 24 L 0 12.00000095367432 L 7.111110687255859 1.9073486328125e-06 Z"/></g></g></g></svg>