<svg xmlns="http://www.w3.org/2000/svg" xmlns:xlink="http://www.w3.org/1999/xlink" width="32" height="28.444" viewBox="0 0 32 28.444"><defs><style>.a{fill:url(#a);}.b{fill:rgba(255,255,255,0.5);}.c{fill:#fff;}.d{fill:none;}.e,.f{stroke:none;}.f{fill:#fff;}.g{filter:url(#b);}</style><linearGradient id="a" x1="0.985" x2="0" y2="0.655" gradientUnits="objectBoundingBox"><stop offset="0" stop-color="#8d54f6"/><stop offset="1" stop-color="#7327f5"/></linearGradient><filter id="b"><feOffset input="SourceAlpha"/><feGaussianBlur stdDeviation="3" result="c"/><feFlood flood-color="#8a4ff6" flood-opacity="0.502" result="d"/><feComposite operator="out" in="SourceGraphic" in2="c"/><feComposite operator="in" in="d"/><feComposite operator="in" in2="SourceGraphic"/></filter></defs><path class="a" d="M14.667,0l4.889,8.444-4.889,8.444H4.889L0,8.444,4.889,0Z" transform="translate(15.111 28.444) rotate(-90)"/><g data-type="innerShadowGroup"><g class="b" transform="translate(0 28.444) rotate(-90)"><path class="e" d="M 21.0483341217041 23.49989891052246 L 7.395985126495361 23.49989891052246 L 0.5812011957168579 11.99994945526123 L 7.395985126495361 0.499999463558197 L 21.0483341217041 0.499999463558197 L 27.86311721801758 11.99994945526123 L 21.0483341217041 23.49989891052246 Z"/><path class="e" d="M 7.680881500244141 1 L 1.162393569946289 11.99994945526123 L 7.680881500244141 22.99989891052246 L 20.7634391784668 22.99989891052246 L 27.28192520141602 11.99994945526123 L 20.7634391784668 1 L 7.680881500244141 1 M 7.111080169677734 0 L 21.3332405090332 0 L 28.4443187713623 11.99994945526123 L 21.3332405090332 23.99989891052246 L 7.111080169677734 23.99989891052246 L 0 11.99994945526123 L 7.111080169677734 0 Z"/></g><g class="g" transform="matrix(1, 0, 0, 1, 0, 0)"><g class="c" transform="translate(0 28.44) rotate(-90)"><path class="e" d="M 21.0483341217041 23.49989891052246 L 7.395985126495361 23.49989891052246 L 0.5812011957168579 11.99994945526123 L 7.395985126495361 0.499999463558197 L 21.0483341217041 0.499999463558197 L 27.86311721801758 11.99994945526123 L 21.0483341217041 23.49989891052246 Z"/><path class="e" d="M 7.680881500244141 1 L 1.162393569946289 11.99994945526123 L 7.680881500244141 22.99989891052246 L 20.7634391784668 22.99989891052246 L 27.28192520141602 11.99994945526123 L 20.7634391784668 1 L 7.680881500244141 1 M 7.111080169677734 0 L 21.3332405090332 0 L 28.4443187713623 11.99994945526123 L 21.3332405090332 23.99989891052246 L 7.111080169677734 23.99989891052246 L 0 11.99994945526123 L 7.111080169677734 0 Z"/></g></g><g class="d" transform="translate(0 28.444) rotate(-90)"><path class="e" d="M 21.0483341217041 23.49989891052246 L 7.395985126495361 23.49989891052246 L 0.5812011957168579 11.99994945526123 L 7.395985126495361 0.499999463558197 L 21.0483341217041 0.499999463558197 L 27.86311721801758 11.99994945526123 L 21.0483341217041 23.49989891052246 Z"/><path class="f" d="M 7.680881500244141 1 L 1.162393569946289 11.99994945526123 L 7.680881500244141 22.99989891052246 L 20.7634391784668 22.99989891052246 L 27.28192520141602 11.99994945526123 L 20.7634391784668 1 L 7.680881500244141 1 M 7.111080169677734 0 L 21.3332405090332 0 L 28.4443187713623 11.99994945526123 L 21.3332405090332 23.99989891052246 L 7.111080169677734 23.99989891052246 L 0 11.99994945526123 L 7.111080169677734 0 Z"/></g></g></svg>