<svg xmlns="http://www.w3.org/2000/svg" width="18" height="18" viewBox="0 0 18 18"><defs><style>.a,.b{fill:#fff;}.a{opacity:0;}</style></defs><g transform="translate(-487 -1104)"><rect class="a" width="18" height="18" transform="translate(487 1122) rotate(-90)"/><path class="b" d="M17.125,10.142H6.747L9.924,6.405A.846.846,0,0,0,9.81,5.2a.889.889,0,0,0-1.234.111L4.2,10.451a1.016,1.016,0,0,0-.079.129.108.108,0,0,1-.061.111A.842.842,0,0,0,4,11H4a.842.842,0,0,0,.061.309.108.108,0,0,0,.061.111,1.016,1.016,0,0,0,.079.129L8.576,16.69A.892.892,0,0,0,9.81,16.8a.845.845,0,0,0,.114-1.208L6.747,11.856H17.125a.857.857,0,1,0,0-1.714Z" transform="translate(507 1123.999) rotate(180)"/></g></svg>