<svg xmlns="http://www.w3.org/2000/svg" xmlns:xlink="http://www.w3.org/1999/xlink" width="30" height="30" viewBox="0 0 30 30"><defs><style>.a,.e{fill:none;}.b{fill:url(#a);}.c{fill:rgba(255,255,255,0.5);}.d{fill:#fff;}.f,.g{stroke:none;}.g{fill:#fff;}.h{filter:url(#b);}</style><linearGradient id="a" x1="0.015" x2="1" y2="0.655" gradientUnits="objectBoundingBox"><stop offset="0" stop-color="#8d54f6"/><stop offset="1" stop-color="#7327f5"/></linearGradient><filter id="b"><feOffset input="SourceAlpha"/><feGaussianBlur stdDeviation="3" result="c"/><feFlood flood-color="#8a4ff6" flood-opacity="0.502" result="d"/><feComposite operator="out" in="SourceGraphic" in2="c"/><feComposite operator="in" in="d"/><feComposite operator="in" in2="SourceGraphic"/></filter></defs><g transform="translate(-718 -1061)"><rect class="a" width="30" height="30" transform="translate(718 1061)"/><g transform="translate(34 1)"><path class="b" d="M140.379,53v7.938a2.968,2.968,0,0,0,2.968,2.918h8.18v12.81a3.981,3.981,0,0,1-3.981,3.981H131.981A3.981,3.981,0,0,1,128,76.667V56.981A3.981,3.981,0,0,1,131.981,53Z" transform="translate(558 1009.353)"/><g data-type="innerShadowGroup"><g class="c" transform="translate(561.137 1007)"><path class="f" d="M 147.5454406738281 80.14730072021484 L 131.9814910888672 80.14730072021484 C 130.0617828369141 80.14730072021484 128.5 78.58589172363281 128.5 76.66665649414062 L 128.5 56.98064422607422 C 128.5 55.0614128112793 130.0617828369141 53.50000381469727 131.9814910888672 53.50000381469727 L 139.8787841796875 53.50000381469727 L 139.8787841796875 60.88888549804688 L 139.8791961669922 60.94192504882812 C 139.8940734863281 61.86028289794922 140.2613677978516 62.71738433837891 140.9134521484375 63.35946273803711 C 141.5662841796875 64.00226593017578 142.4304656982422 64.35626220703125 143.3468017578125 64.35626220703125 L 151.0269317626953 64.35626220703125 L 151.0269317626953 76.66665649414062 C 151.0269317626953 78.58589172363281 149.4651336669922 80.14730072021484 147.5454406738281 80.14730072021484 Z M 150.1819000244141 62.1982536315918 L 143.3468017578125 62.1982536315918 L 143.320556640625 62.19804382324219 C 142.6148223876953 62.18658447265625 142.0370483398438 61.59927368164062 142.0370483398438 60.88888549804688 L 142.0370483398438 54.39737701416016 L 150.1819000244141 62.1982536315918 Z"/><path class="f" d="M 131.9814910888672 54.00000762939453 C 130.3374938964844 54.00000762939453 129 55.33711242675781 129 56.98064422607422 L 129 76.66665649414062 C 129 78.31019592285156 130.3374938964844 79.64730834960938 131.9814910888672 79.64730834960938 L 147.5454406738281 79.64730834960938 C 149.1894378662109 79.64730834960938 150.5269317626953 78.31019592285156 150.5269317626953 76.66665649414062 L 150.5269317626953 64.85626220703125 L 143.3468017578125 64.85626220703125 C 142.2983551025391 64.85626220703125 141.3096008300781 64.45122528076172 140.5626525878906 63.71574401855469 C 139.8165435791016 62.98108673095703 139.3962707519531 62.00033569335938 139.3793029785156 60.95417785644531 L 139.3787841796875 60.88888549804688 L 139.3787841796875 54.00000762939453 L 131.9814910888672 54.00000762939453 M 142.5370483398438 55.56858825683594 L 142.5370483398438 60.88888549804688 C 142.5370483398438 61.32695770263672 142.8924255371094 61.68932342529297 143.3299255371094 61.69810485839844 L 143.3500671386719 61.69825744628906 L 148.9369812011719 61.69825744628906 L 142.5370483398438 55.56858825683594 M 131.9814910888672 53.00000762939453 L 140.3787841796875 53.00000762939453 L 140.3791809082031 60.93795776367188 C 140.4053955078125 62.55416107177734 141.7239990234375 63.85626220703125 143.3468017578125 63.85626220703125 L 151.5269317626953 63.85626220703125 L 151.5269317626953 76.66665649414062 C 151.5269317626953 78.86510467529297 149.7443542480469 80.64730834960938 147.5454406738281 80.64730834960938 L 131.9814910888672 80.64730834960938 C 129.7825775146484 80.64730834960938 128 78.86510467529297 128 76.66665649414062 L 128 56.98064422607422 C 128 54.78219604492188 129.7825775146484 53.00000762939453 131.9814910888672 53.00000762939453 Z M 141.5370483398438 53.23300170898438 C 141.5559997558594 53.24775695800781 141.5744781494141 53.26332092285156 141.592529296875 53.27973175048828 L 141.6105804443359 53.29657745361328 L 151.0196838378906 62.30832672119141 C 151.0585327148438 62.34550476074219 151.0941314697266 62.38592529296875 151.1261291503906 62.42913055419922 C 151.2040405273438 62.51065063476562 151.272216796875 62.60096740722656 151.3292541503906 62.69825744628906 L 143.3168792724609 62.69803619384766 C 142.3311462402344 62.68205261230469 141.5370483398438 61.878173828125 141.5370483398438 60.88888549804688 L 141.5370483398438 53.23300170898438 Z"/></g><g class="h" transform="matrix(1, 0, 0, 1, 684, 1060)"><g class="d" transform="translate(-122.86 -53)"><path class="f" d="M 147.5454406738281 80.14730072021484 L 131.9814910888672 80.14730072021484 C 130.0617828369141 80.14730072021484 128.5 78.58589172363281 128.5 76.66665649414062 L 128.5 56.98064422607422 C 128.5 55.0614128112793 130.0617828369141 53.50000381469727 131.9814910888672 53.50000381469727 L 139.8787841796875 53.50000381469727 L 139.8787841796875 60.88888549804688 L 139.8791961669922 60.94192504882812 C 139.8940734863281 61.86028289794922 140.2613677978516 62.71738433837891 140.9134521484375 63.35946273803711 C 141.5662841796875 64.00226593017578 142.4304656982422 64.35626220703125 143.3468017578125 64.35626220703125 L 151.0269317626953 64.35626220703125 L 151.0269317626953 76.66665649414062 C 151.0269317626953 78.58589172363281 149.4651336669922 80.14730072021484 147.5454406738281 80.14730072021484 Z M 150.1819000244141 62.1982536315918 L 143.3468017578125 62.1982536315918 L 143.320556640625 62.19804382324219 C 142.6148223876953 62.18658447265625 142.0370483398438 61.59927368164062 142.0370483398438 60.88888549804688 L 142.0370483398438 54.39737701416016 L 150.1819000244141 62.1982536315918 Z"/><path class="f" d="M 131.9814910888672 54.00000762939453 C 130.3374938964844 54.00000762939453 129 55.33711242675781 129 56.98064422607422 L 129 76.66665649414062 C 129 78.31019592285156 130.3374938964844 79.64730834960938 131.9814910888672 79.64730834960938 L 147.5454406738281 79.64730834960938 C 149.1894378662109 79.64730834960938 150.5269317626953 78.31019592285156 150.5269317626953 76.66665649414062 L 150.5269317626953 64.85626220703125 L 143.3468017578125 64.85626220703125 C 142.2983551025391 64.85626220703125 141.3096008300781 64.45122528076172 140.5626525878906 63.71574401855469 C 139.8165435791016 62.98108673095703 139.3962707519531 62.00033569335938 139.3793029785156 60.95417785644531 L 139.3787841796875 60.88888549804688 L 139.3787841796875 54.00000762939453 L 131.9814910888672 54.00000762939453 M 142.5370483398438 55.56858825683594 L 142.5370483398438 60.88888549804688 C 142.5370483398438 61.32695770263672 142.8924255371094 61.68932342529297 143.3299255371094 61.69810485839844 L 143.3500671386719 61.69825744628906 L 148.9369812011719 61.69825744628906 L 142.5370483398438 55.56858825683594 M 131.9814910888672 53.00000762939453 L 140.3787841796875 53.00000762939453 L 140.3791809082031 60.93795776367188 C 140.4053955078125 62.55416107177734 141.7239990234375 63.85626220703125 143.3468017578125 63.85626220703125 L 151.5269317626953 63.85626220703125 L 151.5269317626953 76.66665649414062 C 151.5269317626953 78.86510467529297 149.7443542480469 80.64730834960938 147.5454406738281 80.64730834960938 L 131.9814910888672 80.64730834960938 C 129.7825775146484 80.64730834960938 128 78.86510467529297 128 76.66665649414062 L 128 56.98064422607422 C 128 54.78219604492188 129.7825775146484 53.00000762939453 131.9814910888672 53.00000762939453 Z M 141.5370483398438 53.23300170898438 C 141.5559997558594 53.24775695800781 141.5744781494141 53.26332092285156 141.592529296875 53.27973175048828 L 141.6105804443359 53.29657745361328 L 151.0196838378906 62.30832672119141 C 151.0585327148438 62.34550476074219 151.0941314697266 62.38592529296875 151.1261291503906 62.42913055419922 C 151.2040405273438 62.51065063476562 151.272216796875 62.60096740722656 151.3292541503906 62.69825744628906 L 143.3168792724609 62.69803619384766 C 142.3311462402344 62.68205261230469 141.5370483398438 61.878173828125 141.5370483398438 60.88888549804688 L 141.5370483398438 53.23300170898438 Z"/></g></g><g class="e" transform="translate(561.137 1007)"><path class="f" d="M 147.5454406738281 80.14730072021484 L 131.9814910888672 80.14730072021484 C 130.0617828369141 80.14730072021484 128.5 78.58589172363281 128.5 76.66665649414062 L 128.5 56.98064422607422 C 128.5 55.0614128112793 130.0617828369141 53.50000381469727 131.9814910888672 53.50000381469727 L 139.8787841796875 53.50000381469727 L 139.8787841796875 60.88888549804688 L 139.8791961669922 60.94192504882812 C 139.8940734863281 61.86028289794922 140.2613677978516 62.71738433837891 140.9134521484375 63.35946273803711 C 141.5662841796875 64.00226593017578 142.4304656982422 64.35626220703125 143.3468017578125 64.35626220703125 L 151.0269317626953 64.35626220703125 L 151.0269317626953 76.66665649414062 C 151.0269317626953 78.58589172363281 149.4651336669922 80.14730072021484 147.5454406738281 80.14730072021484 Z M 150.1819000244141 62.1982536315918 L 143.3468017578125 62.1982536315918 L 143.320556640625 62.19804382324219 C 142.6148223876953 62.18658447265625 142.0370483398438 61.59927368164062 142.0370483398438 60.88888549804688 L 142.0370483398438 54.39737701416016 L 150.1819000244141 62.1982536315918 Z"/><path class="g" d="M 131.9814910888672 54.00000762939453 C 130.3374938964844 54.00000762939453 129 55.33711242675781 129 56.98064422607422 L 129 76.66665649414062 C 129 78.31019592285156 130.3374938964844 79.64730834960938 131.9814910888672 79.64730834960938 L 147.5454406738281 79.64730834960938 C 149.1894378662109 79.64730834960938 150.5269317626953 78.31019592285156 150.5269317626953 76.66665649414062 L 150.5269317626953 64.85626220703125 L 143.3468017578125 64.85626220703125 C 142.2983551025391 64.85626220703125 141.3096008300781 64.45122528076172 140.5626525878906 63.71574401855469 C 139.8165435791016 62.98108673095703 139.3962707519531 62.00033569335938 139.3793029785156 60.95417785644531 L 139.3787841796875 60.88888549804688 L 139.3787841796875 54.00000762939453 L 131.9814910888672 54.00000762939453 M 142.5370483398438 55.56858825683594 L 142.5370483398438 60.88888549804688 C 142.5370483398438 61.32695770263672 142.8924255371094 61.68932342529297 143.3299255371094 61.69810485839844 L 143.3500671386719 61.69825744628906 L 148.9369812011719 61.69825744628906 L 142.5370483398438 55.56858825683594 M 131.9814910888672 53.00000762939453 L 140.3787841796875 53.00000762939453 L 140.3791809082031 60.93795776367188 C 140.4053955078125 62.55416107177734 141.7239990234375 63.85626220703125 143.3468017578125 63.85626220703125 L 151.5269317626953 63.85626220703125 L 151.5269317626953 76.66665649414062 C 151.5269317626953 78.86510467529297 149.7443542480469 80.64730834960938 147.5454406738281 80.64730834960938 L 131.9814910888672 80.64730834960938 C 129.7825775146484 80.64730834960938 128 78.86510467529297 128 76.66665649414062 L 128 56.98064422607422 C 128 54.78219604492188 129.7825775146484 53.00000762939453 131.9814910888672 53.00000762939453 Z M 141.5370483398438 53.23300170898438 C 141.5559997558594 53.24775695800781 141.5744781494141 53.26332092285156 141.592529296875 53.27973175048828 L 141.6105804443359 53.29657745361328 L 151.0196838378906 62.30832672119141 C 151.0585327148438 62.34550476074219 151.0941314697266 62.38592529296875 151.1261291503906 62.42913055419922 C 151.2040405273438 62.51065063476562 151.272216796875 62.60096740722656 151.3292541503906 62.69825744628906 L 143.3168792724609 62.69803619384766 C 142.3311462402344 62.68205261230469 141.5370483398438 61.878173828125 141.5370483398438 60.88888549804688 L 141.5370483398438 53.23300170898438 Z"/></g></g><rect class="d" width="12.548" height="1.568" rx="0.784" transform="translate(693.058 1076.469)"/><rect class="d" width="7.842" height="1.568" rx="0.784" transform="translate(693.058 1081.174)"/></g></g></svg>