<svg xmlns="http://www.w3.org/2000/svg" width="59.11" height="14" viewBox="0 0 59.11 14"><defs><style>.a,.b,.c,.d,.e,.f,.g,.h{fill:#252b3a;}.b{opacity:0.6;}.c{opacity:0.8;}.d{opacity:0.4;}.e{opacity:0.9;}.f{opacity:0.5;}.g{opacity:0.7;}.h{opacity:0.3;}</style></defs><g transform="translate(-866.168 -2850)"><path class="a" d="M294.369,53.886l-6.529-6.577a.376.376,0,0,0-.532.532l6.287,6.287-6.287,6.432a.376.376,0,1,0,.532.532l6.529-6.674A.379.379,0,0,0,294.369,53.886Z" transform="translate(630.8 2802.8)"/><path class="b" d="M294.369,53.886l-6.529-6.577a.376.376,0,0,0-.532.532l6.287,6.287-6.287,6.432a.376.376,0,1,0,.532.532l6.529-6.674A.379.379,0,0,0,294.369,53.886Z" transform="translate(600.8 2802.8)"/><path class="c" d="M294.369,53.886l-6.529-6.577a.376.376,0,0,0-.532.532l6.287,6.287-6.287,6.432a.376.376,0,1,0,.532.532l6.529-6.674A.379.379,0,0,0,294.369,53.886Z" transform="translate(616.245 2802.8)"/><path class="d" d="M294.369,53.886l-6.529-6.577a.376.376,0,0,0-.532.532l6.287,6.287-6.287,6.432a.376.376,0,1,0,.532.532l6.529-6.674A.379.379,0,0,0,294.369,53.886Z" transform="translate(586.245 2802.8)"/><path class="e" d="M294.369,53.886l-6.529-6.577a.376.376,0,0,0-.532.532l6.287,6.287-6.287,6.432a.376.376,0,1,0,.532.532l6.529-6.674A.379.379,0,0,0,294.369,53.886Z" transform="translate(623.522 2802.8)"/><path class="f" d="M294.369,53.886l-6.529-6.577a.376.376,0,0,0-.532.532l6.287,6.287-6.287,6.432a.376.376,0,1,0,.532.532l6.529-6.674A.379.379,0,0,0,294.369,53.886Z" transform="translate(593.522 2802.8)"/><path class="g" d="M294.369,53.886l-6.529-6.577a.376.376,0,0,0-.532.532l6.287,6.287-6.287,6.432a.376.376,0,1,0,.532.532l6.529-6.674A.379.379,0,0,0,294.369,53.886Z" transform="translate(608.968 2802.8)"/><path class="h" d="M294.369,53.886l-6.529-6.577a.376.376,0,0,0-.532.532l6.287,6.287-6.287,6.432a.376.376,0,1,0,.532.532l6.529-6.674A.379.379,0,0,0,294.369,53.886Z" transform="translate(578.968 2802.8)"/></g></svg>