<svg xmlns="http://www.w3.org/2000/svg" xmlns:xlink="http://www.w3.org/1999/xlink" width="30.001" height="30" viewBox="0 0 30.001 30"><defs><style>.a,.e{fill:none;}.b{fill:url(#a);}.c{fill:rgba(255,255,255,0.5);}.d{fill:#fff;}.f,.g{stroke:none;}.g{fill:#fff;}.h{filter:url(#c);}</style><linearGradient id="a" x1="0.015" x2="1" y2="0.655" gradientUnits="objectBoundingBox"><stop offset="0" stop-color="#8d54f6"/><stop offset="1" stop-color="#7327f5"/></linearGradient><filter id="c"><feOffset input="SourceAlpha"/><feGaussianBlur stdDeviation="3" result="d"/><feFlood flood-color="#8a4ff6" flood-opacity="0.502" result="e"/><feComposite operator="out" in="SourceGraphic" in2="d"/><feComposite operator="in" in="e"/><feComposite operator="in" in2="SourceGraphic"/></filter></defs><g transform="translate(-228.999 -1173)"><rect class="a" width="30" height="30" transform="translate(229 1173)"/><g transform="translate(87.717 56.011)"><g transform="translate(141.282 1121.653)"><path class="b" d="M107.889,519.063a1.614,1.614,0,0,0,1.477-2.06c-1.2-4.739-4.728-9.322-11.2-9.322-6.59,0-10.014,4.583-11.2,9.322a1.616,1.616,0,0,0,1.48,2.06Z" transform="translate(-86.915 -496.489)"/><path class="b" d="M334.533,5.924m-5.924,0A5.924,5.924,0,1,0,334.533,0a5.924,5.924,0,0,0-5.924,5.924Z" transform="translate(-323.28)"/></g><g transform="translate(144.524 1118.99)"><g data-type="innerShadowGroup"><g class="c"><path class="f" d="M 24.93750190734863 26.33984184265137 L 1.822262763977051 26.33984184265137 C 1.429242849349976 26.33984184265137 1.072542786598206 26.1600513458252 0.8178628087043762 25.8336009979248 C 0.5330528020858765 25.46852111816406 0.4322428107261658 24.97457122802734 0.5482128262519836 24.51227188110352 C 1.197222828865051 21.91417121887207 2.36296272277832 19.6137523651123 3.919522762298584 17.85922241210938 C 5.73218297958374 15.81603145599365 8.030202865600586 14.52960205078125 10.74975299835205 14.03565216064453 L 12.40963268280029 13.73417186737061 L 10.85354328155518 13.08251190185547 C 8.412642478942871 12.06031227111816 6.835453033447266 9.690032005310059 6.835453033447266 7.043941974639893 C 6.835453033447266 3.435601949691772 9.770612716674805 0.500001847743988 13.37842273712158 0.500001847743988 C 16.98663330078125 0.500001847743988 19.92212295532227 3.435601949691772 19.92212295532227 7.043941974639893 C 19.92212295532227 9.695712089538574 18.34010314941406 12.06805229187012 15.89175319671631 13.08774185180664 L 14.3408031463623 13.73368167877197 L 15.99256324768066 14.0408821105957 C 18.67996215820312 14.54069232940674 20.9682731628418 15.82904148101807 22.79392242431641 17.87014198303223 C 24.37666320800781 19.63966178894043 25.55761337280273 21.93679237365723 26.2091121673584 24.51320266723633 C 26.32601356506348 24.97485160827637 26.2262020111084 25.46823120117188 25.94218254089355 25.83315277099609 C 25.68785285949707 26.15989112854004 25.33105278015137 26.33984184265137 24.93750190734863 26.33984184265137 Z"/><path class="f" d="M 24.93750190734863 25.83984184265137 C 25.25583267211914 25.83984184265137 25.45639228820801 25.64323234558105 25.5476131439209 25.52604103088379 C 25.73763275146484 25.28191184997559 25.80373191833496 24.94921112060547 25.72437286376953 24.63577270507812 C 25.09258270263672 22.13732147216797 23.95038223266602 19.91306114196777 22.4212532043457 18.20348167419434 C 20.67101287841797 16.2466926574707 18.47732353210449 15.01158142089844 15.90113258361816 14.53245162963867 L 13.38692188262939 14.06484889984131 L 10.83910274505615 14.52760219573975 C 8.232362747192383 15.00106143951416 6.030122756958008 16.23362159729004 4.293552875518799 18.1910514831543 C 2.790212869644165 19.88558197021484 1.662872791290283 22.11316108703613 1.033182859420776 24.6339225769043 C 0.9544128179550171 24.94797134399414 1.02128279209137 25.2814826965332 1.212082862854004 25.52604103088379 C 1.303512811660767 25.64324188232422 1.504352807998657 25.83984184265137 1.822262763977051 25.83984184265137 L 24.93750190734863 25.83984184265137 M 13.37250518798828 13.59532737731934 L 15.69951248168945 12.62617206573486 C 17.96091270446777 11.68434143066406 19.42212295532227 9.493191719055176 19.42212295532227 7.043941974639893 C 19.42212295532227 3.711301803588867 16.71093368530273 1.000001907348633 13.37842273712158 1.000001907348633 C 10.0463228225708 1.000001907348633 7.335453033447266 3.711301803588867 7.335453033447266 7.043941974639893 C 7.335453033447266 9.487932205200195 8.792192459106445 11.6771821975708 11.04668235778809 12.62132167816162 L 13.37250518798828 13.59532737731934 M 24.93750190734863 26.83984184265137 L 1.822262763977051 26.83984184265137 C 0.6225628256797791 26.83984184265137 -0.246577188372612 25.625732421875 0.06323280930519104 24.39062118530273 C 1.298092842102051 19.44726181030273 4.582032680511475 14.64770221710205 10.66040325164795 13.54370212554932 C 8.120363235473633 12.47998142242432 6.335453033447266 9.969971656799316 6.335453033447266 7.043941974639893 C 6.335453033447266 3.15356183052063 9.489012718200684 1.874999952633516e-06 13.37842273712158 1.874999952633516e-06 C 17.26880264282227 1.874999952633516e-06 20.42212295532227 3.15356183052063 20.42212295532227 7.043941974639893 C 20.42212295532227 9.974612236022949 18.63159370422363 12.48828220367432 16.08398246765137 13.54931163787842 C 22.07251358032227 14.66308212280273 25.44580268859863 19.45508193969727 26.6938533782959 24.39062118530273 C 27.0063533782959 25.62475204467773 26.1384334564209 26.83984184265137 24.93750190734863 26.83984184265137 Z"/></g><g class="h" transform="matrix(1, 0, 0, 1, -3.24, -2)"><g class="d" transform="translate(3.24 2)"><path class="f" d="M 24.93750190734863 26.33984184265137 L 1.822262763977051 26.33984184265137 C 1.429242849349976 26.33984184265137 1.072542786598206 26.1600513458252 0.8178628087043762 25.8336009979248 C 0.5330528020858765 25.46852111816406 0.4322428107261658 24.97457122802734 0.5482128262519836 24.51227188110352 C 1.197222828865051 21.91417121887207 2.36296272277832 19.6137523651123 3.919522762298584 17.85922241210938 C 5.73218297958374 15.81603145599365 8.030202865600586 14.52960205078125 10.74975299835205 14.03565216064453 L 12.40963268280029 13.73417186737061 L 10.85354328155518 13.08251190185547 C 8.412642478942871 12.06031227111816 6.835453033447266 9.690032005310059 6.835453033447266 7.043941974639893 C 6.835453033447266 3.435601949691772 9.770612716674805 0.500001847743988 13.37842273712158 0.500001847743988 C 16.98663330078125 0.500001847743988 19.92212295532227 3.435601949691772 19.92212295532227 7.043941974639893 C 19.92212295532227 9.695712089538574 18.34010314941406 12.06805229187012 15.89175319671631 13.08774185180664 L 14.3408031463623 13.73368167877197 L 15.99256324768066 14.0408821105957 C 18.67996215820312 14.54069232940674 20.9682731628418 15.82904148101807 22.79392242431641 17.87014198303223 C 24.37666320800781 19.63966178894043 25.55761337280273 21.93679237365723 26.2091121673584 24.51320266723633 C 26.32601356506348 24.97485160827637 26.2262020111084 25.46823120117188 25.94218254089355 25.83315277099609 C 25.68785285949707 26.15989112854004 25.33105278015137 26.33984184265137 24.93750190734863 26.33984184265137 Z"/><path class="f" d="M 24.93750190734863 25.83984184265137 C 25.25583267211914 25.83984184265137 25.45639228820801 25.64323234558105 25.5476131439209 25.52604103088379 C 25.73763275146484 25.28191184997559 25.80373191833496 24.94921112060547 25.72437286376953 24.63577270507812 C 25.09258270263672 22.13732147216797 23.95038223266602 19.91306114196777 22.4212532043457 18.20348167419434 C 20.67101287841797 16.2466926574707 18.47732353210449 15.01158142089844 15.90113258361816 14.53245162963867 L 13.38692188262939 14.06484889984131 L 10.83910274505615 14.52760219573975 C 8.232362747192383 15.00106143951416 6.030122756958008 16.23362159729004 4.293552875518799 18.1910514831543 C 2.790212869644165 19.88558197021484 1.662872791290283 22.11316108703613 1.033182859420776 24.6339225769043 C 0.9544128179550171 24.94797134399414 1.02128279209137 25.2814826965332 1.212082862854004 25.52604103088379 C 1.303512811660767 25.64324188232422 1.504352807998657 25.83984184265137 1.822262763977051 25.83984184265137 L 24.93750190734863 25.83984184265137 M 13.37250518798828 13.59532737731934 L 15.69951248168945 12.62617206573486 C 17.96091270446777 11.68434143066406 19.42212295532227 9.493191719055176 19.42212295532227 7.043941974639893 C 19.42212295532227 3.711301803588867 16.71093368530273 1.000001907348633 13.37842273712158 1.000001907348633 C 10.0463228225708 1.000001907348633 7.335453033447266 3.711301803588867 7.335453033447266 7.043941974639893 C 7.335453033447266 9.487932205200195 8.792192459106445 11.6771821975708 11.04668235778809 12.62132167816162 L 13.37250518798828 13.59532737731934 M 24.93750190734863 26.83984184265137 L 1.822262763977051 26.83984184265137 C 0.6225628256797791 26.83984184265137 -0.246577188372612 25.625732421875 0.06323280930519104 24.39062118530273 C 1.298092842102051 19.44726181030273 4.582032680511475 14.64770221710205 10.66040325164795 13.54370212554932 C 8.120363235473633 12.47998142242432 6.335453033447266 9.969971656799316 6.335453033447266 7.043941974639893 C 6.335453033447266 3.15356183052063 9.489012718200684 1.874999952633516e-06 13.37842273712158 1.874999952633516e-06 C 17.26880264282227 1.874999952633516e-06 20.42212295532227 3.15356183052063 20.42212295532227 7.043941974639893 C 20.42212295532227 9.974612236022949 18.63159370422363 12.48828220367432 16.08398246765137 13.54931163787842 C 22.07251358032227 14.66308212280273 25.44580268859863 19.45508193969727 26.6938533782959 24.39062118530273 C 27.0063533782959 25.62475204467773 26.1384334564209 26.83984184265137 24.93750190734863 26.83984184265137 Z"/></g></g><g class="e"><path class="f" d="M 24.93750190734863 26.33984184265137 L 1.822262763977051 26.33984184265137 C 1.429242849349976 26.33984184265137 1.072542786598206 26.1600513458252 0.8178628087043762 25.8336009979248 C 0.5330528020858765 25.46852111816406 0.4322428107261658 24.97457122802734 0.5482128262519836 24.51227188110352 C 1.197222828865051 21.91417121887207 2.36296272277832 19.6137523651123 3.919522762298584 17.85922241210938 C 5.73218297958374 15.81603145599365 8.030202865600586 14.52960205078125 10.74975299835205 14.03565216064453 L 12.40963268280029 13.73417186737061 L 10.85354328155518 13.08251190185547 C 8.412642478942871 12.06031227111816 6.835453033447266 9.690032005310059 6.835453033447266 7.043941974639893 C 6.835453033447266 3.435601949691772 9.770612716674805 0.500001847743988 13.37842273712158 0.500001847743988 C 16.98663330078125 0.500001847743988 19.92212295532227 3.435601949691772 19.92212295532227 7.043941974639893 C 19.92212295532227 9.695712089538574 18.34010314941406 12.06805229187012 15.89175319671631 13.08774185180664 L 14.3408031463623 13.73368167877197 L 15.99256324768066 14.0408821105957 C 18.67996215820312 14.54069232940674 20.9682731628418 15.82904148101807 22.79392242431641 17.87014198303223 C 24.37666320800781 19.63966178894043 25.55761337280273 21.93679237365723 26.2091121673584 24.51320266723633 C 26.32601356506348 24.97485160827637 26.2262020111084 25.46823120117188 25.94218254089355 25.83315277099609 C 25.68785285949707 26.15989112854004 25.33105278015137 26.33984184265137 24.93750190734863 26.33984184265137 Z"/><path class="g" d="M 24.93750190734863 25.83984184265137 C 25.25583267211914 25.83984184265137 25.45639228820801 25.64323234558105 25.5476131439209 25.52604103088379 C 25.73763275146484 25.28191184997559 25.80373191833496 24.94921112060547 25.72437286376953 24.63577270507812 C 25.09258270263672 22.13732147216797 23.95038223266602 19.91306114196777 22.4212532043457 18.20348167419434 C 20.67101287841797 16.2466926574707 18.47732353210449 15.01158142089844 15.90113258361816 14.53245162963867 L 13.38692188262939 14.06484889984131 L 10.83910274505615 14.52760219573975 C 8.232362747192383 15.00106143951416 6.030122756958008 16.23362159729004 4.293552875518799 18.1910514831543 C 2.790212869644165 19.88558197021484 1.662872791290283 22.11316108703613 1.033182859420776 24.6339225769043 C 0.9544128179550171 24.94797134399414 1.02128279209137 25.2814826965332 1.212082862854004 25.52604103088379 C 1.303512811660767 25.64324188232422 1.504352807998657 25.83984184265137 1.822262763977051 25.83984184265137 L 24.93750190734863 25.83984184265137 M 13.37250518798828 13.59532737731934 L 15.69951248168945 12.62617206573486 C 17.96091270446777 11.68434143066406 19.42212295532227 9.493191719055176 19.42212295532227 7.043941974639893 C 19.42212295532227 3.711301803588867 16.71093368530273 1.000001907348633 13.37842273712158 1.000001907348633 C 10.0463228225708 1.000001907348633 7.335453033447266 3.711301803588867 7.335453033447266 7.043941974639893 C 7.335453033447266 9.487932205200195 8.792192459106445 11.6771821975708 11.04668235778809 12.62132167816162 L 13.37250518798828 13.59532737731934 M 24.93750190734863 26.83984184265137 L 1.822262763977051 26.83984184265137 C 0.6225628256797791 26.83984184265137 -0.246577188372612 25.625732421875 0.06323280930519104 24.39062118530273 C 1.298092842102051 19.44726181030273 4.582032680511475 14.64770221710205 10.66040325164795 13.54370212554932 C 8.120363235473633 12.47998142242432 6.335453033447266 9.969971656799316 6.335453033447266 7.043941974639893 C 6.335453033447266 3.15356183052063 9.489012718200684 1.874999952633516e-06 13.37842273712158 1.874999952633516e-06 C 17.26880264282227 1.874999952633516e-06 20.42212295532227 3.15356183052063 20.42212295532227 7.043941974639893 C 20.42212295532227 9.974612236022949 18.63159370422363 12.48828220367432 16.08398246765137 13.54931163787842 C 22.07251358032227 14.66308212280273 25.44580268859863 19.45508193969727 26.6938533782959 24.39062118530273 C 27.0063533782959 25.62475204467773 26.1384334564209 26.83984184265137 24.93750190734863 26.83984184265137 Z"/></g></g></g><path class="d" d="M5.23,4.485q.126.587.223,1.062.045.2.082.4t.071.364q.033.163.056.278t.03.145q.022.149-.067.2a.414.414,0,0,1-.2.048.344.344,0,0,1-.108-.026l-.108-.041L3.27,5.785q-.527.312-.958.557l-.368.208q-.182.1-.33.193t-.256.149q-.108.059-.145.074a.253.253,0,0,1-.152.026.319.319,0,0,1-.141-.056.274.274,0,0,1-.093-.108A.2.2,0,0,1,.811,6.7l.037-.145q.03-.115.067-.275T1,5.926q.048-.193.1-.394.111-.46.252-1.04Q.915,4.114.566,3.817L.273,3.568q-.145-.123-.26-.223l-.189-.163-.082-.071A.888.888,0,0,1-.41,2.93a.3.3,0,0,1-.048-.2.259.259,0,0,1,.082-.163.3.3,0,0,1,.149-.074L2.066,2.28,2.92.29a.592.592,0,0,1,.126-.2A.294.294,0,0,1,3.27,0,.248.248,0,0,1,3.4.033a.361.361,0,0,1,.093.078A.657.657,0,0,1,3.555.2q.026.045.041.074l.832,1.99,2.295.215a.516.516,0,0,1,.208.089.206.206,0,0,1,.059.163.281.281,0,0,1-.063.182q-.063.078-.16.189Z" transform="translate(151.794 1135.215)"/></g></g></svg>