<svg xmlns="http://www.w3.org/2000/svg" width="59.109" height="14" viewBox="0 0 59.109 14"><defs><style>.a,.b,.c,.d,.e,.f,.g,.h{fill:#252b3a;}.b{opacity:0.6;}.c{opacity:0.8;}.d{opacity:0.4;}.e{opacity:0.9;}.f{opacity:0.5;}.g{opacity:0.7;}.h{opacity:0.3;}</style></defs><path class="a" d="M287.309,53.886l6.528-6.577a.376.376,0,1,1,.532.532l-6.287,6.287,6.287,6.432a.376.376,0,0,1-.532.532l-6.528-6.673A.379.379,0,0,1,287.309,53.886Z" transform="translate(-287.2 -47.2)"/><path class="b" d="M287.309,53.886l6.528-6.577a.376.376,0,1,1,.532.532l-6.287,6.287,6.287,6.432a.376.376,0,0,1-.532.532l-6.528-6.673A.379.379,0,0,1,287.309,53.886Z" transform="translate(-257.2 -47.2)"/><path class="c" d="M287.309,53.886l6.528-6.577a.376.376,0,1,1,.532.532l-6.287,6.287,6.287,6.432a.376.376,0,0,1-.532.532l-6.528-6.673A.379.379,0,0,1,287.309,53.886Z" transform="translate(-272.645 -47.2)"/><path class="d" d="M287.309,53.886l6.528-6.577a.376.376,0,0,1,.532.532l-6.287,6.287,6.287,6.432a.376.376,0,1,1-.532.532l-6.528-6.673A.379.379,0,0,1,287.309,53.886Z" transform="translate(-242.646 -47.2)"/><path class="e" d="M287.309,53.886l6.528-6.577a.376.376,0,1,1,.532.532l-6.287,6.287,6.287,6.432a.376.376,0,0,1-.532.532l-6.528-6.673A.379.379,0,0,1,287.309,53.886Z" transform="translate(-279.923 -47.2)"/><path class="f" d="M287.309,53.886l6.528-6.577a.376.376,0,1,1,.532.532l-6.287,6.287,6.287,6.432a.376.376,0,0,1-.532.532l-6.528-6.673A.379.379,0,0,1,287.309,53.886Z" transform="translate(-249.923 -47.2)"/><path class="g" d="M287.309,53.886l6.528-6.577a.376.376,0,1,1,.532.532l-6.287,6.287,6.287,6.432a.376.376,0,0,1-.532.532l-6.528-6.673A.379.379,0,0,1,287.309,53.886Z" transform="translate(-265.368 -47.2)"/><path class="h" d="M287.309,53.886l6.528-6.577a.376.376,0,1,1,.532.532l-6.287,6.287,6.287,6.432a.376.376,0,0,1-.532.532l-6.528-6.673A.379.379,0,0,1,287.309,53.886Z" transform="translate(-235.369 -47.2)"/></svg>