<svg xmlns="http://www.w3.org/2000/svg" xmlns:xlink="http://www.w3.org/1999/xlink" width="30" height="29.987" viewBox="0 0 30 29.987"><defs><style>.a,.e{fill:none;}.b{fill:url(#a);}.c{fill:rgba(255,255,255,0.5);}.d{fill:#fff;}.f,.g{stroke:none;}.g{fill:#fff;}.h{filter:url(#b);}</style><linearGradient id="a" x1="0.015" x2="1" y2="0.655" gradientUnits="objectBoundingBox"><stop offset="0" stop-color="#8d54f6"/><stop offset="1" stop-color="#7327f5"/></linearGradient><filter id="b"><feOffset input="SourceAlpha"/><feGaussianBlur stdDeviation="3" result="c"/><feFlood flood-color="#8a4ff6" flood-opacity="0.502" result="d"/><feComposite operator="out" in="SourceGraphic" in2="c"/><feComposite operator="in" in="d"/><feComposite operator="in" in2="SourceGraphic"/></filter></defs><g transform="translate(-1214 -1080)"><rect class="a" width="29.987" height="29.987" transform="translate(1214 1080)"/><path class="b" d="M107.653,39.777l-9.773-5.65a2.986,2.986,0,0,0-3.054,0l-9.672,5.65a3.1,3.1,0,0,0-1.527,2.647v11.2a3.055,3.055,0,0,0,1.527,2.647l9.672,5.6a3.067,3.067,0,0,0,3.054,0l9.672-5.65a3.082,3.082,0,0,0,1.527-2.6l.051-11.2A2.894,2.894,0,0,0,107.653,39.777Z" transform="translate(1130.373 1046.293)"/><g data-type="innerShadowGroup"><g class="c" transform="translate(1133.602 1046.293)"><path class="f" d="M 96.98390197753906 63.193603515625 C 96.54440307617188 63.193603515625 96.03762817382812 63.05812454223633 95.62742614746094 62.83108139038086 L 85.48007965087891 56.95629501342773 C 84.64528656005859 56.47298431396484 84.12669372558594 55.57420349121094 84.12669372558594 54.61069488525391 L 84.12669372558594 42.85635375976562 C 84.12669372558594 41.90712356567383 84.63481903076172 41.02928924560547 85.48621368408203 40.50719451904297 L 95.63323974609375 34.57918548583984 C 96.05360412597656 34.33583450317383 96.52816009521484 34.2066764831543 97.00393676757812 34.2066764831543 C 97.47552490234375 34.2066764831543 97.93269348144531 34.33373641967773 98.32603454589844 34.57410430908203 L 98.33123016357422 34.57728576660156 L 98.33650970458984 34.5803337097168 L 108.594856262207 40.51093292236328 L 108.5985565185547 40.5130729675293 L 108.6022796630859 40.51514434814453 C 109.4307022094727 40.97537612915039 109.9381561279297 41.88544464111328 109.8950653076172 42.83365631103516 L 109.8945922851562 42.84386444091797 L 109.8945541381836 42.85408401489258 L 109.8411331176758 54.60842514038086 C 109.8411254882812 55.51291275024414 109.3202285766602 56.39222717285156 108.4813842773438 56.90657043457031 L 98.33972930908203 62.83142471313477 C 97.92964935302734 63.05826568603516 97.42317962646484 63.193603515625 96.98390197753906 63.193603515625 Z"/><path class="f" d="M 97.00393676757812 34.7066764831543 C 96.61602020263672 34.7066764831543 96.22808074951172 34.81256484985352 95.88545989990234 35.01091384887695 L 85.74322509765625 40.93612670898438 C 85.04386901855469 41.36686706542969 84.62669372558594 42.08403396606445 84.62669372558594 42.85635375976562 L 84.62669372558594 54.61069488525391 C 84.62669372558594 55.39639282226562 85.0496826171875 56.12935638427734 85.73060607910156 56.52356338500977 L 95.87384033203125 62.3959846496582 C 96.21244812011719 62.58244705200195 96.62677001953125 62.693603515625 96.98390197753906 62.693603515625 C 97.34047698974609 62.693603515625 97.75405120849609 62.58279418945312 98.09236145019531 62.39685821533203 L 108.2245025634766 56.47756195068359 C 108.9134826660156 56.05315780639648 109.3411102294922 55.33858871459961 109.3411254882812 54.60614395141602 L 109.3955764770508 42.81095504760742 C 109.4301223754883 42.05068588256836 109.0234298706055 41.32109451293945 108.3594665527344 40.95222473144531 L 108.3446044921875 40.94379425048828 L 98.06531524658203 35.0007438659668 C 97.75050354003906 34.80836486816406 97.38348388671875 34.7066764831543 97.00393676757812 34.7066764831543 M 97.00393676757812 33.7066764831543 C 97.55825805664062 33.7066764831543 98.10590362548828 33.85360336303711 98.58676147460938 34.14746475219727 L 108.845100402832 40.07806396484375 C 109.8068161010742 40.61234283447266 110.4479598999023 41.68092346191406 110.3945465087891 42.85635375976562 L 110.3411102294922 54.61069488525391 C 110.3411102294922 55.73270416259766 109.6999664306641 56.74785614013672 108.7382507324219 57.33557510375977 L 98.58676147460938 63.26617431640625 C 98.10590362548828 63.5333251953125 97.51819610595703 63.693603515625 96.98390197753906 63.693603515625 C 96.44961547851562 63.693603515625 95.86189270019531 63.5333251953125 95.38101959228516 63.26617431640625 L 85.22956085205078 57.38899612426758 C 84.21441650390625 56.80128479003906 83.62669372558594 55.73270416259766 83.62669372558594 54.61069488525391 L 83.62669372558594 42.85635375976562 C 83.62669372558594 41.68092346191406 84.26782989501953 40.66577529907227 85.22956085205078 40.07806396484375 L 95.38101959228516 34.14746475219727 C 95.88860321044922 33.85360336303711 96.44960784912109 33.7066764831543 97.00393676757812 33.7066764831543 Z"/></g><g class="h" transform="matrix(1, 0, 0, 1, 1214, 1080)"><g class="d" transform="translate(-80.4 -33.71)"><path class="f" d="M 96.98390197753906 63.193603515625 C 96.54440307617188 63.193603515625 96.03762817382812 63.05812454223633 95.62742614746094 62.83108139038086 L 85.48007965087891 56.95629501342773 C 84.64528656005859 56.47298431396484 84.12669372558594 55.57420349121094 84.12669372558594 54.61069488525391 L 84.12669372558594 42.85635375976562 C 84.12669372558594 41.90712356567383 84.63481903076172 41.02928924560547 85.48621368408203 40.50719451904297 L 95.63323974609375 34.57918548583984 C 96.05360412597656 34.33583450317383 96.52816009521484 34.2066764831543 97.00393676757812 34.2066764831543 C 97.47552490234375 34.2066764831543 97.93269348144531 34.33373641967773 98.32603454589844 34.57410430908203 L 98.33123016357422 34.57728576660156 L 98.33650970458984 34.5803337097168 L 108.594856262207 40.51093292236328 L 108.5985565185547 40.5130729675293 L 108.6022796630859 40.51514434814453 C 109.4307022094727 40.97537612915039 109.9381561279297 41.88544464111328 109.8950653076172 42.83365631103516 L 109.8945922851562 42.84386444091797 L 109.8945541381836 42.85408401489258 L 109.8411331176758 54.60842514038086 C 109.8411254882812 55.51291275024414 109.3202285766602 56.39222717285156 108.4813842773438 56.90657043457031 L 98.33972930908203 62.83142471313477 C 97.92964935302734 63.05826568603516 97.42317962646484 63.193603515625 96.98390197753906 63.193603515625 Z"/><path class="f" d="M 97.00393676757812 34.7066764831543 C 96.61602020263672 34.7066764831543 96.22808074951172 34.81256484985352 95.88545989990234 35.01091384887695 L 85.74322509765625 40.93612670898438 C 85.04386901855469 41.36686706542969 84.62669372558594 42.08403396606445 84.62669372558594 42.85635375976562 L 84.62669372558594 54.61069488525391 C 84.62669372558594 55.39639282226562 85.0496826171875 56.12935638427734 85.73060607910156 56.52356338500977 L 95.87384033203125 62.3959846496582 C 96.21244812011719 62.58244705200195 96.62677001953125 62.693603515625 96.98390197753906 62.693603515625 C 97.34047698974609 62.693603515625 97.75405120849609 62.58279418945312 98.09236145019531 62.39685821533203 L 108.2245025634766 56.47756195068359 C 108.9134826660156 56.05315780639648 109.3411102294922 55.33858871459961 109.3411254882812 54.60614395141602 L 109.3955764770508 42.81095504760742 C 109.4301223754883 42.05068588256836 109.0234298706055 41.32109451293945 108.3594665527344 40.95222473144531 L 108.3446044921875 40.94379425048828 L 98.06531524658203 35.0007438659668 C 97.75050354003906 34.80836486816406 97.38348388671875 34.7066764831543 97.00393676757812 34.7066764831543 M 97.00393676757812 33.7066764831543 C 97.55825805664062 33.7066764831543 98.10590362548828 33.85360336303711 98.58676147460938 34.14746475219727 L 108.845100402832 40.07806396484375 C 109.8068161010742 40.61234283447266 110.4479598999023 41.68092346191406 110.3945465087891 42.85635375976562 L 110.3411102294922 54.61069488525391 C 110.3411102294922 55.73270416259766 109.6999664306641 56.74785614013672 108.7382507324219 57.33557510375977 L 98.58676147460938 63.26617431640625 C 98.10590362548828 63.5333251953125 97.51819610595703 63.693603515625 96.98390197753906 63.693603515625 C 96.44961547851562 63.693603515625 95.86189270019531 63.5333251953125 95.38101959228516 63.26617431640625 L 85.22956085205078 57.38899612426758 C 84.21441650390625 56.80128479003906 83.62669372558594 55.73270416259766 83.62669372558594 54.61069488525391 L 83.62669372558594 42.85635375976562 C 83.62669372558594 41.68092346191406 84.26782989501953 40.66577529907227 85.22956085205078 40.07806396484375 L 95.38101959228516 34.14746475219727 C 95.88860321044922 33.85360336303711 96.44960784912109 33.7066764831543 97.00393676757812 33.7066764831543 Z"/></g></g><g class="e" transform="translate(1133.602 1046.293)"><path class="f" d="M 96.98390197753906 63.193603515625 C 96.54440307617188 63.193603515625 96.03762817382812 63.05812454223633 95.62742614746094 62.83108139038086 L 85.48007965087891 56.95629501342773 C 84.64528656005859 56.47298431396484 84.12669372558594 55.57420349121094 84.12669372558594 54.61069488525391 L 84.12669372558594 42.85635375976562 C 84.12669372558594 41.90712356567383 84.63481903076172 41.02928924560547 85.48621368408203 40.50719451904297 L 95.63323974609375 34.57918548583984 C 96.05360412597656 34.33583450317383 96.52816009521484 34.2066764831543 97.00393676757812 34.2066764831543 C 97.47552490234375 34.2066764831543 97.93269348144531 34.33373641967773 98.32603454589844 34.57410430908203 L 98.33123016357422 34.57728576660156 L 98.33650970458984 34.5803337097168 L 108.594856262207 40.51093292236328 L 108.5985565185547 40.5130729675293 L 108.6022796630859 40.51514434814453 C 109.4307022094727 40.97537612915039 109.9381561279297 41.88544464111328 109.8950653076172 42.83365631103516 L 109.8945922851562 42.84386444091797 L 109.8945541381836 42.85408401489258 L 109.8411331176758 54.60842514038086 C 109.8411254882812 55.51291275024414 109.3202285766602 56.39222717285156 108.4813842773438 56.90657043457031 L 98.33972930908203 62.83142471313477 C 97.92964935302734 63.05826568603516 97.42317962646484 63.193603515625 96.98390197753906 63.193603515625 Z"/><path class="g" d="M 97.00393676757812 34.7066764831543 C 96.61602020263672 34.7066764831543 96.22808074951172 34.81256484985352 95.88545989990234 35.01091384887695 L 85.74322509765625 40.93612670898438 C 85.04386901855469 41.36686706542969 84.62669372558594 42.08403396606445 84.62669372558594 42.85635375976562 L 84.62669372558594 54.61069488525391 C 84.62669372558594 55.39639282226562 85.0496826171875 56.12935638427734 85.73060607910156 56.52356338500977 L 95.87384033203125 62.3959846496582 C 96.21244812011719 62.58244705200195 96.62677001953125 62.693603515625 96.98390197753906 62.693603515625 C 97.34047698974609 62.693603515625 97.75405120849609 62.58279418945312 98.09236145019531 62.39685821533203 L 108.2245025634766 56.47756195068359 C 108.9134826660156 56.05315780639648 109.3411102294922 55.33858871459961 109.3411254882812 54.60614395141602 L 109.3955764770508 42.81095504760742 C 109.4301223754883 42.05068588256836 109.0234298706055 41.32109451293945 108.3594665527344 40.95222473144531 L 108.3446044921875 40.94379425048828 L 98.06531524658203 35.0007438659668 C 97.75050354003906 34.80836486816406 97.38348388671875 34.7066764831543 97.00393676757812 34.7066764831543 M 97.00393676757812 33.7066764831543 C 97.55825805664062 33.7066764831543 98.10590362548828 33.85360336303711 98.58676147460938 34.14746475219727 L 108.845100402832 40.07806396484375 C 109.8068161010742 40.61234283447266 110.4479598999023 41.68092346191406 110.3945465087891 42.85635375976562 L 110.3411102294922 54.61069488525391 C 110.3411102294922 55.73270416259766 109.6999664306641 56.74785614013672 108.7382507324219 57.33557510375977 L 98.58676147460938 63.26617431640625 C 98.10590362548828 63.5333251953125 97.51819610595703 63.693603515625 96.98390197753906 63.693603515625 C 96.44961547851562 63.693603515625 95.86189270019531 63.5333251953125 95.38101959228516 63.26617431640625 L 85.22956085205078 57.38899612426758 C 84.21441650390625 56.80128479003906 83.62669372558594 55.73270416259766 83.62669372558594 54.61069488525391 L 83.62669372558594 42.85635375976562 C 83.62669372558594 41.68092346191406 84.26782989501953 40.66577529907227 85.22956085205078 40.07806396484375 L 95.38101959228516 34.14746475219727 C 95.88860321044922 33.85360336303711 96.44960784912109 33.7066764831543 97.00393676757812 33.7066764831543 Z"/></g></g><path class="d" d="M8.7,7.22q.2.944.359,1.709.072.323.131.646t.114.586q.054.263.09.448t.048.233q.036.239-.108.317a.667.667,0,0,1-.323.078.553.553,0,0,1-.173-.042l-.173-.066L5.544,9.312q-.849.5-1.542.9-.3.167-.592.335t-.532.311q-.239.143-.412.239t-.233.12a.408.408,0,0,1-.245.042.514.514,0,0,1-.227-.09.442.442,0,0,1-.149-.173.317.317,0,0,1-.024-.209l.06-.233q.048-.185.108-.442t.137-.568q.078-.311.161-.634.179-.741.406-1.674-.705-.61-1.267-1.088l-.472-.4Q.488,5.547.3,5.385T0,5.122q-.12-.1-.131-.114a1.429,1.429,0,0,1-.245-.293.477.477,0,0,1-.078-.329.417.417,0,0,1,.131-.263A.487.487,0,0,1-.086,4L3.608,3.67,4.982.466a.953.953,0,0,1,.2-.329A.473.473,0,0,1,5.544,0a.4.4,0,0,1,.209.054A.582.582,0,0,1,5.9.179,1.057,1.057,0,0,1,6,.323q.042.072.066.12l1.339,3.2,3.694.347a.831.831,0,0,1,.335.143.332.332,0,0,1,.1.263.452.452,0,0,1-.1.293q-.1.126-.257.3Z" transform="translate(1223.464 1088.659)"/></g></svg>