<svg xmlns="http://www.w3.org/2000/svg" width="50" height="49.5" viewBox="0 0 50 49.5"><defs><style>.a{fill:#f3a333;}.b{fill:#e5e1ed;}.c,.e{fill:#fff;}.d{fill:#d5cfe2;}.e{stroke:#8a4ff6;}.f{fill:#e6d8ff;}.g{fill:#8a4ff6;}</style></defs><g transform="translate(-436 -3277.5)"><g transform="translate(216 271)"><path class="a" d="M106.78,428.992l-4.857-8.661L92,420.98l12.637-23.28,14.768,8.012Z" transform="translate(128 2626.996)"/><path class="b" d="M120.087,405.912l-12.619,23.28-1.411-2.482-.042-.071-1.512-2.72-1.911-3.381-3.875.25-3.1.2-2.923.2,12.607-23.28,12.643,6.851Z" transform="translate(127.342 2626.808)"/><path class="c" d="M155.99,419.05,144.9,439.5l-3.1.2,11.869-21.9Zm8.089,4.393-11.887,21.9-1.512-2.708,11.077-20.464Z" transform="translate(81.164 2608.093)"/><path class="a" d="M484.237,428.992l4.857-8.661,9.911.649L486.368,397.7,471.6,405.712Z" transform="translate(-229.005 2626.996)"/><path class="b" d="M498.793,421.18l-2.875-.191-.065-.006-3.1-.2-3.875-.25-1.9,3.381-1.524,2.72-1.441,2.554L471.4,405.912l12.637-6.857,2.131-1.155Z" transform="translate(-228.816 2626.808)"/><path class="d" d="M698.456,421.18l-2.875-.191L683.7,399.055l2.131-1.155Z" transform="translate(-428.479 2626.808)"/><path class="c" d="M516.189,419.05,527.273,439.5l3.1.2-11.857-21.9Zm-8.089,4.393,11.875,21.9,1.524-2.708L510.41,422.175Z" transform="translate(-263.332 2608.093)"/><path class="d" d="M331.13,514.161l-12.619,23.28-1.411-2.482L328.993,513Z" transform="translate(-83.701 2518.559)"/><path class="e" d="M224.585,118.585m-18.185,0A18.185,18.185,0,1,0,224.585,100.4,18.185,18.185,0,0,0,206.4,118.585Z" transform="translate(20.409 2906.6)"/><path class="f" d="M272.267,150.9a15.173,15.173,0,1,0,15.167,15.179A15.168,15.168,0,0,0,272.267,150.9Zm0,27.06a11.89,11.89,0,1,1,11.9-11.881A11.9,11.9,0,0,1,272.267,177.96Z" transform="translate(-27.272 2859.105)"/></g><path class="g" d="M-5.28.224c2.368,0,4.4-1.248,4.4-3.472a2.941,2.941,0,0,0-2.3-2.9v-.08a2.728,2.728,0,0,0,1.92-2.624c0-2.128-1.616-3.28-4.08-3.28a5.6,5.6,0,0,0-3.7,1.472L-7.6-8.912A3.167,3.167,0,0,1-5.472-9.9c.88,0,1.36.448,1.36,1.264,0,.944-.64,1.568-2.672,1.568v2c2.5,0,3.04.608,3.04,1.632,0,.9-.72,1.36-1.824,1.36a3.634,3.634,0,0,1-2.48-1.152L-9.36-1.44A5.109,5.109,0,0,0-5.28.224Z" transform="translate(466 3302)"/></g></svg>